<?xml version="1.0" encoding="UTF-8"?>
<svg width="962px" height="752px" viewBox="0 0 962 752" version="1.1" xmlns="http://www.w3.org/2000/svg" xmlns:xlink="http://www.w3.org/1999/xlink">
    <!-- Generator: Sketch 63.1 (92452) - https://sketch.com -->
    <title>Artboard</title>
    <desc>Created with Sketch.</desc>
    <g id="Artboard" stroke="none" stroke-width="1" fill="none" fill-rule="evenodd">
        <g id="undraw_our_solution_htvp" transform="translate(34.000000, 53.000000)" fill-rule="nonzero">
            <ellipse id="Oval" fill="#ECC1AF" cx="447.06693" cy="600.86506" rx="447.06693" ry="28.06139"></ellipse>
            <rect id="Rectangle" fill="#3897A7" x="187" y="0" width="520" height="354" rx="10"></rect>
            <polygon id="Path" fill="#FBBEBE" points="880.902 552.848 885.955 573.062 863.721 579.126 861.699 557.902"></polygon>
            <polygon id="Path" fill="#FBBEBE" points="800.048 578.115 800.048 597.318 777.813 601.361 773.771 591.254 781.856 574.072"></polygon>
            <path d="M844.51776,368.90577 L841.48576,396.19395 L843.50711,448.74895 C844.316401,448.731735 845.097645,449.045646 845.670029,449.618031 C846.242414,450.190415 846.556325,450.971659 846.53911,451.78095 C846.53911,454.81295 843.50711,453.80229 846.53911,455.82364 C848.165474,456.928112 849.852584,457.940373 851.59247,458.85564 L883.93401,556.89093 C883.93401,556.89093 875.84863,566.99766 860.68853,563.96564 L857.65653,553.85891 C857.65653,553.85891 851.59253,547.79491 851.59253,544.76291 C851.59253,541.73091 853.61388,540.72021 851.59253,537.68819 C849.57118,534.65617 819.25093,473.0051 819.25093,473.0051 L805.10151,447.73828 L801.05882,482.10116 C801.05882,482.10116 809.1442,525.56016 807.12282,545.77357 C805.10144,565.98698 801.05882,587.21117 801.05882,587.21117 L776.80266,583.16847 C776.692721,579.907089 775.639538,576.747538 773.77066,574.07247 C770.73866,570.02977 766.69595,571.04047 770.73866,568.00847 C774.78137,564.97647 779.83472,568.00847 775.79203,563.96577 C771.74934,559.92307 771.74934,555.88039 771.74934,555.88039 L771.74934,552.84839 L765.68534,475.02656 L754.56793,372.94856 L844.51776,368.90577 Z" id="Path" fill="#A0616A"></path>
            <circle id="Oval" fill="#FBBEBE" cx="775.79199" cy="157.67509" r="27.28817"></circle>
            <polygon id="Path" fill="#FBBEBE" points="799.543 158.18 810.66 185.469 784.383 204.671 768.212 176.373"></polygon>
            <path d="M801.05882,178.89922 L811.16555,173.84585 L817.22955,187.99527 C817.22955,187.99527 856.6458,200.12335 853.61378,255.71037 C850.58176,311.29739 843.50705,332.52153 843.50705,332.52153 C843.50705,332.52153 860.68849,368.90576 850.58176,372.94845 C840.47503,376.99114 754.56776,392.15124 752.54647,378.00182 C750.52518,363.8524 759.62118,280.9772 759.62118,280.9772 C759.62118,280.9772 756.58918,221.34749 781.85599,209.21941 L776.80262,198.102 L801.05882,178.89922 Z" id="Path" fill="#303D4D"></path>
            <path d="M745.4718,374.96981 C745.4718,374.96981 722.22631,399.22597 735.36506,405.29 C748.50381,411.35403 756.5892,378.00183 756.5892,378.00183 L745.4718,374.96981 Z" id="Path" fill="#FBBEBE"></path>
            <path d="M792.97343,592.26453 L804.09084,588.22184 C804.09084,588.22184 816.21891,615.51001 806.11218,615.51001 L779.83468,615.51001 C779.83468,615.51001 764.67458,610.45665 756.5892,610.45665 C748.50382,610.45665 733.34372,595.29655 744.46112,588.22184 C755.57852,581.14713 769.72795,583.16847 769.72795,583.16847 L773.77064,574.07247 L778.82401,588.22189 C778.82401,588.22189 784.88805,598.32857 792.97343,592.26453 Z" id="Path" fill="#303D4D"></path>
            <path d="M874.83793,570.02972 C874.83793,570.02972 881.16693,566.03618 884.57181,567.52762 C887.97669,569.01906 889.99803,585.18982 889.99803,585.18982 C889.99803,585.18982 900.10476,597.3179 877.86995,599.33924 C855.63514,601.36058 850.58178,597.3179 848.56043,591.25386 C846.53908,585.18982 850.58178,579.12578 850.58178,579.12578 L856.64578,577.10444 C856.64578,577.10444 863.72049,572.05107 861.69914,570.02972 C859.67779,568.00837 861.69914,563.96572 861.69914,563.96572 C861.69914,563.96572 868.77393,578.11511 874.83793,570.02972 Z" id="Path" fill="#303D4D"></path>
            <path d="M785.12564,157.23781 C785.014574,156.354686 784.81574,155.484834 784.53209,154.64116 C783.06544,151.56416 777.34295,152.46227 776.3233,149.20971 C776.12374,148.57314 776.16547,147.88071 775.96992,147.24289 C775.47129,145.61651 773.55848,144.80989 771.85917,144.88798 C770.17362,145.120718 768.520405,145.546415 766.93207,146.15669 C762.93401,147.29134 758.68044,146.85822 754.54807,146.41588 C752.705443,146.353902 750.899534,145.883781 749.26058,145.03942 C747.69563,144.07673 746.56808,142.13874 747.13779,140.39195 C747.68403,138.71715 749.51679,137.79686 750.34084,136.23986 C751.64937,133.7675 750.04984,130.57435 751.11136,127.98631 C752.81424,123.83468 759.25862,124.66831 762.53268,121.59969 C763.3274,120.85484 763.89968,119.90269 764.66138,119.12411 C766.92132,116.81422 770.49038,116.36711 773.70616,116.68574 C776.92194,117.00437 780.08202,117.94874 783.31306,117.89158 C786.37723,117.83739 789.58922,116.90428 792.41262,118.09612 C794.073226,118.945817 795.53115,120.143504 796.68705,121.60757 L803.92883,129.55001 C804.92323,130.487649 805.689021,131.641127 806.16716,132.92151 C806.60285,134.44332 806.20182,136.0772 806.3877,137.64919 C806.8116,141.23435 810.16804,143.94232 810.62091,147.52393 C810.712214,148.634721 810.658516,149.752673 810.46117,150.8496 L809.44676,158.32896 C809.395762,159.058343 809.20155,159.77053 808.87522,160.42483 C808.58022,160.92883 808.13422,161.32689 807.80209,161.80726 C806.86441,163.16359 806.95002,164.95644 806.48401,166.53812 C806.01801,168.11962 804.34711,169.68486 802.88542,168.92259 C801.93183,168.42529 801.30093,164.31267 800.14252,163.24493 C798.529,161.75769 797.68606,161.94099 795.69452,161.96616 C791.70574,162.01657 786.40193,162.35856 785.12564,157.23781 Z" id="Path" fill="#2F2E41"></path>
            <path d="M789.94141,216.29413 C789.94141,216.29413 820.26161,228.42221 811.16555,255.71038 C802.06949,282.99855 777.81333,366.88438 777.81333,366.88438 L763.66393,373.95914 L759.62124,385.07654 L740.41845,378.00183 L743.45045,362.84173 C743.45045,362.84173 744.46112,361.83106 744.46112,357.78837 C744.46112,353.74568 740.41845,352.735 745.4718,352.735 C750.52517,352.735 750.52516,347.68164 750.52516,347.68164 L768.71728,234.48622 C768.71728,234.48622 768.71728,215.28346 789.94141,216.29413 Z" id="Path" fill="#303D4D"></path>
            <polygon id="Path" fill="#000000" opacity="0.1" points="812.682 261.269 781.351 368.4 768.212 381.539 775.792 367.895"></polygon>
            <polygon id="Path" fill="#2F2E41" points="60.867 197.123 92.628 202.417 103.215 152.128 77.63 141.541"></polygon>
            <circle id="Oval" fill="#A0616A" cx="104.53881" cy="159.62754" r="27.34998"></circle>
            <path d="M92.62833,175.06704 C92.62833,175.06704 95.27511,208.59281 74.98319,211.23959 C54.69127,213.88637 92.62833,273.87985 102.33319,272.99759 C112.03805,272.11533 129.68319,207.71059 129.68319,207.71059 C129.68319,207.71059 106.7445,191.82996 114.68482,177.71384 L92.62833,175.06704 Z" id="Path" fill="#A0616A"></path>
            <path d="M58.66143,297.25967 C58.66143,297.25967 62.19043,322.84513 72.77755,322.84513 C83.36467,322.84513 65.71949,293.73064 65.71949,293.73064 L58.66143,297.25967 Z" id="Path" fill="#A0616A"></path>
            <path d="M213.05645,322.84513 C213.05645,322.84513 239.52417,344.90156 235.99514,351.95962 C232.46611,359.01768 209.52742,344.0193 207.76291,326.37416 L213.05645,322.84513 Z" id="Path" fill="#A0616A"></path>
            <path d="M53.36793,407.54183 L36.60504,470.18209 L18.0776,546.05622 L35.72274,546.05622 C35.72274,546.05622 41.89854,522.23527 53.36789,509.88367 C53.36789,509.88367 64.83723,490.47401 64.83723,477.24015 L92.18723,412.83537 L53.36793,407.54183 Z" id="Path" fill="#A0616A"></path>
            <path d="M125.71298,411.07085 L131.00652,470.18209 C131.00652,470.18209 130.12427,512.53044 131.00652,522.23527 C131.88877,531.9401 131.00652,546.05622 131.00652,546.05622 L146.88716,546.05622 C146.88716,546.05622 161.88553,494.00304 157.47424,465.7708 L163.65004,399.60151 L125.71298,411.07085 Z" id="Path" fill="#A0616A"></path>
            <path d="M104.53881,248.73552 C104.53881,248.73552 80.76881,229.89808 86.91915,203.58538 C86.91915,203.58538 63.07272,204.62266 53.36789,214.32749 C43.66306,224.03232 56.01466,256.67583 56.01466,256.67583 C56.01466,256.67583 77.18883,291.96612 73.6598,307.84676 C70.13077,323.7274 32.19371,407.54183 44.54531,412.83537 C56.89691,418.12891 131.88878,436.65632 169.82584,405.77731 C169.82584,405.77731 179.53067,318.43384 140.71135,290.20161 L140.71135,268.14522 C140.71135,268.14522 147.76941,261.96942 144.24035,246.08879 C144.24035,246.08879 159.23873,218.73879 150.41615,213.44527 C141.59357,208.15175 121.32746,200.3941 121.32746,200.3941 C121.32746,200.3941 123.06621,239.91295 104.53881,248.73552 Z" id="Path" fill="#303D4D"></path>
            <path d="M58.66143,214.32749 C58.66143,214.32749 47.19208,212.56297 35.72274,229.32586 C24.2534,246.08875 -5.74335,272.55646 8.37274,285.79032 C22.48883,299.02418 60.42593,307.84676 60.42593,307.84676 L69.24851,291.96612 L31.31144,273.43872 L63.07271,249.61778 L58.66143,214.32749 Z" id="Path" fill="#303D4D"></path>
            <path d="M146.00493,214.32749 C146.00493,214.32749 158.35653,214.32749 163.65007,229.32586 C168.94361,244.32423 199.82262,295.49515 199.82262,295.49515 L217.46777,322.84515 L205.11613,336.96122 L170.70813,298.14191 L138.06458,244.32422 L146.00493,214.32749 Z" id="Path" fill="#303D4D"></path>
            <path d="M39.25177,544.2917 L14.54857,544.2917 L9.25502,587.52231 C9.25502,587.52231 -4.86107,610.461 16.31308,607.81422 C37.48723,605.16744 30.4292,581.34651 30.4292,581.34651 L35.72274,572.52393 L37.48726,591.05134 L39.25177,590.16908 L39.25177,569.87716 C39.25177,569.87716 48.9566,561.05459 39.25177,544.2917 Z" id="Path" fill="#2F2E41"></path>
            <path d="M151.29844,544.2917 L128.35975,542.52722 L123.94847,591.93362 C123.94847,591.93362 121.30169,610.46103 137.18233,607.81425 C153.06297,605.16747 147.76941,590.16911 147.76941,590.16911 L147.76941,562.81911 L151.29844,544.2917 Z" id="Path" fill="#2F2E41"></path>
            <path d="M84.68802,131.83643 C84.68802,131.83643 71.83502,136.12078 71.18232,153.04062 C71.1160123,155.74672 71.4161242,158.449351 72.07449,161.07498 C72.79822,164.14218 73.26349,170.74183 67.65466,179.36619 C63.8989573,185.060203 60.4680181,190.961897 57.37825,197.04305 L57.33804,197.12347 L71.45416,198.88798 L74.45571,175.4895 C75.910939,164.14536 79.0284933,153.077292 83.70808,142.64136 L83.80576,142.42352 C83.80576,142.42352 89.98156,153.89286 102.33316,153.89286 L97.92188,149.48158 C97.92188,149.48158 117.33154,157.42189 124.3896,157.42189 C124.3896,157.42189 129.68314,160.95089 124.3896,166.24447 C119.09606,171.53805 108.50896,183.88961 114.68477,193.59447 C120.86058,203.29933 115.56702,205.94607 115.56702,205.94607 L125.27185,200.65253 L129.68314,198.00576 L129.68314,201.53476 L152.62183,198.88798 C152.62183,198.88798 158.79763,198.00573 145.56377,183.00735 C145.56377,183.00735 142.06915,177.18299 143.59808,172.15956 C144.854394,168.34183 145.184538,164.280013 144.56125,160.30951 C141.59653,143.77006 129.96457,110.88758 84.68802,131.83643 Z" id="Path" fill="#2F2E41"></path>
            <path d="M586.14017,627.20522 C586.02008,627.00898 583.18843,622.28087 582.20673,612.46284 C581.30628,603.45532 581.88529,588.27243 589.75933,567.09356 C604.67648,526.97156 586.32159,494.59899 586.13404,494.27656 L587.0396,493.75122 C590.573807,500.514375 593.126688,507.74645 594.62133,515.22956 C598.318261,532.654182 596.972068,550.771582 590.74052,567.45848 C575.84893,607.51197 586.92001,626.47294 587.03346,626.65998 L586.14017,627.20522 Z" id="Path" fill="#AFC0A5"></path>
            <path d="M590.24993,627.45559 C590.24993,627.45559 583.44701,610.70996 603.85575,598.15073 L590.24993,627.45559 Z" id="Path" fill="#AFC0A5"></path>
            <path d="M581.8834,627.15184 C581.8834,627.15184 578.78733,609.34425 554.82428,609.49684 L581.8834,627.15184 Z" id="Path" fill="#AFC0A5"></path>
            <path d="M311.94233,577.75322 C311.82223,577.55698 308.99058,572.82887 308.00888,563.01084 C307.10843,554.00332 307.68744,538.82043 315.56148,517.64156 C330.47863,477.51956 312.12374,445.14699 311.93619,444.82456 L312.84175,444.29922 C316.375962,451.062373 318.928843,458.294449 320.42348,465.77756 C324.120416,483.202182 322.774224,501.319583 316.54267,518.00648 C301.65108,558.05996 312.72217,577.02094 312.83567,577.20798 L311.94233,577.75322 Z" id="Path" fill="#AFC0A5"></path>
            <path d="M316.05208,578.00364 C316.05208,578.00364 309.24917,561.25801 329.65791,548.69878 L316.05208,578.00364 Z" id="Path" fill="#AFC0A5"></path>
            <path d="M307.68555,577.69988 C307.68555,577.69988 304.58948,559.89229 280.62644,560.04488 L307.68555,577.69988 Z" id="Path" fill="#AFC0A5"></path>
        </g>
        <text id="Date-My-Mate" font-family="Pacifico-Regular, Pacifico" font-size="70" font-weight="normal" fill="#FFFFFF">
            <tspan x="264.9375" y="254">Date My Mate</tspan>
        </text>
        <g id="heart-icon-transparent-background-1-copy-16" transform="translate(598.000000, 533.000000)" fill="#AFC0A5" fill-rule="nonzero" stroke="#AFC0A5">
            <g id="Group" transform="translate(23.000000, 13.000000) scale(-1, 1) rotate(-180.000000) translate(-23.000000, -13.000000) ">
                <path d="M37.9955325,25.9116963 C37.7915738,25.86638 37.2088347,25.6397986 36.698938,25.3981118 C35.5625968,24.8694218 33.9454958,23.2229302 33.187935,21.8332309 C32.911134,21.3045409 32.6489014,20.881589 32.6051959,20.881589 C32.5614905,20.881589 32.4012373,21.0930649 32.2555525,21.3498572 C31.8330666,22.0900232 30.5364722,23.3588791 29.6040896,23.9328853 C28.4968854,24.627735 26.9817637,25.1111087 25.9036964,25.1111087 C24.7527867,25.1111087 23.3105075,24.627735 22.6257891,24.0084125 L22.04305,23.4948279 L21.5331533,23.9177799 C20.1928534,25.0355815 17.8181916,25.0960032 15.8660157,24.0688342 C14.8899277,23.5401442 13.6953126,22.2712883 13.0542996,21.0628541 L12.456992,19.9450525 L12.2384648,20.3680044 C11.8014105,21.2441192 10.5193845,22.7395565 9.70354982,23.2984574 C8.37781839,24.204783 7.38716195,24.5371024 5.94488271,24.5522078 C1.00616894,24.5824187 -1.20823959,20.3377936 0.656525492,14.3862551 C1.50149717,11.697489 3.55565245,8.02687012 5.63894469,5.51936915 C7.40173042,3.4046093 10.3008574,1.24453316 12.5881083,0.338207507 C13.7244495,-0.0998498918 14.991907,-0.114955319 15.8077418,0.307996652 C16.1865222,0.519472637 17.7307807,2.07533167 20.0617371,4.59793807 C22.0721869,6.78822507 23.8204042,8.63108722 23.936952,8.72171979 C24.0972053,8.82745778 24.3303009,8.67640351 24.91304,8.10239726 C26.2970453,6.6975925 28.6425701,5.14173346 30.4199244,4.41667294 C30.8424102,4.23540781 31.294033,3.96351012 31.4105808,3.79735041 C31.7310873,3.32908216 32.3138264,3.44992558 33.7269687,4.32604038 C38.9424835,7.51328559 43.2693212,11.6672782 44.9446961,15.0659994 C45.9353525,17.0599158 46.255859,19.3106245 45.7896678,20.9571161 C45.1486548,23.2984574 43.5315538,25.0657924 41.4482616,25.7455366 C40.6324269,26.0023289 38.927915,26.077856 37.9955325,25.9116963 Z M40.6323278,23.6915677 C41.471919,23.3113487 42.3983645,22.2923617 42.7457815,21.3494185 C43.2669071,19.8741686 42.9773929,17.7145245 41.9640932,15.6005067 C40.473095,12.4979194 35.8553434,8.04175228 31.3533975,5.34980151 L30.7743691,5 L28.6753911,6.52087614 C25.881579,8.57405892 25.0564635,9.31928823 23.883931,10.733703 C21.7270502,13.34961 20.5255662,17.4103493 21.1769732,19.8741686 C21.5533416,21.2733747 22.7403499,22.4140318 24.332678,22.9007121 C27.0975387,23.7524028 29.4715552,22.2771529 30.7164663,18.9312254 C31.4402518,16.9997127 31.4113004,17.045339 32.077183,17.0909653 L32.6706872,17.1365916 L32.7864928,18.1859961 C32.9746771,20.0718825 33.9300739,21.7144288 35.377645,22.7334158 C36.1014305,23.2353049 37.4621473,23.8132378 38.2438356,23.9653254 C38.8083883,24.0717868 40.0967265,23.9196992 40.6323278,23.6915677 Z M19.7890959,23.7709371 C20.7953678,23.46552 21.3210323,23.0532069 21.0657095,22.7477897 C20.9755956,22.6256229 20.7052539,22.0453303 20.4949881,21.4650378 C20.1345325,20.5487864 20.0894756,20.1822858 20.0744566,18.5788458 C20.0444186,15.677383 20.675216,14.0128596 22.9581015,10.8670631 C23.1233103,10.6227294 22.8830066,10.3325831 20.7052539,8.14885059 C17.851647,5.29320036 16.5299764,4.19369867 15.1782679,3.50651011 C13.2408189,2.54444613 11.5586927,2.92621755 9.15565533,4.88088723 C6.07676364,7.35476604 2.23190378,13.2645876 1.27068881,16.9754059 C1.12049897,17.5251567 1.0003471,18.4872207 1.0003471,19.1133258 C0.970309132,21.8773509 2.89273907,23.6945829 5.65623209,23.5113326 C8.26953529,23.3433532 10.402231,21.3428709 11.348427,18.1970744 C11.8140155,16.6241761 11.9792243,16.3645716 12.4598318,16.3645716 C13.0756101,16.3645716 13.3759898,16.7310721 13.3759898,17.4793441 C13.3910088,19.4492847 14.6526034,21.9078926 16.2295967,23.0073943 C16.875413,23.46552 18.1970836,23.9847291 18.722748,24 C18.8879569,24 19.3685644,23.893104 19.7890959,23.7709371 Z" id="Shape"></path>
            </g>
        </g>
        <g id="love-talk-svgrepo-com-copy-10" transform="translate(570.000000, 492.000000) scale(-1, 1) translate(-570.000000, -492.000000) translate(541.000000, 463.000000)" fill="#AFC0A5" fill-rule="nonzero" stroke="#AFC0A5">
            <path d="M53.1725367,0 L11.4269785,0 C8.76514634,0 6.59966849,2.21592027 6.59966849,4.93928645 L6.59966849,43.5693112 L0.130052476,56.2805487 C-0.0873994429,56.7075497 -0.0284008601,57.2269134 0.278851499,57.5916597 C0.501207197,57.8557323 0.821025488,58 1.14957863,58 C1.27477822,58 1.401357,57.9788303 1.5241047,57.9357068 L16.6531802,52.5970184 L53.17269,52.5970184 C55.8345221,52.5970184 58,50.3810981 58,47.6574183 L58,4.93928645 C58,2.21592027 55.8343689,0 53.1725367,0 Z M55.7012007,47.6575751 C55.7012007,49.0842571 54.5668955,50.2449847 53.1725367,50.2449847 L16.4604005,50.2449847 C16.3329022,50.2449847 16.2063234,50.2667817 16.0857211,50.3092779 L3.50063385,54.7502136 L8.76836445,44.4005753 C8.85372084,44.2327858 8.89831457,44.0464923 8.89831457,43.8572193 L8.89831457,4.93928645 C8.89831457,3.5126045 10.0326198,2.35219051 11.4269785,2.35219051 L53.1725367,2.35219051 C54.5668955,2.35219051 55.7012007,3.5126045 55.7012007,4.93928645 L55.7012007,47.6575751 L55.7012007,47.6575751 Z" id="Shape" stroke-width="1.5"></path>
            <path d="M43.4299022,23.0310155 C42.754152,23.0310155 42.1016336,23.1448082 41.4818581,23.3627158 C42.3403446,18.8337965 40.3190188,15.016511 37.2160873,13.1644524 C34.2678268,11.4044895 29.9560602,11.3895044 26.8319237,15.090968 C24.7415261,12.6315466 21.8961718,11.5507498 18.9659978,12.1721611 C15.3926606,12.9312476 12.6300988,16.0309677 12.0920245,19.8854036 C11.6618457,22.9663924 12.1838605,30.9393758 26.2873009,38.4133258 C26.4584992,38.5038605 26.6463809,38.5492839 26.8344184,38.5492839 C27.0223001,38.5492839 27.2103376,38.5038605 27.381536,38.4133258 C28.4222911,37.8618447 29.4186095,37.2896031 30.3573941,36.7062788 C32.1556006,38.9421732 34.8258587,41.0091736 38.3259143,42.8640419 C38.4971127,42.9545766 38.6849943,43 38.8730319,43 C39.0610694,43 39.2489511,42.9545766 39.4201494,42.8640419 C43.5699169,40.6646735 46.5584043,38.1684139 48.3026632,35.4444127 C50.2388575,32.4200861 50.1719685,29.8768421 49.7748444,28.2759392 C49.0208232,25.2367837 46.3525921,23.0310155 43.4299022,23.0310155 Z M14.4083479,20.2094554 C14.8107732,17.3274868 16.8374002,15.0177598 19.4515276,14.4626885 C21.9084893,13.9407093 24.2380657,15.1196893 25.8418421,17.6974302 C26.0552943,18.0403693 26.4305899,18.2492234 26.8344184,18.2492234 C27.238247,18.2492234 27.6135425,18.0406815 27.8269948,17.6974302 C30.3085916,13.708441 33.7904048,13.84596 36.0184783,15.1755711 C38.744867,16.80301 40.3152768,20.5246097 38.6118686,24.8499821 C37.4011624,23.6661631 35.9232122,23.0311716 34.3160056,23.0311716 C31.3931598,23.0311716 28.7246169,25.237252 27.9705956,28.2762514 C27.6034079,29.7563373 27.5198356,32.0420258 29.0392601,34.7682123 C28.336536,35.2029349 27.6006013,35.6318819 26.8341066,36.0499024 C14.5708148,29.3682869 14.0516066,22.7642504 14.4083479,20.2094554 Z M38.8730319,40.4992136 C29.4758316,35.3234396 29.8827785,30.2829994 30.2406112,28.8403761 C30.7389263,26.8309745 32.452937,25.3724296 34.3161615,25.3724296 C35.6949477,25.3724296 36.9608489,26.1867734 37.8804555,27.6651423 C38.0939078,28.0083936 38.4692033,28.2169356 38.8730319,28.2169356 C39.2768604,28.2169356 39.652156,28.0083936 39.8656082,27.6651423 C40.7853707,26.1867734 42.051272,25.3724296 43.4299022,25.3724296 C45.292659,25.3724296 47.0063578,26.8309745 47.5048288,28.8403761 C47.8626615,30.2829994 48.2696085,35.3237518 38.8730319,40.4992136 Z" id="Shape"></path>
        </g>
        <g id="love-talk-svgrepo-com-copy-11" transform="translate(369.000000, 427.000000)" fill="#AFC0A5" fill-rule="nonzero" stroke="#AFC0A5">
            <path d="M53.1725367,0 L11.4269785,0 C8.76514634,0 6.59966849,2.21592027 6.59966849,4.93928645 L6.59966849,43.5693112 L0.130052476,56.2805487 C-0.0873994429,56.7075497 -0.0284008601,57.2269134 0.278851499,57.5916597 C0.501207197,57.8557323 0.821025488,58 1.14957863,58 C1.27477822,58 1.401357,57.9788303 1.5241047,57.9357068 L16.6531802,52.5970184 L53.17269,52.5970184 C55.8345221,52.5970184 58,50.3810981 58,47.6574183 L58,4.93928645 C58,2.21592027 55.8343689,0 53.1725367,0 Z M55.7012007,47.6575751 C55.7012007,49.0842571 54.5668955,50.2449847 53.1725367,50.2449847 L16.4604005,50.2449847 C16.3329022,50.2449847 16.2063234,50.2667817 16.0857211,50.3092779 L3.50063385,54.7502136 L8.76836445,44.4005753 C8.85372084,44.2327858 8.89831457,44.0464923 8.89831457,43.8572193 L8.89831457,4.93928645 C8.89831457,3.5126045 10.0326198,2.35219051 11.4269785,2.35219051 L53.1725367,2.35219051 C54.5668955,2.35219051 55.7012007,3.5126045 55.7012007,4.93928645 L55.7012007,47.6575751 L55.7012007,47.6575751 Z" id="Shape" stroke-width="1.5"></path>
            <path d="M43.4299022,23.0310155 C42.754152,23.0310155 42.1016336,23.1448082 41.4818581,23.3627158 C42.3403446,18.8337965 40.3190188,15.016511 37.2160873,13.1644524 C34.2678268,11.4044895 29.9560602,11.3895044 26.8319237,15.090968 C24.7415261,12.6315466 21.8961718,11.5507498 18.9659978,12.1721611 C15.3926606,12.9312476 12.6300988,16.0309677 12.0920245,19.8854036 C11.6618457,22.9663924 12.1838605,30.9393758 26.2873009,38.4133258 C26.4584992,38.5038605 26.6463809,38.5492839 26.8344184,38.5492839 C27.0223001,38.5492839 27.2103376,38.5038605 27.381536,38.4133258 C28.4222911,37.8618447 29.4186095,37.2896031 30.3573941,36.7062788 C32.1556006,38.9421732 34.8258587,41.0091736 38.3259143,42.8640419 C38.4971127,42.9545766 38.6849943,43 38.8730319,43 C39.0610694,43 39.2489511,42.9545766 39.4201494,42.8640419 C43.5699169,40.6646735 46.5584043,38.1684139 48.3026632,35.4444127 C50.2388575,32.4200861 50.1719685,29.8768421 49.7748444,28.2759392 C49.0208232,25.2367837 46.3525921,23.0310155 43.4299022,23.0310155 Z M14.4083479,20.2094554 C14.8107732,17.3274868 16.8374002,15.0177598 19.4515276,14.4626885 C21.9084893,13.9407093 24.2380657,15.1196893 25.8418421,17.6974302 C26.0552943,18.0403693 26.4305899,18.2492234 26.8344184,18.2492234 C27.238247,18.2492234 27.6135425,18.0406815 27.8269948,17.6974302 C30.3085916,13.708441 33.7904048,13.84596 36.0184783,15.1755711 C38.744867,16.80301 40.3152768,20.5246097 38.6118686,24.8499821 C37.4011624,23.6661631 35.9232122,23.0311716 34.3160056,23.0311716 C31.3931598,23.0311716 28.7246169,25.237252 27.9705956,28.2762514 C27.6034079,29.7563373 27.5198356,32.0420258 29.0392601,34.7682123 C28.336536,35.2029349 27.6006013,35.6318819 26.8341066,36.0499024 C14.5708148,29.3682869 14.0516066,22.7642504 14.4083479,20.2094554 Z M38.8730319,40.4992136 C29.4758316,35.3234396 29.8827785,30.2829994 30.2406112,28.8403761 C30.7389263,26.8309745 32.452937,25.3724296 34.3161615,25.3724296 C35.6949477,25.3724296 36.9608489,26.1867734 37.8804555,27.6651423 C38.0939078,28.0083936 38.4692033,28.2169356 38.8730319,28.2169356 C39.2768604,28.2169356 39.652156,28.0083936 39.8656082,27.6651423 C40.7853707,26.1867734 42.051272,25.3724296 43.4299022,25.3724296 C45.292659,25.3724296 47.0063578,26.8309745 47.5048288,28.8403761 C47.8626615,30.2829994 48.2696085,35.3237518 38.8730319,40.4992136 Z" id="Shape"></path>
        </g>
        <g id="heart-icon-transparent-background-1-copy-17" transform="translate(326.000000, 485.000000)" fill="#AFC0A5" fill-rule="nonzero" stroke="#AFC0A5">
            <g id="Group" transform="translate(22.000000, 12.500000) scale(-1, 1) rotate(-180.000000) translate(-22.000000, -12.500000) ">
                <path d="M36.254939,24.1234975 C36.0605302,24.0819048 35.5050766,23.8739411 35.0190546,23.6521131 C33.93592,23.1668644 32.3945362,21.6556615 31.6724464,20.3801507 C31.4086059,19.8949021 31.1586518,19.5067032 31.1169928,19.5067032 C31.0753338,19.5067032 30.922584,19.7008026 30.7837206,19.9364948 C30.3810167,20.6158429 29.1451323,21.7804397 28.2564065,22.3072811 C27.2010446,22.9450365 25.7568651,23.3886924 24.7292759,23.3886924 C23.6322549,23.3886924 22.2575071,22.9450365 21.6048491,22.3766023 L21.0493955,21.9052179 L20.5633735,22.2934169 C19.2858301,23.3193712 17.0223565,23.3748281 15.1615868,22.4320593 C14.231202,21.9468107 13.092522,20.7822139 12.481523,19.6730741 L11.912183,18.6471198 L11.7038879,19.0353187 C11.2872977,19.8394451 10.0652996,21.2120056 9.28766454,21.7249827 C8.0240075,22.5568376 7.0797363,22.861851 5.70498853,22.8757152 C0.997518893,22.9034437 -1.11320496,19.0075902 0.664246706,13.5450768 C1.46965449,11.0772408 3.42762859,7.7082287 5.41337537,5.40676364 C7.09362264,3.46576902 9.85700453,1.48318166 12.0371601,0.65132682 C13.1202947,0.249263648 14.3284064,0.235399401 15.1060415,0.623598325 C15.4670863,0.817697788 16.9390385,2.24571526 19.1608531,4.56104456 C21.0771682,6.57136042 22.7435291,8.26279859 22.8546198,8.34598407 C23.0073696,8.4430338 23.229551,8.30439133 23.7850047,7.77754993 C25.1042071,6.48817493 27.339908,5.06015746 29.0340416,4.39467359 C29.4367455,4.22830262 29.8672221,3.97874617 29.9783128,3.82623945 C30.2838123,3.39644779 30.839266,3.50736176 32.186241,4.31148811 C37.1575512,7.23684429 41.2817945,11.0495123 42.8787237,14.1689679 C43.8229949,15.9990486 44.1284944,18.0648214 43.6841315,19.5760244 C43.0731325,21.7249827 41.5317486,23.3470997 39.5460018,23.9709908 C38.7683667,24.206683 37.1436648,24.2760042 36.254939,24.1234975 Z M39.3417081,21.6551146 C40.1343291,21.314009 41.0089455,20.399846 41.3369266,19.5539041 C41.8288983,18.2304144 41.5555807,16.2929347 40.5989691,14.3963876 C39.1913834,11.6129659 34.8319676,7.61520838 30.5818788,5.20018078 L30.0352436,4.88636364 L28.0536909,6.25078601 C25.416176,8.09275621 24.6372208,8.76132317 23.5302845,10.030236 C21.4940683,12.3770425 20.3598003,16.0200502 20.9747649,18.2304144 C21.3300778,19.485683 22.45068,20.5089998 23.9539268,20.945615 C26.5641099,21.7096915 28.8053143,20.3862018 29.98058,17.3844726 C30.6638741,15.6516562 30.6365423,15.6925888 31.2651728,15.7335215 L31.8254739,15.7744542 L31.9348009,16.7159056 C32.1124574,18.4077893 33.0144055,19.8813655 34.3809935,20.7955285 C35.0642875,21.2457879 36.3488803,21.7642684 37.0868378,21.9007106 C37.6198072,21.9962202 38.8360705,21.8597779 39.3417081,21.6551146 Z M18.9302654,21.7211002 C19.8802423,21.4401429 20.376499,21.0608505 20.13546,20.7798932 C20.0503875,20.6675102 19.7951698,20.1336913 19.5966671,19.5998724 C19.2563769,18.7570004 19.2138406,18.4198516 19.1996618,16.9448257 C19.1713043,14.2757311 19.7668123,12.7445137 21.9219839,9.8506533 C22.0779503,9.62588744 21.8510901,9.35897798 19.7951698,7.35013312 C17.1012052,4.72318215 15.8534742,3.71173579 14.5773857,3.07958181 C12.7483256,2.19456625 11.1603043,2.5457629 8.89170259,4.34388977 C5.98505659,6.61964408 2.35529377,12.0561683 1.44785307,15.4697998 C1.30606546,15.9755229 1.19263537,16.8605385 1.19263537,17.436501 C1.16427785,19.9791648 2.97915926,21.6508609 5.58805128,21.4822865 C8.05515569,21.3277599 10.0685397,19.4874895 10.9618017,16.593629 C11.4013433,15.1466988 11.5573097,14.9078851 12.01103,14.9078851 C12.5923592,14.9078851 12.8759344,15.2450339 12.8759344,15.9333793 C12.8901132,17.7455541 14.0811291,20.0072605 15.569899,21.0187069 C16.1795857,21.4401429 17.4273167,21.9177703 17.9235733,21.9318182 C18.0795397,21.9318182 18.5332601,21.8334831 18.9302654,21.7211002 Z" id="Shape"></path>
            </g>
        </g>
        <g id="heart-icon-transparent-background-1-copy-18" transform="translate(614.000000, 152.000000)" fill="#FFFFFF" fill-rule="nonzero" stroke="#FFFFFF">
            <g id="Group" transform="translate(37.500000, 21.000000) scale(-1, 1) rotate(-180.000000) translate(-37.500000, -21.000000) translate(0.000000, -0.000000)">
                <path d="M61.8359524,41.6859123 C61.5055217,41.6132163 60.5614338,41.2497362 59.7353569,40.862024 C57.8943855,40.0139037 55.2745417,37.3726146 54.0472274,35.1432697 C53.5987857,34.2951494 53.1739461,33.6166531 53.1031395,33.6166531 C53.032333,33.6166531 52.7727088,33.9559012 52.5366868,34.3678454 C51.8522231,35.5552139 49.7516276,37.5907027 48.241087,38.5115191 C46.44732,39.6261915 43.9926915,40.4016158 42.2461289,40.4016158 C40.3815554,40.4016158 38.0449379,39.6261915 36.9356346,38.6326791 L35.9915468,37.8087908 L35.1654699,38.4872871 C32.9940677,40.2804558 29.1469096,40.3773838 25.9842152,38.7296071 C24.4028681,37.8814868 22.4674879,35.845998 21.4289912,33.9074372 L20.4613012,32.1142685 L20.1072682,32.7927648 C19.3992023,34.1982213 17.322209,36.5971903 16.0004859,37.4937747 C13.852686,38.9476952 12.2477366,39.4807994 9.91111912,39.5050315 C1.90997436,39.5534955 -1.67755958,32.7443008 1.34352163,23.196889 C2.71244905,18.8835912 6.04035882,12.9952129 9.41547299,8.97269928 C12.2713388,5.58021793 16.968176,2.11504054 20.6737209,0.661119964 C22.5146923,-0.0416083163 24.5680834,-0.0658403259 25.8898065,0.612655945 C26.5034636,0.95190408 29.0052965,3.44780108 32.781648,7.49454669 C36.0387511,11.0081881 38.8710148,13.9644933 39.0598324,14.1098853 C39.3194565,14.2795094 39.6970917,14.0371893 40.6411796,13.1163729 C42.8833883,10.862796 46.683342,8.36689904 49.56281,7.20376257 C50.2472737,6.91297846 50.9789418,6.47680228 51.1677594,6.21025018 C51.6870077,5.45905788 52.6310956,5.65291396 54.9205087,7.05837052 C63.3700952,12.1713246 70.3799477,18.8351272 73.0942004,24.2873294 C74.6991498,27.4859547 75.2183981,31.0965241 74.4631278,33.7378132 C73.4246311,37.4937747 70.8047873,40.3289198 67.4296731,41.4193602 C66.1079501,41.8313044 63.346493,41.9524644 61.8359524,41.6859123 Z M67.0824411,37.3716587 C68.4296353,36.7754725 69.9161945,35.1776932 70.4736542,33.6991513 C71.3098437,31.3859485 70.8452939,27.9996104 69.2193699,24.6848147 C66.8269388,19.8199347 59.4173706,12.8326315 52.1936223,8.61163259 L51.2645229,8.06314121 L47.8965373,10.4478863 C43.4136325,13.6672922 42.0896657,14.8358174 40.2082393,17.0536303 C36.7473439,21.1553919 34.8194625,27.5226614 35.8646994,31.3859485 C36.468614,33.579914 38.3732679,35.3684728 40.9282914,36.1315913 C45.3647413,37.4670486 49.1740491,35.1538458 51.1716129,29.9074065 C52.3329873,26.8787802 52.2865323,26.9503226 53.3549967,27.0218649 L54.3073236,27.0934073 L54.4931435,28.7388814 C54.7951008,31.6959654 56.3281149,34.2714901 58.6508636,35.8692693 C59.8122379,36.6562352 61.9956216,37.5624384 63.2499059,37.8009129 C64.1557778,37.967845 66.2230241,37.7293705 67.0824411,37.3716587 Z M32.389725,37.4869887 C34.0043723,36.99593 34.8478448,36.3330006 34.4381582,35.8419418 C34.2935629,35.6455183 33.859777,34.7125066 33.522388,33.7794949 C32.9440069,32.3063185 32.8717092,31.7170479 32.84761,29.1389892 C32.7994116,24.4739307 33.8115786,21.7976603 37.4746592,16.7397547 C37.7397505,16.3469077 37.3541631,15.8804018 33.859777,12.3693314 C29.2809263,7.77793169 27.1601955,6.01012003 24.9912662,4.90523774 C21.8824676,3.35840254 19.1833556,3.97222603 15.3274813,7.11500232 C10.3871424,11.0925786 4.21774354,20.5945662 2.67539383,26.5609306 C2.43440169,27.4448364 2.24160798,28.9916716 2.24160798,29.9983421 C2.19340955,34.4424242 5.27810897,37.364224 9.71236438,37.0695888 C13.9056277,36.7995064 17.3277161,33.5830713 18.8459666,28.5251658 C19.5930422,25.996213 19.8581336,25.578813 20.6293084,25.578813 C21.6173762,25.578813 22.0993605,26.1680835 22.0993605,27.3711776 C22.1234597,30.5385068 24.1477937,34.4915301 26.6782112,36.2593418 C27.7144774,36.99593 29.8352082,37.8307299 30.6786807,37.8552828 C30.9437721,37.8552828 31.714947,37.6834123 32.389725,37.4869887 Z" id="Shape"></path>
            </g>
        </g>
    </g>
</svg>