<?xml version="1.0" encoding="UTF-8"?>
<svg width="962px" height="752px" viewBox="0 0 962 752" version="1.1" xmlns="http://www.w3.org/2000/svg" xmlns:xlink="http://www.w3.org/1999/xlink">
    <!-- Generator: Sketch 63.1 (92452) - https://sketch.com -->
    <title>Artboard Copy 6</title>
    <desc>Created with Sketch.</desc>
    <g id="Artboard-Copy-6" stroke="none" stroke-width="1" fill="none" fill-rule="evenodd">
        <rect fill="#FFFFFF" x="0" y="0" width="962" height="752"></rect>
        <g id="undraw_our_solution_htvp" transform="translate(34.000000, 53.000000)" fill-rule="nonzero">
            <ellipse id="Oval" fill="#ECC1AF" cx="447.06693" cy="600.86506" rx="447.06693" ry="28.06139"></ellipse>
            <rect id="Rectangle" fill="#3897A7" x="187" y="0" width="520" height="354" rx="10"></rect>
            <polygon id="Path" fill="#2F2E41" points="73.4823906 237.875856 98.9823906 242.571893 107.482391 197.963082 86.9409247 188.571893"></polygon>
            <ellipse id="Oval" fill="#A0616A" cx="107.482391" cy="204.571893" rx="21" ry="24"></ellipse>
            <path d="M98.1238846,218.571893 C98.1238846,218.571893 100.220924,248.010435 84.1436685,250.334538 C68.0664129,252.658641 98.1238846,305.338134 105.81303,304.563433 C113.502175,303.788732 127.482391,247.235769 127.482391,247.235769 C127.482391,247.235769 109.308103,233.291195 115.599206,220.896014 L98.1238846,218.571893 Z" id="Path" fill="#A0616A"></path>
            <path d="M70.66143,323.25967 C70.66143,323.25967 74.19043,348.84513 84.77755,348.84513 C95.36467,348.84513 77.71949,319.73064 77.71949,319.73064 L70.66143,323.25967 Z" id="Path" fill="#A0616A"></path>
            <path d="M68.1014617,422.571893 L54.9824161,477.743863 L40.4823906,544.571893 L54.2919066,544.571893 C54.2919066,544.571893 59.125238,523.590998 68.1014304,512.712019 C68.1014304,512.712019 77.077615,495.616477 77.077615,483.960425 L98.4823906,427.234311 L68.1014617,422.571893 Z" id="Path" fill="#A0616A"></path>
            <path d="M124.482391,425.595986 L128.668435,477.258638 C128.668435,477.258638 127.970766,514.270686 128.668435,522.752614 C129.366103,531.234541 128.668435,543.571893 128.668435,543.571893 L141.226582,543.571893 C141.226582,543.571893 153.087045,498.077918 149.59867,473.403213 L154.482391,415.571893 L124.482391,425.595986 Z" id="Path" fill="#A0616A"></path>
            <path d="M107.934978,283.10003 C107.934978,283.10003 89.1141308,266.527881 93.9839082,243.379407 C93.9839082,243.379407 75.1025445,244.291949 67.4183577,252.829728 C59.7341708,261.367506 69.5140436,290.08548 69.5140436,290.08548 C69.5140436,290.08548 86.2795386,321.131946 83.4852881,335.102864 C80.6910376,349.073782 50.6528547,422.809132 60.4327275,427.466099 C70.2126002,432.123066 129.590409,448.422467 159.628592,421.256804 C159.628592,421.256804 167.312779,344.416798 136.576032,319.579627 L136.576032,300.175622 C136.576032,300.175622 142.164532,294.742491 139.370258,280.771581 C139.370258,280.771581 151.245825,256.710548 144.260195,252.053599 C137.274564,247.396649 121.228062,240.571893 121.228062,240.571893 C121.228062,240.571893 122.604787,275.338415 107.934978,283.10003 Z" id="Path" fill="#303D4D"></path>
            <path d="M71.285216,252.618662 C71.285216,252.618662 62.4049332,251.07237 53.5246581,265.762102 C44.644383,280.451834 21.4190369,303.646138 32.3485902,315.243294 C43.2781434,326.84045 72.6514015,334.571893 72.6514015,334.571893 L79.4823906,320.655299 L50.1091558,304.419284 L74.7007029,283.544409 L71.285216,252.618662 Z" id="Path" fill="#303D4D"></path>
            <path d="M56.1576238,542.571893 L37.11578,542.571893 L33.0353794,580.555873 C33.0353794,580.555873 22.1543446,600.710636 38.4759084,598.38508 C54.7974723,596.059523 49.3569664,575.129591 49.3569664,575.129591 L53.4373593,567.377753 L54.7974954,583.656606 L56.1576238,582.881421 L56.1576238,565.052205 C56.1576238,565.052205 63.6383492,557.300376 56.1576238,542.571893 Z" id="Path" fill="#2F2E41"></path>
            <path d="M144.482391,542.133241 L126.141706,540.571893 L122.614656,584.290484 C122.614656,584.290484 120.498417,600.684965 133.195821,598.34289 C145.893225,596.000815 141.660746,582.72911 141.660746,582.72911 L141.660746,558.527722 L144.482391,542.133241 Z" id="Path" fill="#2F2E41"></path>
            <path d="M91.9725885,180.427799 C91.9725885,180.427799 81.8733668,184.136031 81.3605089,198.780655 C81.3084078,201.122865 81.5442201,203.462073 82.0615299,205.734632 C82.6301994,208.389385 82.9957845,214.101578 78.5886564,221.566218 C75.6376197,226.494555 72.9417653,231.602647 70.5139856,236.866065 L70.4823906,236.935671 L81.5741067,238.462907 L83.9325692,218.210828 C85.0760128,208.392137 87.5256256,198.812396 91.2026024,189.779787 L91.2793543,189.59124 C91.2793543,189.59124 96.1319781,199.518294 105.837226,199.518294 L102.37107,195.7002 C102.37107,195.7002 117.622176,202.572775 123.168034,202.572775 C123.168034,202.572775 127.327424,205.627229 123.168034,210.20898 C119.008644,214.79073 110.68985,225.481372 115.542481,233.881217 C120.395113,242.281061 116.235708,244.571893 116.235708,244.571893 L123.86126,239.990177 L127.327424,237.699319 L127.327424,240.753774 L145.351458,238.462907 C145.351458,238.462907 150.204082,237.699293 139.8056,224.71775 C139.8056,224.71775 137.059709,219.676593 138.261063,215.328666 C139.24821,212.024307 139.507619,208.508684 139.017872,205.072095 C136.688349,190.75671 127.548557,162.295947 91.9725885,180.427799 Z" id="Path" fill="#2F2E41"></path>
            <path d="M193.560592,347.571893 C193.560592,347.571893 213.951617,367.559763 211.232813,373.955884 C208.514009,380.352004 190.841789,366.760246 189.482391,350.769954 L193.560592,347.571893 Z" id="Path" fill="#A0616A"></path>
            <path d="M140.682415,252.571893 C140.682415,252.571893 150.326854,252.571893 154.460182,265.780527 C158.593511,278.98916 182.704615,324.053918 182.704615,324.053918 L196.482391,348.140276 L186.837921,360.571893 L159.971292,326.384843 L134.482391,278.989151 L140.682415,252.571893 Z" id="Path" fill="#303D4D"></path>
        </g>
        <path d="M712.828113,328.407918 L712.828113,384.724222 L249.421109,384.976887 L249,272.400428 C253.894222,286.82107 265.97537,289.41323 287.246051,263.978249 C339.229611,201.897432 409.891693,185.558405 464.589066,183.845895 C502.020973,182.66679 539.368658,190.396479 575.013191,205.752918 C589.81751,212.144416 648.32358,219.022529 686.934591,222.091946 C701.465514,223.237514 712.682905,235.346597 712.715817,249.922568 L712.828113,328.407918 Z" id="Path" fill="#F4F3FF" fill-rule="nonzero" opacity="0.2"></path>
        <path d="M712.828113,273.336226 L712.828113,385.257626 L249,385.257626 L249,360.926887 C262.260253,357.586089 311.857529,344.737588 335.636148,309.25214 C364.084397,266.766926 402.751556,255.593502 432.669008,254.423755 C453.172335,253.609611 473.582082,258.878152 493.065389,269.396518 C514.98177,281.225 557.233035,295.495914 589.330895,254.068152 C624.835058,208.260856 679.373346,246.010934 693.204436,259.888813 C698.145447,264.792393 712.828113,273.336226 712.828113,273.336226 Z" id="Path" fill="#E1E0E9" fill-rule="nonzero" opacity="0.2"></path>
        <circle id="Oval" fill="#AFC0A5" fill-rule="nonzero" cx="307.131751" cy="242.146089" r="10.40607"></circle>
        <circle id="Oval" fill="#AFC0A5" fill-rule="nonzero" cx="363.429339" cy="206.660642" r="10.40607"></circle>
        <circle id="Oval" fill="#AFC0A5" fill-rule="nonzero" cx="419.726926" cy="189.526187" r="10.40607"></circle>
        <circle id="Oval" fill="#AFC0A5" fill-rule="nonzero" cx="476.015156" cy="183.40607" r="10.40607"></circle>
        <circle id="Oval" fill="#AFC0A5" fill-rule="nonzero" cx="532.312743" cy="189.526187" r="10.40607"></circle>
        <circle id="Oval" fill="#AFC0A5" fill-rule="nonzero" cx="588.610331" cy="212.771401" r="10.40607"></circle>
        <circle id="Oval" fill="#AFC0A5" fill-rule="nonzero" cx="644.907918" cy="225.011634" r="10.40607"></circle>
        <path d="M282.4375,136.050781 C285.604818,136.050781 288.555664,135.532389 291.290039,134.495605 C294.024414,133.458822 296.530924,132.040365 298.80957,130.240234 C301.088216,128.440104 303.110514,126.332357 304.876465,123.916992 C306.642415,121.501628 308.129232,118.915365 309.336914,116.158203 C310.544596,113.401042 311.467448,110.547038 312.105469,107.596191 C312.74349,104.645345 313.0625,101.734375 313.0625,98.8632812 C313.0625,96.7669271 312.851725,94.7161458 312.430176,92.7109375 C312.008626,90.7057292 311.330729,88.8087565 310.396484,87.0200195 C309.46224,85.2312826 308.243164,83.5792643 306.739258,82.0639648 C305.235352,80.5486654 303.395345,79.2441406 301.219238,78.1503906 C299.043132,77.0566406 296.508138,76.2021484 293.614258,75.5869141 C290.720378,74.9716797 287.416341,74.6640625 283.702148,74.6640625 C281.69694,74.6640625 279.737305,74.8121745 277.823242,75.1083984 C275.90918,75.4046224 274.103353,75.8660482 272.405762,76.4926758 C270.708171,77.1193034 269.147298,77.9168294 267.723145,78.8852539 C266.298991,79.8536784 265.068522,81.027181 264.031738,82.4057617 C262.994954,83.7843424 262.186035,85.3623047 261.60498,87.1396484 C261.023926,88.9169922 260.733398,90.9222005 260.733398,93.1552734 C260.733398,95.4567057 261.234701,96.6074219 262.237305,96.6074219 C262.966471,96.6074219 263.866536,95.9067383 264.9375,94.5053711 C266.008464,93.1040039 267.375651,91.1158854 269.039062,88.5410156 C269.654297,87.515625 270.571452,86.6326497 271.790527,85.8920898 C273.009603,85.1515299 274.422363,84.5419922 276.028809,84.0634766 C277.635254,83.5849609 279.378418,83.2317708 281.258301,83.0039062 C283.138184,82.7760417 285.035156,82.6621094 286.949219,82.6621094 C289.569661,82.6621094 291.973633,83.0437826 294.161133,83.8071289 C296.348633,84.5704753 298.222819,85.6756185 299.783691,87.1225586 C301.344564,88.5694987 302.557943,90.3354492 303.423828,92.4204102 C304.289714,94.5053711 304.722656,96.8694661 304.722656,99.5126953 C304.722656,101.654622 304.460612,103.881999 303.936523,106.194824 C303.412435,108.50765 302.666178,110.780599 301.697754,113.013672 C300.729329,115.246745 299.555827,117.365885 298.177246,119.371094 C296.798665,121.376302 295.24349,123.136556 293.511719,124.651855 C291.779948,126.167155 289.888672,127.374837 287.837891,128.274902 C285.787109,129.174967 283.622396,129.625 281.34375,129.625 C280.591797,129.625 279.993652,129.550944 279.549316,129.402832 C279.10498,129.25472 278.774577,129.009766 278.558105,128.667969 C278.341634,128.326172 278.204915,127.870443 278.147949,127.300781 C278.090983,126.73112 278.0625,126.02474 278.0625,125.181641 C278.0625,124.384115 278.090983,123.563802 278.147949,122.720703 C278.204915,121.877604 278.296061,120.897786 278.421387,119.78125 C278.546712,118.664714 278.717611,117.360189 278.934082,115.867676 C279.150553,114.375163 279.418294,112.580729 279.737305,110.484375 C280.010742,108.593099 280.306966,106.65625 280.625977,104.673828 C280.944987,102.691406 281.34375,100.748861 281.822266,98.8461914 C282.300781,96.9435221 282.893229,95.1263021 283.599609,93.3945312 C284.30599,91.6627604 285.183268,90.0904948 286.231445,88.6777344 C285.114909,86.8092448 283.724935,85.875 282.061523,85.875 C280.739909,85.875 279.270182,86.4332682 277.652344,87.5498047 C275.806641,90.2613932 274.325521,93.3318685 273.208984,96.7612305 C272.092448,100.190592 271.237956,103.796549 270.645508,107.579102 C270.05306,111.361654 269.659993,115.235352 269.466309,119.200195 C269.272624,123.165039 269.175781,127.038737 269.175781,130.821289 C269.175781,131.208659 269.187174,131.527669 269.209961,131.77832 C269.232747,132.028971 269.289714,132.239746 269.380859,132.410645 C269.472005,132.581543 269.603027,132.729655 269.773926,132.85498 C269.944824,132.980306 270.178385,133.088542 270.474609,133.179688 C271.18099,133.544271 272.001302,133.897461 272.935547,134.239258 C273.869792,134.581055 274.861003,134.888672 275.90918,135.162109 C276.957357,135.435547 278.039714,135.652018 279.15625,135.811523 C280.272786,135.971029 281.366536,136.050781 282.4375,136.050781 Z M336.202148,134.170898 C337.455404,134.170898 338.708659,133.863281 339.961914,133.248047 C341.215169,132.632812 342.388672,131.880859 343.482422,130.992188 C344.576172,130.103516 345.561686,129.169271 346.438965,128.189453 C347.316243,127.209635 348.016927,126.355143 348.541016,125.625977 L348.541016,125.625977 L346.900391,118.038086 C345.761068,119.587565 344.633138,120.977539 343.516602,122.208008 C343.038086,122.732096 342.531087,123.239095 341.995605,123.729004 C341.460124,124.218913 340.924642,124.657552 340.38916,125.044922 C339.853678,125.432292 339.323893,125.745605 338.799805,125.984863 C338.275716,126.224121 337.774414,126.34375 337.295898,126.34375 C336.657878,126.34375 336.242025,126.041829 336.04834,125.437988 C335.854655,124.834147 335.757812,123.996745 335.757812,122.925781 C335.757812,121.672526 335.871745,120.345215 336.099609,118.943848 C336.327474,117.54248 336.578125,116.141113 336.851562,114.739746 C337.125,113.338379 337.375651,111.971191 337.603516,110.638184 C337.83138,109.305176 337.945312,108.091797 337.945312,106.998047 C337.945312,106.291667 337.88265,105.733398 337.757324,105.323242 C337.631999,104.913086 337.455404,104.594076 337.227539,104.366211 C336.999674,104.138346 336.73763,103.990234 336.441406,103.921875 C336.145182,103.853516 335.826172,103.819336 335.484375,103.819336 C335.233724,103.819336 334.977376,103.825033 334.715332,103.836426 L334.326538,103.849243 L334.326538,103.849243 L333.946289,103.853516 C333.650065,103.853516 333.359538,103.836426 333.074707,103.802246 C332.789876,103.768066 332.510742,103.69401 332.237305,103.580078 C331.963867,103.466146 331.736003,103.283854 331.553711,103.033203 C331.371419,102.782552 331.183431,102.526204 330.989746,102.26416 C330.796061,102.002116 330.551107,101.768555 330.254883,101.563477 C329.958659,101.358398 329.548503,101.255859 329.024414,101.255859 C327.452148,101.255859 325.908366,101.59196 324.393066,102.26416 C322.877767,102.936361 321.436523,103.842122 320.069336,104.981445 C318.702148,106.120768 317.443197,107.453776 316.29248,108.980469 C315.141764,110.507161 314.144857,112.130697 313.301758,113.851074 C312.458659,115.571452 311.797852,117.331706 311.319336,119.131836 C310.84082,120.931966 310.601562,122.686523 310.601562,124.395508 C310.601562,125.899414 310.84082,127.249512 311.319336,128.445801 C311.797852,129.64209 312.435872,130.656087 313.233398,131.487793 C314.030924,132.319499 314.948079,132.95752 315.984863,133.401855 C317.021647,133.846191 318.086914,134.068359 319.180664,134.068359 C320.206055,134.068359 321.231445,133.897461 322.256836,133.555664 C323.282227,133.213867 324.267741,132.775228 325.213379,132.239746 C326.159017,131.704264 327.030599,131.10612 327.828125,130.445312 C328.625651,129.784505 329.297852,129.135091 329.844727,128.49707 C330.573893,130.342773 331.439779,131.749837 332.442383,132.718262 C333.444987,133.686686 334.698242,134.170898 336.202148,134.170898 Z M322.017578,127.4375 C321.49349,127.4375 321.060547,127.306478 320.71875,127.044434 C320.376953,126.782389 320.103516,126.440592 319.898438,126.019043 C319.693359,125.597493 319.550944,125.118978 319.471191,124.583496 C319.391439,124.048014 319.351562,123.495443 319.351562,122.925781 C319.351562,121.923177 319.482585,120.852214 319.744629,119.712891 C320.006673,118.573568 320.376953,117.439941 320.855469,116.312012 C321.333984,115.184082 321.903646,114.107422 322.564453,113.082031 C323.22526,112.056641 323.94873,111.145182 324.734863,110.347656 C325.520996,109.55013 326.358398,108.917806 327.24707,108.450684 C328.135742,107.983561 329.047201,107.75 329.981445,107.75 L329.981445,107.75 L327.896484,117.798828 C327.805339,118.527995 327.605957,119.439453 327.29834,120.533203 C326.990723,121.626953 326.586263,122.686523 326.084961,123.711914 C325.583659,124.737305 324.991211,125.614583 324.307617,126.34375 C323.624023,127.072917 322.860677,127.4375 322.017578,127.4375 Z M356.163086,134 C357.006185,134 357.946126,133.840495 358.98291,133.521484 C360.019694,133.202474 361.20459,132.723958 362.537598,132.085938 C363.870605,131.447917 365.391602,130.650391 367.100586,129.693359 C368.80957,128.736328 370.757812,127.619792 372.945312,126.34375 L372.945312,126.34375 L372.945312,117.59375 C372.261719,118.345703 371.498372,119.080566 370.655273,119.79834 C369.812174,120.516113 368.929199,121.199707 368.006348,121.849121 C367.083496,122.498535 366.149251,123.09668 365.203613,123.643555 C364.257975,124.19043 363.35791,124.663249 362.503418,125.062012 C361.648926,125.460775 360.862793,125.774089 360.14502,126.001953 C359.427246,126.229818 358.829102,126.34375 358.350586,126.34375 C357.575846,126.34375 356.875163,126.224121 356.248535,125.984863 C355.621908,125.745605 355.092122,125.358236 354.65918,124.822754 C354.226237,124.287272 353.895833,123.597982 353.667969,122.754883 C353.440104,121.911784 353.326172,120.875 353.326172,119.644531 C353.326172,119.166016 353.331868,118.641927 353.343262,118.072266 C353.354655,117.502604 353.371745,116.910156 353.394531,116.294922 C353.417318,115.679688 353.440104,115.058757 353.462891,114.432129 C353.485677,113.805501 353.508464,113.195964 353.53125,112.603516 C353.599609,111.236328 353.679362,109.846354 353.770508,108.433594 C354.340169,107.727214 354.9611,106.935384 355.633301,106.058105 C356.305501,105.180827 356.972005,104.286458 357.632812,103.375 L357.632812,103.375 L370.757812,103.375 C371.304688,103.375 371.80599,103.124349 372.261719,102.623047 C372.717448,102.121745 372.945312,101.472331 372.945312,100.674805 C372.945312,100.013997 372.842773,99.4671224 372.637695,99.0341797 C372.432617,98.601237 372.102214,98.3733724 371.646484,98.3505859 C371.259115,98.3277995 370.769206,98.305013 370.176758,98.2822266 C369.58431,98.2594401 368.946289,98.2366536 368.262695,98.2138672 C367.579102,98.1910807 366.872721,98.1625977 366.143555,98.128418 C365.414388,98.0942383 364.736491,98.0657552 364.109863,98.0429688 C363.483236,98.0201823 362.930664,98.0030924 362.452148,97.9916992 C361.973633,97.980306 361.631836,97.9632161 361.426758,97.9404297 C362.24707,96.6416016 363.027507,95.3313802 363.768066,94.0097656 C364.508626,92.688151 365.152344,91.3836263 365.699219,90.0961914 C366.246094,88.8087565 366.679036,87.5441081 366.998047,86.3022461 C367.317057,85.0603841 367.476562,83.8811849 367.476562,82.7646484 C367.476562,81.4430339 367.322754,80.1726888 367.015137,78.9536133 C366.70752,77.7345378 366.26888,76.6692708 365.699219,75.7578125 C365.129557,74.8463542 364.440267,74.1171875 363.631348,73.5703125 C362.822428,73.0234375 361.92806,72.75 360.948242,72.75 C359.421549,72.75 357.963216,73.4278971 356.573242,74.7836914 C355.183268,76.1394857 353.90153,77.9396159 352.728027,80.184082 C351.554525,82.4285482 350.494954,84.9920247 349.549316,87.8745117 C348.603678,90.7569987 347.823242,93.7363281 347.208008,96.8125 C346.980143,96.8580729 346.56429,96.8751628 345.960449,96.8637695 C345.356608,96.8523763 344.673014,96.8352865 343.909668,96.8125 C343.146322,96.7897135 342.348796,96.7840169 341.51709,96.7954102 C340.685384,96.8068034 339.922038,96.8694661 339.227051,96.9833984 C338.532064,97.0973307 337.962402,97.2739258 337.518066,97.5131836 C337.07373,97.7524414 336.851562,98.0999349 336.851562,98.5556641 C336.851562,98.7607422 336.862956,99.0056966 336.885742,99.2905273 C336.908529,99.5753581 336.988281,99.8487956 337.125,100.11084 C337.261719,100.372884 337.47819,100.600749 337.774414,100.794434 C338.070638,100.988118 338.492188,101.119141 339.039062,101.1875 C340.269531,101.324219 341.209473,101.438151 341.858887,101.529297 C342.508301,101.620443 343.043783,101.705892 343.465332,101.785645 C343.886882,101.865397 344.285645,101.94515 344.661621,102.024902 C345.037598,102.104655 345.567383,102.190104 346.250977,102.28125 C346.045898,103.807943 345.886393,105.346029 345.772461,106.895508 C345.658529,108.444987 345.601562,109.90332 345.601562,111.270508 C345.601562,114.779622 345.82373,117.935547 346.268066,120.738281 C346.712402,123.541016 347.378906,125.927897 348.267578,127.898926 C349.15625,129.869954 350.261393,131.379557 351.583008,132.427734 C352.904622,133.475911 354.431315,134 356.163086,134 Z M355.821289,97.3251953 C355.456706,97.2796224 355.103516,97.2397461 354.761719,97.2055664 C354.419922,97.1713867 354.078125,97.1315104 353.736328,97.0859375 C354.146484,95.2402344 354.596517,93.3375651 355.086426,91.3779297 C355.576335,89.4182943 356.100423,87.6238607 356.658691,85.9946289 C357.21696,84.3653971 357.798014,83.0266927 358.401855,81.9785156 C359.005697,80.9303385 359.603841,80.40625 360.196289,80.40625 C360.629232,80.40625 360.965332,80.4973958 361.20459,80.6796875 C361.443848,80.8619792 361.620443,81.0898438 361.734375,81.3632812 C361.848307,81.6367188 361.922363,81.9272461 361.956543,82.2348633 C361.990723,82.5424805 362.007812,82.8216146 362.007812,83.0722656 C362.007812,83.8014323 361.814128,84.7356771 361.426758,85.875 C361.039388,87.0143229 360.549479,88.2390951 359.957031,89.5493164 C359.364583,90.8595378 358.698079,92.1925456 357.95752,93.5483398 C357.21696,94.9041341 356.504883,96.1630859 355.821289,97.3251953 Z M383.438477,134 C384.805664,134 386.155762,133.846191 387.48877,133.538574 C388.821777,133.230957 390.109212,132.820801 391.351074,132.308105 C392.592936,131.79541 393.777832,131.208659 394.905762,130.547852 C396.033691,129.887044 397.087565,129.214844 398.067383,128.53125 C400.323242,126.936198 402.453776,125.101888 404.458984,123.02832 L404.458984,123.02832 L400.049805,118.448242 C399.161133,119.314128 398.078776,120.231283 396.802734,121.199707 C395.526693,122.168132 394.170898,123.0625 392.735352,123.882812 C391.299805,124.703125 389.824382,125.386719 388.309082,125.933594 C386.793783,126.480469 385.352539,126.753906 383.985352,126.753906 C383.552409,126.753906 383.147949,126.708333 382.771973,126.617188 C382.395996,126.526042 382.037109,126.366536 381.695312,126.138672 C381.353516,125.910807 381.017415,125.591797 380.687012,125.181641 C380.356608,124.771484 380.020508,124.258789 379.678711,123.643555 C381.661133,123.09668 383.501139,122.333333 385.19873,121.353516 C386.896322,120.373698 388.360352,119.257161 389.59082,118.003906 C390.821289,116.750651 391.784017,115.417643 392.479004,114.004883 C393.173991,112.592122 393.521484,111.179362 393.521484,109.766602 C393.521484,108.467773 393.29362,107.294271 392.837891,106.246094 C392.382161,105.197917 391.749837,104.303548 390.940918,103.562988 C390.131999,102.822428 389.180664,102.24707 388.086914,101.836914 C386.993164,101.426758 385.808268,101.22168 384.532227,101.22168 C382.959961,101.22168 381.530111,101.500814 380.242676,102.059082 C378.955241,102.61735 377.793132,103.369303 376.756348,104.314941 C375.719564,105.260579 374.813802,106.354329 374.039062,107.596191 C373.264323,108.838053 372.620605,110.142578 372.10791,111.509766 C371.595215,112.876953 371.213542,114.272624 370.962891,115.696777 C370.71224,117.120931 370.586914,118.471029 370.586914,119.74707 C370.586914,121.638346 370.854655,123.444173 371.390137,125.164551 C371.925618,126.884928 372.728841,128.400228 373.799805,129.710449 C374.870768,131.020671 376.209473,132.063151 377.815918,132.837891 C379.422363,133.61263 381.296549,134 383.438477,134 Z M378.892578,117.935547 C378.892578,117.434245 378.915365,116.830404 378.960938,116.124023 C379.00651,115.417643 379.103353,114.688477 379.251465,113.936523 C379.399577,113.18457 379.616048,112.438314 379.900879,111.697754 C380.18571,110.957194 380.561686,110.296387 381.028809,109.715332 C381.495931,109.134277 382.076986,108.661458 382.771973,108.296875 C383.46696,107.932292 384.304362,107.75 385.28418,107.75 C385.831055,107.75 386.29248,108.080404 386.668457,108.741211 C387.044434,109.402018 387.232422,110.245117 387.232422,111.270508 C387.232422,111.999674 386.947591,112.751628 386.37793,113.526367 C385.808268,114.301107 385.107585,115.01888 384.275879,115.679688 C383.444173,116.340495 382.544108,116.881673 381.575684,117.303223 C380.607259,117.724772 379.712891,117.935547 378.892578,117.935547 Z M423.086914,134.03418 C423.588216,134.03418 424.112305,133.98291 424.65918,133.880371 C425.206055,133.777832 425.71875,133.601237 426.197266,133.350586 C426.675781,133.099935 427.085938,132.758138 427.427734,132.325195 C427.769531,131.892253 427.986003,131.333984 428.077148,130.650391 C428.373372,128.462891 428.817708,126.121582 429.410156,123.626465 C430.002604,121.131348 430.686198,118.579264 431.460938,115.970215 C432.235677,113.361165 433.084473,110.752116 434.007324,108.143066 C434.930176,105.534017 435.887207,103.033203 436.878418,100.640625 C437.869629,98.2480469 438.866536,96.0206706 439.869141,93.9584961 C440.871745,91.8963216 441.845866,90.101888 442.791504,88.5751953 C443.737142,87.0485026 444.620117,85.8522135 445.44043,84.9863281 C446.260742,84.1204427 446.989909,83.6875 447.62793,83.6875 C448.402669,83.6875 449.0236,83.8925781 449.490723,84.3027344 C449.957845,84.7128906 450.316732,85.3053385 450.567383,86.0800781 C450.818034,86.8548177 450.977539,87.8004557 451.045898,88.9169922 C451.114258,90.0335286 451.148438,91.2981771 451.148438,92.7109375 C451.148438,94.7617188 451.011719,97.0061849 450.738281,99.4443359 C450.464844,101.882487 450.11735,104.349121 449.695801,106.844238 C449.274251,109.339355 448.818522,111.7889 448.328613,114.192871 C447.838704,116.596842 447.382975,118.807129 446.961426,120.82373 C446.539876,122.840332 446.192383,124.572103 445.918945,126.019043 C445.645508,127.465983 445.508789,128.485677 445.508789,129.078125 C445.508789,129.966797 445.617025,130.71875 445.833496,131.333984 C446.049967,131.949219 446.334798,132.456217 446.687988,132.85498 C447.041178,133.253743 447.451335,133.544271 447.918457,133.726562 C448.385579,133.908854 448.858398,134 449.336914,134 C449.883789,134 450.430664,133.937337 450.977539,133.812012 C451.524414,133.686686 452.042806,133.487305 452.532715,133.213867 C453.022624,132.94043 453.455566,132.581543 453.831543,132.137207 C454.20752,131.692871 454.486654,131.151693 454.668945,130.513672 C455.079102,128.235026 455.523438,125.819661 456.001953,123.267578 C456.480469,120.715495 456.993164,118.129232 457.540039,115.508789 C458.086914,112.888346 458.679362,110.284993 459.317383,107.69873 C459.955404,105.112467 460.644694,102.640137 461.385254,100.281738 C462.125814,97.9233398 462.911947,95.7301432 463.743652,93.7021484 C464.575358,91.6741536 465.469727,89.9195964 466.426758,88.4384766 C467.383789,86.9573568 468.397786,85.7952474 469.46875,84.9521484 C470.539714,84.1090495 471.679036,83.6875 472.886719,83.6875 C473.52474,83.6875 474.037435,83.8470052 474.424805,84.1660156 C474.812174,84.485026 475.108398,84.9350586 475.313477,85.5161133 C475.518555,86.097168 475.655273,86.8035482 475.723633,87.6352539 C475.791992,88.4669596 475.826172,89.3955078 475.826172,90.4208984 C475.826172,92.1070964 475.71224,93.8673503 475.484375,95.7016602 C475.25651,97.5359701 474.97168,99.3930664 474.629883,101.272949 C474.288086,103.152832 473.912109,105.038411 473.501953,106.929688 C473.091797,108.820964 472.69873,110.67806 472.322754,112.500977 C471.946777,114.323893 471.610677,116.09554 471.314453,117.815918 C471.018229,119.536296 470.824544,121.159831 470.733398,122.686523 C470.710612,122.891602 470.693522,123.09668 470.682129,123.301758 C470.670736,123.506836 470.665039,123.700521 470.665039,123.882812 C470.665039,125.523438 470.938477,126.976074 471.485352,128.240723 C472.032227,129.505371 472.761393,130.564941 473.672852,131.419434 C474.58431,132.273926 475.62679,132.917643 476.800293,133.350586 C477.973796,133.783529 479.175781,134 480.40625,134 C481.682292,134 482.96403,133.806315 484.251465,133.418945 C485.5389,133.031576 486.809245,132.399251 488.0625,131.521973 C489.315755,130.644694 490.546224,129.511068 491.753906,128.121094 C492.961589,126.73112 494.135091,125.033529 495.274414,123.02832 C494.613607,121.273763 494.100911,119.929362 493.736328,118.995117 C493.371745,118.060872 493.109701,117.400065 492.950195,117.012695 C492.745117,116.556966 492.642578,116.317708 492.642578,116.294922 C491.457682,118.186198 490.261393,119.861003 489.053711,121.319336 C488.529622,121.957357 487.982747,122.578288 487.413086,123.182129 C486.843424,123.78597 486.268066,124.321452 485.687012,124.788574 C485.105957,125.255697 484.524902,125.631673 483.943848,125.916504 C483.362793,126.201335 482.810221,126.34375 482.286133,126.34375 C481.351888,126.34375 480.639811,126.041829 480.149902,125.437988 C479.659993,124.834147 479.415039,123.860026 479.415039,122.515625 C479.415039,121.444661 479.546061,120.174316 479.808105,118.70459 C480.07015,117.234863 480.394857,115.634115 480.782227,113.902344 C481.169596,112.170573 481.585449,110.336263 482.029785,108.399414 C482.474121,106.462565 482.889974,104.48584 483.277344,102.469238 C483.664714,100.452637 483.989421,98.4132487 484.251465,96.3510742 C484.513509,94.2888997 484.644531,92.2779948 484.644531,90.3183594 C484.644531,88.2220052 484.450846,86.2338867 484.063477,84.3540039 C483.676107,82.4741211 483.117839,80.8334961 482.388672,79.4321289 C481.659505,78.0307617 480.753743,76.9199219 479.671387,76.0996094 C478.58903,75.2792969 477.352865,74.8691406 475.962891,74.8691406 C473.957682,74.8691406 472.020833,75.3704427 470.152344,76.3730469 C468.283854,77.375651 466.54069,78.8168945 464.922852,80.6967773 C463.305013,82.5766602 461.84668,84.8610026 460.547852,87.5498047 C459.249023,90.2386068 458.155273,93.2692057 457.266602,96.6416016 L457.266602,96.6416016 L456.548828,96.6757812 C456.753906,95.0807292 456.947591,93.5996094 457.129883,92.2324219 C457.198242,91.6627604 457.272298,91.0874023 457.352051,90.5063477 C457.431803,89.925293 457.500163,89.3841146 457.557129,88.8828125 C457.614095,88.3815104 457.659668,87.9371745 457.693848,87.5498047 C457.728027,87.1624349 457.745117,86.8776042 457.745117,86.6953125 C457.745117,84.6901042 457.568522,82.9583333 457.215332,81.5 C456.862142,80.0416667 456.366536,78.8339844 455.728516,77.8769531 C455.090495,76.9199219 454.327148,76.2135417 453.438477,75.7578125 C452.549805,75.3020833 451.58138,75.0742188 450.533203,75.0742188 C449.120443,75.0742188 447.696289,75.4615885 446.260742,76.2363281 C444.825195,77.0110677 443.406738,78.1048177 442.005371,79.5175781 C440.604004,80.9303385 439.242513,82.6222331 437.920898,84.5932617 C436.599284,86.5642904 435.351725,88.7631836 434.178223,91.1899414 C433.00472,93.6166992 431.922363,96.2257487 430.931152,99.0170898 C429.939941,101.808431 429.079753,104.719401 428.350586,107.75 C428.692383,106.109375 429.045573,104.343424 429.410156,102.452148 C429.77474,100.560872 430.11084,98.675293 430.418457,96.7954102 C430.726074,94.9155273 430.982422,93.1210938 431.1875,91.4121094 C431.392578,89.703125 431.495117,88.210612 431.495117,86.9345703 C431.495117,85.2711589 431.386882,83.7558594 431.17041,82.3886719 C430.953939,81.0214844 430.572266,79.8536784 430.025391,78.8852539 C429.478516,77.9168294 428.737956,77.1648763 427.803711,76.6293945 C426.869466,76.0939128 425.695964,75.8261719 424.283203,75.8261719 C423.189453,75.8261719 422.044434,76.0540365 420.848145,76.5097656 C419.651855,76.9654948 418.478353,77.7345378 417.327637,78.8168945 C416.176921,79.8992513 415.083171,81.3461914 414.046387,83.1577148 C413.009603,84.9692383 412.081055,87.219401 411.260742,89.9082031 C411.169596,89.999349 411.124023,90.1132812 411.124023,90.25 C411.124023,90.500651 411.158203,90.7797852 411.226562,91.0874023 C411.294922,91.3950195 411.380371,91.6855469 411.48291,91.9589844 C411.585449,92.2324219 411.699382,92.4659831 411.824707,92.659668 C411.950033,92.8533529 412.069661,92.9501953 412.183594,92.9501953 C412.548177,92.9501953 412.878581,92.8761393 413.174805,92.7280273 C413.471029,92.5799154 413.6875,92.3349609 413.824219,91.9931641 C414.553385,91.0133464 415.350911,90.0961914 416.216797,89.2416992 C417.082682,88.387207 417.948568,87.6409505 418.814453,87.0029297 C419.680339,86.3649089 420.506348,85.8579102 421.29248,85.4819336 C422.078613,85.105957 422.745117,84.9179688 423.291992,84.9179688 C423.633789,84.9179688 423.890137,85.0205078 424.061035,85.2255859 C424.231934,85.4306641 424.351562,85.6756185 424.419922,85.9604492 C424.488281,86.2452799 424.522461,86.5472005 424.522461,86.8662109 L424.522461,86.8662109 L424.522461,87.6523438 C424.340169,90.0221354 424.169271,92.2438151 424.009766,94.3173828 C423.85026,96.3909505 423.673665,98.4018555 423.47998,100.350098 C423.286296,102.29834 423.064128,104.235189 422.813477,106.160645 C422.562826,108.0861 422.266602,110.074219 421.924805,112.125 C421.583008,114.175781 421.172852,116.346191 420.694336,118.63623 C420.21582,120.92627 419.657552,123.404297 419.019531,126.070312 C418.83724,126.867839 418.700521,127.659668 418.609375,128.445801 C418.518229,129.231934 418.472656,130.092122 418.472656,131.026367 C418.472656,131.504883 418.597982,131.932129 418.848633,132.308105 C419.099284,132.684082 419.441081,133.003092 419.874023,133.265137 C420.306966,133.527181 420.802572,133.720866 421.36084,133.846191 C421.919108,133.971517 422.494466,134.03418 423.086914,134.03418 Z M492.847656,165.71875 C494.807292,165.71875 496.596029,165.38265 498.213867,164.710449 C499.831706,164.038249 501.295736,163.098307 502.605957,161.890625 C503.916178,160.682943 505.089681,159.236003 506.126465,157.549805 C507.163249,155.863607 508.0861,154.012207 508.89502,151.995605 C509.703939,149.979004 510.404622,147.81429 510.99707,145.501465 C511.589518,143.188639 512.102214,140.813151 512.535156,138.375 C514.768229,137.007812 516.85319,135.595052 518.790039,134.136719 C519.610352,133.521484 520.447754,132.866374 521.302246,132.171387 C522.156738,131.4764 522.977051,130.758626 523.763184,130.018066 C524.549316,129.277507 525.26709,128.536947 525.916504,127.796387 C526.565918,127.055827 527.095703,126.332357 527.505859,125.625977 L527.505859,125.625977 L525.865234,118.038086 C524.361328,120.202799 523.005534,122.008626 521.797852,123.455566 C520.590169,124.902507 519.496419,126.104492 518.516602,127.061523 C517.536784,128.018555 516.648112,128.781901 515.850586,129.351562 C515.05306,129.921224 514.3125,130.39974 513.628906,130.787109 C514.221354,126.913411 514.802409,123.290365 515.37207,119.917969 C515.599935,118.482422 515.839193,117.041178 516.089844,115.594238 C516.340495,114.147298 516.585449,112.774414 516.824707,111.475586 C517.063965,110.176758 517.286133,109.014648 517.491211,107.989258 C517.696289,106.963867 517.867188,106.154948 518.003906,105.5625 C518.072266,105.289062 518.106445,105.049805 518.106445,104.844727 C518.106445,104.183919 517.867188,103.699707 517.388672,103.39209 C516.910156,103.084473 516.317708,102.930664 515.611328,102.930664 C515.01888,102.930664 514.392253,103.033203 513.731445,103.238281 C513.070638,103.443359 512.438314,103.750977 511.834473,104.161133 C511.230632,104.571289 510.69515,105.078288 510.228027,105.682129 C509.760905,106.28597 509.436198,106.97526 509.253906,107.75 L509.253906,107.75 L506.861328,117.798828 C506.770182,118.527995 506.570801,119.439453 506.263184,120.533203 C505.955566,121.626953 505.551107,122.686523 505.049805,123.711914 C504.548503,124.737305 503.956055,125.614583 503.272461,126.34375 C502.588867,127.072917 501.825521,127.4375 500.982422,127.4375 C500.458333,127.4375 500.025391,127.306478 499.683594,127.044434 C499.341797,126.782389 499.068359,126.440592 498.863281,126.019043 C498.658203,125.597493 498.515788,125.118978 498.436035,124.583496 C498.356283,124.048014 498.316406,123.495443 498.316406,122.925781 C498.316406,121.832031 498.407552,120.567383 498.589844,119.131836 C498.772135,117.696289 499.01709,116.232259 499.324707,114.739746 C499.632324,113.247233 499.985514,111.7889 500.384277,110.364746 C500.78304,108.940592 501.1875,107.704427 501.597656,106.65625 C501.734375,106.314453 501.831217,105.995443 501.888184,105.699219 C501.94515,105.402995 501.973633,105.129557 501.973633,104.878906 C501.973633,104.035807 501.688802,103.414876 501.119141,103.016113 C500.549479,102.61735 499.865885,102.417969 499.068359,102.417969 C498.134115,102.417969 497.177083,102.68571 496.197266,103.221191 C495.217448,103.756673 494.465495,104.537109 493.941406,105.5625 C493.235026,106.998047 492.608398,108.416504 492.061523,109.817871 C491.514648,111.219238 491.058919,112.671875 490.694336,114.175781 C490.329753,115.679688 490.050618,117.263346 489.856934,118.926758 C489.663249,120.590169 489.566406,122.413086 489.566406,124.395508 C489.566406,125.899414 489.805664,127.249512 490.28418,128.445801 C490.762695,129.64209 491.400716,130.656087 492.198242,131.487793 C492.995768,132.319499 493.912923,132.95752 494.949707,133.401855 C495.986491,133.846191 497.051758,134.068359 498.145508,134.068359 C499.398763,134.068359 500.691895,133.732259 502.024902,133.060059 C503.35791,132.387858 504.639648,131.504883 505.870117,130.411133 L505.870117,130.411133 L504.947266,133.589844 C503.306641,134.934245 501.683105,136.347005 500.07666,137.828125 C498.470215,139.309245 496.932129,140.813151 495.462402,142.339844 C493.992676,143.866536 492.631185,145.398926 491.37793,146.937012 C490.124674,148.475098 489.042318,149.956217 488.130859,151.380371 C487.219401,152.804525 486.501628,154.160319 485.977539,155.447754 C485.453451,156.735189 485.191406,157.891602 485.191406,158.916992 C485.191406,160.398112 485.442057,161.583008 485.943359,162.47168 C486.444661,163.360352 487.076986,164.043945 487.840332,164.522461 C488.603678,165.000977 489.435384,165.319987 490.335449,165.479492 C491.235514,165.638997 492.072917,165.71875 492.847656,165.71875 Z M493.257812,159.15625 C492.346354,159.15625 491.890625,158.734701 491.890625,157.891602 C491.890625,157.367513 492.061523,156.706706 492.40332,155.90918 C492.745117,155.111654 493.21224,154.251465 493.804688,153.328613 C494.397135,152.405762 495.086426,151.443034 495.872559,150.44043 C496.658691,149.437826 497.490397,148.463704 498.367676,147.518066 C499.244954,146.572428 500.14502,145.689453 501.067871,144.869141 C501.990723,144.048828 502.896484,143.342448 503.785156,142.75 C503.602865,143.661458 503.352214,144.698242 503.033203,145.860352 C502.714193,147.022461 502.326823,148.213053 501.871094,149.432129 C501.415365,150.651204 500.891276,151.841797 500.298828,153.003906 C499.70638,154.166016 499.05127,155.202799 498.333496,156.114258 C497.615723,157.025716 496.82959,157.760579 495.975098,158.318848 C495.120605,158.877116 494.214844,159.15625 493.257812,159.15625 Z M547.774414,134.03418 C548.275716,134.03418 548.799805,133.98291 549.34668,133.880371 C549.893555,133.777832 550.40625,133.601237 550.884766,133.350586 C551.363281,133.099935 551.773438,132.758138 552.115234,132.325195 C552.457031,131.892253 552.673503,131.333984 552.764648,130.650391 C553.060872,128.462891 553.505208,126.121582 554.097656,123.626465 C554.690104,121.131348 555.373698,118.579264 556.148438,115.970215 C556.923177,113.361165 557.771973,110.752116 558.694824,108.143066 C559.617676,105.534017 560.574707,103.033203 561.565918,100.640625 C562.557129,98.2480469 563.554036,96.0206706 564.556641,93.9584961 C565.559245,91.8963216 566.533366,90.101888 567.479004,88.5751953 C568.424642,87.0485026 569.307617,85.8522135 570.12793,84.9863281 C570.948242,84.1204427 571.677409,83.6875 572.31543,83.6875 C573.090169,83.6875 573.7111,83.8925781 574.178223,84.3027344 C574.645345,84.7128906 575.004232,85.3053385 575.254883,86.0800781 C575.505534,86.8548177 575.665039,87.8004557 575.733398,88.9169922 C575.801758,90.0335286 575.835938,91.2981771 575.835938,92.7109375 C575.835938,94.7617188 575.699219,97.0061849 575.425781,99.4443359 C575.152344,101.882487 574.80485,104.349121 574.383301,106.844238 C573.961751,109.339355 573.506022,111.7889 573.016113,114.192871 C572.526204,116.596842 572.070475,118.807129 571.648926,120.82373 C571.227376,122.840332 570.879883,124.572103 570.606445,126.019043 C570.333008,127.465983 570.196289,128.485677 570.196289,129.078125 C570.196289,129.966797 570.304525,130.71875 570.520996,131.333984 C570.737467,131.949219 571.022298,132.456217 571.375488,132.85498 C571.728678,133.253743 572.138835,133.544271 572.605957,133.726562 C573.073079,133.908854 573.545898,134 574.024414,134 C574.571289,134 575.118164,133.937337 575.665039,133.812012 C576.211914,133.686686 576.730306,133.487305 577.220215,133.213867 C577.710124,132.94043 578.143066,132.581543 578.519043,132.137207 C578.89502,131.692871 579.174154,131.151693 579.356445,130.513672 C579.766602,128.235026 580.210938,125.819661 580.689453,123.267578 C581.167969,120.715495 581.680664,118.129232 582.227539,115.508789 C582.774414,112.888346 583.366862,110.284993 584.004883,107.69873 C584.642904,105.112467 585.332194,102.640137 586.072754,100.281738 C586.813314,97.9233398 587.599447,95.7301432 588.431152,93.7021484 C589.262858,91.6741536 590.157227,89.9195964 591.114258,88.4384766 C592.071289,86.9573568 593.085286,85.7952474 594.15625,84.9521484 C595.227214,84.1090495 596.366536,83.6875 597.574219,83.6875 C598.21224,83.6875 598.724935,83.8470052 599.112305,84.1660156 C599.499674,84.485026 599.795898,84.9350586 600.000977,85.5161133 C600.206055,86.097168 600.342773,86.8035482 600.411133,87.6352539 C600.479492,88.4669596 600.513672,89.3955078 600.513672,90.4208984 C600.513672,92.1070964 600.39974,93.8673503 600.171875,95.7016602 C599.94401,97.5359701 599.65918,99.3930664 599.317383,101.272949 C598.975586,103.152832 598.599609,105.038411 598.189453,106.929688 C597.779297,108.820964 597.38623,110.67806 597.010254,112.500977 C596.634277,114.323893 596.298177,116.09554 596.001953,117.815918 C595.705729,119.536296 595.512044,121.159831 595.420898,122.686523 C595.398112,122.891602 595.381022,123.09668 595.369629,123.301758 C595.358236,123.506836 595.352539,123.700521 595.352539,123.882812 C595.352539,125.523438 595.625977,126.976074 596.172852,128.240723 C596.719727,129.505371 597.448893,130.564941 598.360352,131.419434 C599.27181,132.273926 600.31429,132.917643 601.487793,133.350586 C602.661296,133.783529 603.863281,134 605.09375,134 C606.369792,134 607.65153,133.806315 608.938965,133.418945 C610.2264,133.031576 611.496745,132.399251 612.75,131.521973 C614.003255,130.644694 615.233724,129.511068 616.441406,128.121094 C617.649089,126.73112 618.822591,125.033529 619.961914,123.02832 C619.301107,121.273763 618.788411,119.929362 618.423828,118.995117 C618.059245,118.060872 617.797201,117.400065 617.637695,117.012695 C617.432617,116.556966 617.330078,116.317708 617.330078,116.294922 C616.145182,118.186198 614.948893,119.861003 613.741211,121.319336 C613.217122,121.957357 612.670247,122.578288 612.100586,123.182129 C611.530924,123.78597 610.955566,124.321452 610.374512,124.788574 C609.793457,125.255697 609.212402,125.631673 608.631348,125.916504 C608.050293,126.201335 607.497721,126.34375 606.973633,126.34375 C606.039388,126.34375 605.327311,126.041829 604.837402,125.437988 C604.347493,124.834147 604.102539,123.860026 604.102539,122.515625 C604.102539,121.444661 604.233561,120.174316 604.495605,118.70459 C604.75765,117.234863 605.082357,115.634115 605.469727,113.902344 C605.857096,112.170573 606.272949,110.336263 606.717285,108.399414 C607.161621,106.462565 607.577474,104.48584 607.964844,102.469238 C608.352214,100.452637 608.676921,98.4132487 608.938965,96.3510742 C609.201009,94.2888997 609.332031,92.2779948 609.332031,90.3183594 C609.332031,88.2220052 609.138346,86.2338867 608.750977,84.3540039 C608.363607,82.4741211 607.805339,80.8334961 607.076172,79.4321289 C606.347005,78.0307617 605.441243,76.9199219 604.358887,76.0996094 C603.27653,75.2792969 602.040365,74.8691406 600.650391,74.8691406 C598.645182,74.8691406 596.708333,75.3704427 594.839844,76.3730469 C592.971354,77.375651 591.22819,78.8168945 589.610352,80.6967773 C587.992513,82.5766602 586.53418,84.8610026 585.235352,87.5498047 C583.936523,90.2386068 582.842773,93.2692057 581.954102,96.6416016 L581.954102,96.6416016 L581.236328,96.6757812 C581.441406,95.0807292 581.635091,93.5996094 581.817383,92.2324219 C581.885742,91.6627604 581.959798,91.0874023 582.039551,90.5063477 C582.119303,89.925293 582.187663,89.3841146 582.244629,88.8828125 C582.301595,88.3815104 582.347168,87.9371745 582.381348,87.5498047 C582.415527,87.1624349 582.432617,86.8776042 582.432617,86.6953125 C582.432617,84.6901042 582.256022,82.9583333 581.902832,81.5 C581.549642,80.0416667 581.054036,78.8339844 580.416016,77.8769531 C579.777995,76.9199219 579.014648,76.2135417 578.125977,75.7578125 C577.237305,75.3020833 576.26888,75.0742188 575.220703,75.0742188 C573.807943,75.0742188 572.383789,75.4615885 570.948242,76.2363281 C569.512695,77.0110677 568.094238,78.1048177 566.692871,79.5175781 C565.291504,80.9303385 563.930013,82.6222331 562.608398,84.5932617 C561.286784,86.5642904 560.039225,88.7631836 558.865723,91.1899414 C557.69222,93.6166992 556.609863,96.2257487 555.618652,99.0170898 C554.627441,101.808431 553.767253,104.719401 553.038086,107.75 C553.379883,106.109375 553.733073,104.343424 554.097656,102.452148 C554.46224,100.560872 554.79834,98.675293 555.105957,96.7954102 C555.413574,94.9155273 555.669922,93.1210938 555.875,91.4121094 C556.080078,89.703125 556.182617,88.210612 556.182617,86.9345703 C556.182617,85.2711589 556.074382,83.7558594 555.85791,82.3886719 C555.641439,81.0214844 555.259766,79.8536784 554.712891,78.8852539 C554.166016,77.9168294 553.425456,77.1648763 552.491211,76.6293945 C551.556966,76.0939128 550.383464,75.8261719 548.970703,75.8261719 C547.876953,75.8261719 546.731934,76.0540365 545.535645,76.5097656 C544.339355,76.9654948 543.165853,77.7345378 542.015137,78.8168945 C540.864421,79.8992513 539.770671,81.3461914 538.733887,83.1577148 C537.697103,84.9692383 536.768555,87.219401 535.948242,89.9082031 C535.857096,89.999349 535.811523,90.1132812 535.811523,90.25 C535.811523,90.500651 535.845703,90.7797852 535.914062,91.0874023 C535.982422,91.3950195 536.067871,91.6855469 536.17041,91.9589844 C536.272949,92.2324219 536.386882,92.4659831 536.512207,92.659668 C536.637533,92.8533529 536.757161,92.9501953 536.871094,92.9501953 C537.235677,92.9501953 537.566081,92.8761393 537.862305,92.7280273 C538.158529,92.5799154 538.375,92.3349609 538.511719,91.9931641 C539.240885,91.0133464 540.038411,90.0961914 540.904297,89.2416992 C541.770182,88.387207 542.636068,87.6409505 543.501953,87.0029297 C544.367839,86.3649089 545.193848,85.8579102 545.97998,85.4819336 C546.766113,85.105957 547.432617,84.9179688 547.979492,84.9179688 C548.321289,84.9179688 548.577637,85.0205078 548.748535,85.2255859 C548.919434,85.4306641 549.039062,85.6756185 549.107422,85.9604492 C549.175781,86.2452799 549.209961,86.5472005 549.209961,86.8662109 L549.209961,86.8662109 L549.209961,87.6523438 C549.027669,90.0221354 548.856771,92.2438151 548.697266,94.3173828 C548.53776,96.3909505 548.361165,98.4018555 548.16748,100.350098 C547.973796,102.29834 547.751628,104.235189 547.500977,106.160645 C547.250326,108.0861 546.954102,110.074219 546.612305,112.125 C546.270508,114.175781 545.860352,116.346191 545.381836,118.63623 C544.90332,120.92627 544.345052,123.404297 543.707031,126.070312 C543.52474,126.867839 543.388021,127.659668 543.296875,128.445801 C543.205729,129.231934 543.160156,130.092122 543.160156,131.026367 C543.160156,131.504883 543.285482,131.932129 543.536133,132.308105 C543.786784,132.684082 544.128581,133.003092 544.561523,133.265137 C544.994466,133.527181 545.490072,133.720866 546.04834,133.846191 C546.606608,133.971517 547.181966,134.03418 547.774414,134.03418 Z M639.854492,134.170898 C641.107747,134.170898 642.361003,133.863281 643.614258,133.248047 C644.867513,132.632812 646.041016,131.880859 647.134766,130.992188 C648.228516,130.103516 649.21403,129.169271 650.091309,128.189453 C650.968587,127.209635 651.669271,126.355143 652.193359,125.625977 L652.193359,125.625977 L650.552734,118.038086 C649.413411,119.587565 648.285482,120.977539 647.168945,122.208008 C646.69043,122.732096 646.183431,123.239095 645.647949,123.729004 C645.112467,124.218913 644.576986,124.657552 644.041504,125.044922 C643.506022,125.432292 642.976237,125.745605 642.452148,125.984863 C641.92806,126.224121 641.426758,126.34375 640.948242,126.34375 C640.310221,126.34375 639.894368,126.041829 639.700684,125.437988 C639.506999,124.834147 639.410156,123.996745 639.410156,122.925781 C639.410156,121.672526 639.524089,120.345215 639.751953,118.943848 C639.979818,117.54248 640.230469,116.141113 640.503906,114.739746 C640.777344,113.338379 641.027995,111.971191 641.255859,110.638184 C641.483724,109.305176 641.597656,108.091797 641.597656,106.998047 C641.597656,106.291667 641.534993,105.733398 641.409668,105.323242 C641.284342,104.913086 641.107747,104.594076 640.879883,104.366211 C640.652018,104.138346 640.389974,103.990234 640.09375,103.921875 C639.797526,103.853516 639.478516,103.819336 639.136719,103.819336 C638.886068,103.819336 638.62972,103.825033 638.367676,103.836426 L637.978882,103.849243 L637.978882,103.849243 L637.598633,103.853516 C637.302409,103.853516 637.011882,103.836426 636.727051,103.802246 C636.44222,103.768066 636.163086,103.69401 635.889648,103.580078 C635.616211,103.466146 635.388346,103.283854 635.206055,103.033203 C635.023763,102.782552 634.835775,102.526204 634.64209,102.26416 C634.448405,102.002116 634.203451,101.768555 633.907227,101.563477 C633.611003,101.358398 633.200846,101.255859 632.676758,101.255859 C631.104492,101.255859 629.56071,101.59196 628.04541,102.26416 C626.530111,102.936361 625.088867,103.842122 623.72168,104.981445 C622.354492,106.120768 621.09554,107.453776 619.944824,108.980469 C618.794108,110.507161 617.797201,112.130697 616.954102,113.851074 C616.111003,115.571452 615.450195,117.331706 614.97168,119.131836 C614.493164,120.931966 614.253906,122.686523 614.253906,124.395508 C614.253906,125.899414 614.493164,127.249512 614.97168,128.445801 C615.450195,129.64209 616.088216,130.656087 616.885742,131.487793 C617.683268,132.319499 618.600423,132.95752 619.637207,133.401855 C620.673991,133.846191 621.739258,134.068359 622.833008,134.068359 C623.858398,134.068359 624.883789,133.897461 625.90918,133.555664 C626.93457,133.213867 627.920085,132.775228 628.865723,132.239746 C629.811361,131.704264 630.682943,131.10612 631.480469,130.445312 C632.277995,129.784505 632.950195,129.135091 633.49707,128.49707 C634.226237,130.342773 635.092122,131.749837 636.094727,132.718262 C637.097331,133.686686 638.350586,134.170898 639.854492,134.170898 Z M625.669922,127.4375 C625.145833,127.4375 624.712891,127.306478 624.371094,127.044434 C624.029297,126.782389 623.755859,126.440592 623.550781,126.019043 C623.345703,125.597493 623.203288,125.118978 623.123535,124.583496 C623.043783,124.048014 623.003906,123.495443 623.003906,122.925781 C623.003906,121.923177 623.134928,120.852214 623.396973,119.712891 C623.659017,118.573568 624.029297,117.439941 624.507812,116.312012 C624.986328,115.184082 625.55599,114.107422 626.216797,113.082031 C626.877604,112.056641 627.601074,111.145182 628.387207,110.347656 C629.17334,109.55013 630.010742,108.917806 630.899414,108.450684 C631.788086,107.983561 632.699544,107.75 633.633789,107.75 L633.633789,107.75 L631.548828,117.798828 C631.457682,118.527995 631.258301,119.439453 630.950684,120.533203 C630.643066,121.626953 630.238607,122.686523 629.737305,123.711914 C629.236003,124.737305 628.643555,125.614583 627.959961,126.34375 C627.276367,127.072917 626.513021,127.4375 625.669922,127.4375 Z M659.81543,134 C660.658529,134 661.59847,133.840495 662.635254,133.521484 C663.672038,133.202474 664.856934,132.723958 666.189941,132.085938 C667.522949,131.447917 669.043945,130.650391 670.75293,129.693359 C672.461914,128.736328 674.410156,127.619792 676.597656,126.34375 L676.597656,126.34375 L676.597656,117.59375 C675.914062,118.345703 675.150716,119.080566 674.307617,119.79834 C673.464518,120.516113 672.581543,121.199707 671.658691,121.849121 C670.73584,122.498535 669.801595,123.09668 668.855957,123.643555 C667.910319,124.19043 667.010254,124.663249 666.155762,125.062012 C665.30127,125.460775 664.515137,125.774089 663.797363,126.001953 C663.07959,126.229818 662.481445,126.34375 662.00293,126.34375 C661.22819,126.34375 660.527507,126.224121 659.900879,125.984863 C659.274251,125.745605 658.744466,125.358236 658.311523,124.822754 C657.878581,124.287272 657.548177,123.597982 657.320312,122.754883 C657.092448,121.911784 656.978516,120.875 656.978516,119.644531 C656.978516,119.166016 656.984212,118.641927 656.995605,118.072266 C657.006999,117.502604 657.024089,116.910156 657.046875,116.294922 C657.069661,115.679688 657.092448,115.058757 657.115234,114.432129 C657.138021,113.805501 657.160807,113.195964 657.183594,112.603516 C657.251953,111.236328 657.331706,109.846354 657.422852,108.433594 C657.992513,107.727214 658.613444,106.935384 659.285645,106.058105 C659.957845,105.180827 660.624349,104.286458 661.285156,103.375 L661.285156,103.375 L674.410156,103.375 C674.957031,103.375 675.458333,103.124349 675.914062,102.623047 C676.369792,102.121745 676.597656,101.472331 676.597656,100.674805 C676.597656,100.013997 676.495117,99.4671224 676.290039,99.0341797 C676.084961,98.601237 675.754557,98.3733724 675.298828,98.3505859 C674.911458,98.3277995 674.421549,98.305013 673.829102,98.2822266 C673.236654,98.2594401 672.598633,98.2366536 671.915039,98.2138672 C671.231445,98.1910807 670.525065,98.1625977 669.795898,98.128418 C669.066732,98.0942383 668.388835,98.0657552 667.762207,98.0429688 C667.135579,98.0201823 666.583008,98.0030924 666.104492,97.9916992 C665.625977,97.980306 665.28418,97.9632161 665.079102,97.9404297 C665.899414,96.6416016 666.67985,95.3313802 667.42041,94.0097656 C668.16097,92.688151 668.804688,91.3836263 669.351562,90.0961914 C669.898438,88.8087565 670.33138,87.5441081 670.650391,86.3022461 C670.969401,85.0603841 671.128906,83.8811849 671.128906,82.7646484 C671.128906,81.4430339 670.975098,80.1726888 670.66748,78.9536133 C670.359863,77.7345378 669.921224,76.6692708 669.351562,75.7578125 C668.781901,74.8463542 668.092611,74.1171875 667.283691,73.5703125 C666.474772,73.0234375 665.580404,72.75 664.600586,72.75 C663.073893,72.75 661.61556,73.4278971 660.225586,74.7836914 C658.835612,76.1394857 657.553874,77.9396159 656.380371,80.184082 C655.206868,82.4285482 654.147298,84.9920247 653.20166,87.8745117 C652.256022,90.7569987 651.475586,93.7363281 650.860352,96.8125 C650.632487,96.8580729 650.216634,96.8751628 649.612793,96.8637695 C649.008952,96.8523763 648.325358,96.8352865 647.562012,96.8125 C646.798665,96.7897135 646.001139,96.7840169 645.169434,96.7954102 C644.337728,96.8068034 643.574382,96.8694661 642.879395,96.9833984 C642.184408,97.0973307 641.614746,97.2739258 641.17041,97.5131836 C640.726074,97.7524414 640.503906,98.0999349 640.503906,98.5556641 C640.503906,98.7607422 640.515299,99.0056966 640.538086,99.2905273 C640.560872,99.5753581 640.640625,99.8487956 640.777344,100.11084 C640.914062,100.372884 641.130534,100.600749 641.426758,100.794434 C641.722982,100.988118 642.144531,101.119141 642.691406,101.1875 C643.921875,101.324219 644.861816,101.438151 645.51123,101.529297 C646.160645,101.620443 646.696126,101.705892 647.117676,101.785645 C647.539225,101.865397 647.937988,101.94515 648.313965,102.024902 C648.689941,102.104655 649.219727,102.190104 649.90332,102.28125 C649.698242,103.807943 649.538737,105.346029 649.424805,106.895508 C649.310872,108.444987 649.253906,109.90332 649.253906,111.270508 C649.253906,114.779622 649.476074,117.935547 649.92041,120.738281 C650.364746,123.541016 651.03125,125.927897 651.919922,127.898926 C652.808594,129.869954 653.913737,131.379557 655.235352,132.427734 C656.556966,133.475911 658.083659,134 659.81543,134 Z M659.473633,97.3251953 C659.109049,97.2796224 658.755859,97.2397461 658.414062,97.2055664 C658.072266,97.1713867 657.730469,97.1315104 657.388672,97.0859375 C657.798828,95.2402344 658.248861,93.3375651 658.73877,91.3779297 C659.228678,89.4182943 659.752767,87.6238607 660.311035,85.9946289 C660.869303,84.3653971 661.450358,83.0266927 662.054199,81.9785156 C662.65804,80.9303385 663.256185,80.40625 663.848633,80.40625 C664.281576,80.40625 664.617676,80.4973958 664.856934,80.6796875 C665.096191,80.8619792 665.272786,81.0898438 665.386719,81.3632812 C665.500651,81.6367188 665.574707,81.9272461 665.608887,82.2348633 C665.643066,82.5424805 665.660156,82.8216146 665.660156,83.0722656 C665.660156,83.8014323 665.466471,84.7356771 665.079102,85.875 C664.691732,87.0143229 664.201823,88.2390951 663.609375,89.5493164 C663.016927,90.8595378 662.350423,92.1925456 661.609863,93.5483398 C660.869303,94.9041341 660.157227,96.1630859 659.473633,97.3251953 Z M687.09082,134 C688.458008,134 689.808105,133.846191 691.141113,133.538574 C692.474121,133.230957 693.761556,132.820801 695.003418,132.308105 C696.24528,131.79541 697.430176,131.208659 698.558105,130.547852 C699.686035,129.887044 700.739909,129.214844 701.719727,128.53125 C703.975586,126.936198 706.10612,125.101888 708.111328,123.02832 L708.111328,123.02832 L703.702148,118.448242 C702.813477,119.314128 701.73112,120.231283 700.455078,121.199707 C699.179036,122.168132 697.823242,123.0625 696.387695,123.882812 C694.952148,124.703125 693.476725,125.386719 691.961426,125.933594 C690.446126,126.480469 689.004883,126.753906 687.637695,126.753906 C687.204753,126.753906 686.800293,126.708333 686.424316,126.617188 C686.04834,126.526042 685.689453,126.366536 685.347656,126.138672 C685.005859,125.910807 684.669759,125.591797 684.339355,125.181641 C684.008952,124.771484 683.672852,124.258789 683.331055,123.643555 C685.313477,123.09668 687.153483,122.333333 688.851074,121.353516 C690.548665,120.373698 692.012695,119.257161 693.243164,118.003906 C694.473633,116.750651 695.436361,115.417643 696.131348,114.004883 C696.826335,112.592122 697.173828,111.179362 697.173828,109.766602 C697.173828,108.467773 696.945964,107.294271 696.490234,106.246094 C696.034505,105.197917 695.402181,104.303548 694.593262,103.562988 C693.784342,102.822428 692.833008,102.24707 691.739258,101.836914 C690.645508,101.426758 689.460612,101.22168 688.18457,101.22168 C686.612305,101.22168 685.182454,101.500814 683.89502,102.059082 C682.607585,102.61735 681.445475,103.369303 680.408691,104.314941 C679.371908,105.260579 678.466146,106.354329 677.691406,107.596191 C676.916667,108.838053 676.272949,110.142578 675.760254,111.509766 C675.247559,112.876953 674.865885,114.272624 674.615234,115.696777 C674.364583,117.120931 674.239258,118.471029 674.239258,119.74707 C674.239258,121.638346 674.506999,123.444173 675.04248,125.164551 C675.577962,126.884928 676.381185,128.400228 677.452148,129.710449 C678.523112,131.020671 679.861816,132.063151 681.468262,132.837891 C683.074707,133.61263 684.948893,134 687.09082,134 Z M682.544922,117.935547 C682.544922,117.434245 682.567708,116.830404 682.613281,116.124023 C682.658854,115.417643 682.755697,114.688477 682.903809,113.936523 C683.051921,113.18457 683.268392,112.438314 683.553223,111.697754 C683.838053,110.957194 684.21403,110.296387 684.681152,109.715332 C685.148275,109.134277 685.729329,108.661458 686.424316,108.296875 C687.119303,107.932292 687.956706,107.75 688.936523,107.75 C689.483398,107.75 689.944824,108.080404 690.320801,108.741211 C690.696777,109.402018 690.884766,110.245117 690.884766,111.270508 C690.884766,111.999674 690.599935,112.751628 690.030273,113.526367 C689.460612,114.301107 688.759928,115.01888 687.928223,115.679688 C687.096517,116.340495 686.196452,116.881673 685.228027,117.303223 C684.259603,117.724772 683.365234,117.935547 682.544922,117.935547 Z" id="DateMyMate" fill="#FFFFFF" fill-rule="nonzero"></path>
        <g id="heart-icon-transparent-background-1-copy-16" transform="translate(598.000000, 533.000000)" fill="#AFC0A5" fill-rule="nonzero" stroke="#AFC0A5">
            <g id="Group" transform="translate(23.000000, 13.000000) scale(-1, 1) rotate(-180.000000) translate(-23.000000, -13.000000) ">
                <path d="M37.9955325,25.9116963 C37.7915738,25.86638 37.2088347,25.6397986 36.698938,25.3981118 C35.5625968,24.8694218 33.9454958,23.2229302 33.187935,21.8332309 C32.911134,21.3045409 32.6489014,20.881589 32.6051959,20.881589 C32.5614905,20.881589 32.4012373,21.0930649 32.2555525,21.3498572 C31.8330666,22.0900232 30.5364722,23.3588791 29.6040896,23.9328853 C28.4968854,24.627735 26.9817637,25.1111087 25.9036964,25.1111087 C24.7527867,25.1111087 23.3105075,24.627735 22.6257891,24.0084125 L22.04305,23.4948279 L21.5331533,23.9177799 C20.1928534,25.0355815 17.8181916,25.0960032 15.8660157,24.0688342 C14.8899277,23.5401442 13.6953126,22.2712883 13.0542996,21.0628541 L12.456992,19.9450525 L12.2384648,20.3680044 C11.8014105,21.2441192 10.5193845,22.7395565 9.70354982,23.2984574 C8.37781839,24.204783 7.38716195,24.5371024 5.94488271,24.5522078 C1.00616894,24.5824187 -1.20823959,20.3377936 0.656525492,14.3862551 C1.50149717,11.697489 3.55565245,8.02687012 5.63894469,5.51936915 C7.40173042,3.4046093 10.3008574,1.24453316 12.5881083,0.338207507 C13.7244495,-0.0998498918 14.991907,-0.114955319 15.8077418,0.307996652 C16.1865222,0.519472637 17.7307807,2.07533167 20.0617371,4.59793807 C22.0721869,6.78822507 23.8204042,8.63108722 23.936952,8.72171979 C24.0972053,8.82745778 24.3303009,8.67640351 24.91304,8.10239726 C26.2970453,6.6975925 28.6425701,5.14173346 30.4199244,4.41667294 C30.8424102,4.23540781 31.294033,3.96351012 31.4105808,3.79735041 C31.7310873,3.32908216 32.3138264,3.44992558 33.7269687,4.32604038 C38.9424835,7.51328559 43.2693212,11.6672782 44.9446961,15.0659994 C45.9353525,17.0599158 46.255859,19.3106245 45.7896678,20.9571161 C45.1486548,23.2984574 43.5315538,25.0657924 41.4482616,25.7455366 C40.6324269,26.0023289 38.927915,26.077856 37.9955325,25.9116963 Z M40.6323278,23.6915677 C41.471919,23.3113487 42.3983645,22.2923617 42.7457815,21.3494185 C43.2669071,19.8741686 42.9773929,17.7145245 41.9640932,15.6005067 C40.473095,12.4979194 35.8553434,8.04175228 31.3533975,5.34980151 L30.7743691,5 L28.6753911,6.52087614 C25.881579,8.57405892 25.0564635,9.31928823 23.883931,10.733703 C21.7270502,13.34961 20.5255662,17.4103493 21.1769732,19.8741686 C21.5533416,21.2733747 22.7403499,22.4140318 24.332678,22.9007121 C27.0975387,23.7524028 29.4715552,22.2771529 30.7164663,18.9312254 C31.4402518,16.9997127 31.4113004,17.045339 32.077183,17.0909653 L32.6706872,17.1365916 L32.7864928,18.1859961 C32.9746771,20.0718825 33.9300739,21.7144288 35.377645,22.7334158 C36.1014305,23.2353049 37.4621473,23.8132378 38.2438356,23.9653254 C38.8083883,24.0717868 40.0967265,23.9196992 40.6323278,23.6915677 Z M19.7890959,23.7709371 C20.7953678,23.46552 21.3210323,23.0532069 21.0657095,22.7477897 C20.9755956,22.6256229 20.7052539,22.0453303 20.4949881,21.4650378 C20.1345325,20.5487864 20.0894756,20.1822858 20.0744566,18.5788458 C20.0444186,15.677383 20.675216,14.0128596 22.9581015,10.8670631 C23.1233103,10.6227294 22.8830066,10.3325831 20.7052539,8.14885059 C17.851647,5.29320036 16.5299764,4.19369867 15.1782679,3.50651011 C13.2408189,2.54444613 11.5586927,2.92621755 9.15565533,4.88088723 C6.07676364,7.35476604 2.23190378,13.2645876 1.27068881,16.9754059 C1.12049897,17.5251567 1.0003471,18.4872207 1.0003471,19.1133258 C0.970309132,21.8773509 2.89273907,23.6945829 5.65623209,23.5113326 C8.26953529,23.3433532 10.402231,21.3428709 11.348427,18.1970744 C11.8140155,16.6241761 11.9792243,16.3645716 12.4598318,16.3645716 C13.0756101,16.3645716 13.3759898,16.7310721 13.3759898,17.4793441 C13.3910088,19.4492847 14.6526034,21.9078926 16.2295967,23.0073943 C16.875413,23.46552 18.1970836,23.9847291 18.722748,24 C18.8879569,24 19.3685644,23.893104 19.7890959,23.7709371 Z" id="Shape"></path>
            </g>
        </g>
        <g id="love-talk-svgrepo-com-copy-10" transform="translate(570.000000, 492.000000) scale(-1, 1) translate(-570.000000, -492.000000) translate(541.000000, 463.000000)" fill="#AFC0A5" fill-rule="nonzero" stroke="#AFC0A5">
            <path d="M53.1725367,0 L11.4269785,0 C8.76514634,0 6.59966849,2.21592027 6.59966849,4.93928645 L6.59966849,43.5693112 L0.130052476,56.2805487 C-0.0873994429,56.7075497 -0.0284008601,57.2269134 0.278851499,57.5916597 C0.501207197,57.8557323 0.821025488,58 1.14957863,58 C1.27477822,58 1.401357,57.9788303 1.5241047,57.9357068 L16.6531802,52.5970184 L53.17269,52.5970184 C55.8345221,52.5970184 58,50.3810981 58,47.6574183 L58,4.93928645 C58,2.21592027 55.8343689,0 53.1725367,0 Z M55.7012007,47.6575751 C55.7012007,49.0842571 54.5668955,50.2449847 53.1725367,50.2449847 L16.4604005,50.2449847 C16.3329022,50.2449847 16.2063234,50.2667817 16.0857211,50.3092779 L3.50063385,54.7502136 L8.76836445,44.4005753 C8.85372084,44.2327858 8.89831457,44.0464923 8.89831457,43.8572193 L8.89831457,4.93928645 C8.89831457,3.5126045 10.0326198,2.35219051 11.4269785,2.35219051 L53.1725367,2.35219051 C54.5668955,2.35219051 55.7012007,3.5126045 55.7012007,4.93928645 L55.7012007,47.6575751 L55.7012007,47.6575751 Z" id="Shape" stroke-width="1.5"></path>
            <path d="M43.4299022,23.0310155 C42.754152,23.0310155 42.1016336,23.1448082 41.4818581,23.3627158 C42.3403446,18.8337965 40.3190188,15.016511 37.2160873,13.1644524 C34.2678268,11.4044895 29.9560602,11.3895044 26.8319237,15.090968 C24.7415261,12.6315466 21.8961718,11.5507498 18.9659978,12.1721611 C15.3926606,12.9312476 12.6300988,16.0309677 12.0920245,19.8854036 C11.6618457,22.9663924 12.1838605,30.9393758 26.2873009,38.4133258 C26.4584992,38.5038605 26.6463809,38.5492839 26.8344184,38.5492839 C27.0223001,38.5492839 27.2103376,38.5038605 27.381536,38.4133258 C28.4222911,37.8618447 29.4186095,37.2896031 30.3573941,36.7062788 C32.1556006,38.9421732 34.8258587,41.0091736 38.3259143,42.8640419 C38.4971127,42.9545766 38.6849943,43 38.8730319,43 C39.0610694,43 39.2489511,42.9545766 39.4201494,42.8640419 C43.5699169,40.6646735 46.5584043,38.1684139 48.3026632,35.4444127 C50.2388575,32.4200861 50.1719685,29.8768421 49.7748444,28.2759392 C49.0208232,25.2367837 46.3525921,23.0310155 43.4299022,23.0310155 Z M14.4083479,20.2094554 C14.8107732,17.3274868 16.8374002,15.0177598 19.4515276,14.4626885 C21.9084893,13.9407093 24.2380657,15.1196893 25.8418421,17.6974302 C26.0552943,18.0403693 26.4305899,18.2492234 26.8344184,18.2492234 C27.238247,18.2492234 27.6135425,18.0406815 27.8269948,17.6974302 C30.3085916,13.708441 33.7904048,13.84596 36.0184783,15.1755711 C38.744867,16.80301 40.3152768,20.5246097 38.6118686,24.8499821 C37.4011624,23.6661631 35.9232122,23.0311716 34.3160056,23.0311716 C31.3931598,23.0311716 28.7246169,25.237252 27.9705956,28.2762514 C27.6034079,29.7563373 27.5198356,32.0420258 29.0392601,34.7682123 C28.336536,35.2029349 27.6006013,35.6318819 26.8341066,36.0499024 C14.5708148,29.3682869 14.0516066,22.7642504 14.4083479,20.2094554 Z M38.8730319,40.4992136 C29.4758316,35.3234396 29.8827785,30.2829994 30.2406112,28.8403761 C30.7389263,26.8309745 32.452937,25.3724296 34.3161615,25.3724296 C35.6949477,25.3724296 36.9608489,26.1867734 37.8804555,27.6651423 C38.0939078,28.0083936 38.4692033,28.2169356 38.8730319,28.2169356 C39.2768604,28.2169356 39.652156,28.0083936 39.8656082,27.6651423 C40.7853707,26.1867734 42.051272,25.3724296 43.4299022,25.3724296 C45.292659,25.3724296 47.0063578,26.8309745 47.5048288,28.8403761 C47.8626615,30.2829994 48.2696085,35.3237518 38.8730319,40.4992136 Z" id="Shape"></path>
        </g>
        <g id="love-talk-svgrepo-com-copy-11" transform="translate(369.000000, 427.000000)" fill="#AFC0A5" fill-rule="nonzero" stroke="#AFC0A5">
            <path d="M53.1725367,0 L11.4269785,0 C8.76514634,0 6.59966849,2.21592027 6.59966849,4.93928645 L6.59966849,43.5693112 L0.130052476,56.2805487 C-0.0873994429,56.7075497 -0.0284008601,57.2269134 0.278851499,57.5916597 C0.501207197,57.8557323 0.821025488,58 1.14957863,58 C1.27477822,58 1.401357,57.9788303 1.5241047,57.9357068 L16.6531802,52.5970184 L53.17269,52.5970184 C55.8345221,52.5970184 58,50.3810981 58,47.6574183 L58,4.93928645 C58,2.21592027 55.8343689,0 53.1725367,0 Z M55.7012007,47.6575751 C55.7012007,49.0842571 54.5668955,50.2449847 53.1725367,50.2449847 L16.4604005,50.2449847 C16.3329022,50.2449847 16.2063234,50.2667817 16.0857211,50.3092779 L3.50063385,54.7502136 L8.76836445,44.4005753 C8.85372084,44.2327858 8.89831457,44.0464923 8.89831457,43.8572193 L8.89831457,4.93928645 C8.89831457,3.5126045 10.0326198,2.35219051 11.4269785,2.35219051 L53.1725367,2.35219051 C54.5668955,2.35219051 55.7012007,3.5126045 55.7012007,4.93928645 L55.7012007,47.6575751 L55.7012007,47.6575751 Z" id="Shape" stroke-width="1.5"></path>
            <path d="M43.4299022,23.0310155 C42.754152,23.0310155 42.1016336,23.1448082 41.4818581,23.3627158 C42.3403446,18.8337965 40.3190188,15.016511 37.2160873,13.1644524 C34.2678268,11.4044895 29.9560602,11.3895044 26.8319237,15.090968 C24.7415261,12.6315466 21.8961718,11.5507498 18.9659978,12.1721611 C15.3926606,12.9312476 12.6300988,16.0309677 12.0920245,19.8854036 C11.6618457,22.9663924 12.1838605,30.9393758 26.2873009,38.4133258 C26.4584992,38.5038605 26.6463809,38.5492839 26.8344184,38.5492839 C27.0223001,38.5492839 27.2103376,38.5038605 27.381536,38.4133258 C28.4222911,37.8618447 29.4186095,37.2896031 30.3573941,36.7062788 C32.1556006,38.9421732 34.8258587,41.0091736 38.3259143,42.8640419 C38.4971127,42.9545766 38.6849943,43 38.8730319,43 C39.0610694,43 39.2489511,42.9545766 39.4201494,42.8640419 C43.5699169,40.6646735 46.5584043,38.1684139 48.3026632,35.4444127 C50.2388575,32.4200861 50.1719685,29.8768421 49.7748444,28.2759392 C49.0208232,25.2367837 46.3525921,23.0310155 43.4299022,23.0310155 Z M14.4083479,20.2094554 C14.8107732,17.3274868 16.8374002,15.0177598 19.4515276,14.4626885 C21.9084893,13.9407093 24.2380657,15.1196893 25.8418421,17.6974302 C26.0552943,18.0403693 26.4305899,18.2492234 26.8344184,18.2492234 C27.238247,18.2492234 27.6135425,18.0406815 27.8269948,17.6974302 C30.3085916,13.708441 33.7904048,13.84596 36.0184783,15.1755711 C38.744867,16.80301 40.3152768,20.5246097 38.6118686,24.8499821 C37.4011624,23.6661631 35.9232122,23.0311716 34.3160056,23.0311716 C31.3931598,23.0311716 28.7246169,25.237252 27.9705956,28.2762514 C27.6034079,29.7563373 27.5198356,32.0420258 29.0392601,34.7682123 C28.336536,35.2029349 27.6006013,35.6318819 26.8341066,36.0499024 C14.5708148,29.3682869 14.0516066,22.7642504 14.4083479,20.2094554 Z M38.8730319,40.4992136 C29.4758316,35.3234396 29.8827785,30.2829994 30.2406112,28.8403761 C30.7389263,26.8309745 32.452937,25.3724296 34.3161615,25.3724296 C35.6949477,25.3724296 36.9608489,26.1867734 37.8804555,27.6651423 C38.0939078,28.0083936 38.4692033,28.2169356 38.8730319,28.2169356 C39.2768604,28.2169356 39.652156,28.0083936 39.8656082,27.6651423 C40.7853707,26.1867734 42.051272,25.3724296 43.4299022,25.3724296 C45.292659,25.3724296 47.0063578,26.8309745 47.5048288,28.8403761 C47.8626615,30.2829994 48.2696085,35.3237518 38.8730319,40.4992136 Z" id="Shape"></path>
        </g>
        <g id="heart-icon-transparent-background-1-copy-17" transform="translate(326.000000, 485.000000)" fill="#AFC0A5" fill-rule="nonzero" stroke="#AFC0A5">
            <g id="Group" transform="translate(22.000000, 12.500000) scale(-1, 1) rotate(-180.000000) translate(-22.000000, -12.500000) ">
                <path d="M36.254939,24.1234975 C36.0605302,24.0819048 35.5050766,23.8739411 35.0190546,23.6521131 C33.93592,23.1668644 32.3945362,21.6556615 31.6724464,20.3801507 C31.4086059,19.8949021 31.1586518,19.5067032 31.1169928,19.5067032 C31.0753338,19.5067032 30.922584,19.7008026 30.7837206,19.9364948 C30.3810167,20.6158429 29.1451323,21.7804397 28.2564065,22.3072811 C27.2010446,22.9450365 25.7568651,23.3886924 24.7292759,23.3886924 C23.6322549,23.3886924 22.2575071,22.9450365 21.6048491,22.3766023 L21.0493955,21.9052179 L20.5633735,22.2934169 C19.2858301,23.3193712 17.0223565,23.3748281 15.1615868,22.4320593 C14.231202,21.9468107 13.092522,20.7822139 12.481523,19.6730741 L11.912183,18.6471198 L11.7038879,19.0353187 C11.2872977,19.8394451 10.0652996,21.2120056 9.28766454,21.7249827 C8.0240075,22.5568376 7.0797363,22.861851 5.70498853,22.8757152 C0.997518893,22.9034437 -1.11320496,19.0075902 0.664246706,13.5450768 C1.46965449,11.0772408 3.42762859,7.7082287 5.41337537,5.40676364 C7.09362264,3.46576902 9.85700453,1.48318166 12.0371601,0.65132682 C13.1202947,0.249263648 14.3284064,0.235399401 15.1060415,0.623598325 C15.4670863,0.817697788 16.9390385,2.24571526 19.1608531,4.56104456 C21.0771682,6.57136042 22.7435291,8.26279859 22.8546198,8.34598407 C23.0073696,8.4430338 23.229551,8.30439133 23.7850047,7.77754993 C25.1042071,6.48817493 27.339908,5.06015746 29.0340416,4.39467359 C29.4367455,4.22830262 29.8672221,3.97874617 29.9783128,3.82623945 C30.2838123,3.39644779 30.839266,3.50736176 32.186241,4.31148811 C37.1575512,7.23684429 41.2817945,11.0495123 42.8787237,14.1689679 C43.8229949,15.9990486 44.1284944,18.0648214 43.6841315,19.5760244 C43.0731325,21.7249827 41.5317486,23.3470997 39.5460018,23.9709908 C38.7683667,24.206683 37.1436648,24.2760042 36.254939,24.1234975 Z M39.3417081,21.6551146 C40.1343291,21.314009 41.0089455,20.399846 41.3369266,19.5539041 C41.8288983,18.2304144 41.5555807,16.2929347 40.5989691,14.3963876 C39.1913834,11.6129659 34.8319676,7.61520838 30.5818788,5.20018078 L30.0352436,4.88636364 L28.0536909,6.25078601 C25.416176,8.09275621 24.6372208,8.76132317 23.5302845,10.030236 C21.4940683,12.3770425 20.3598003,16.0200502 20.9747649,18.2304144 C21.3300778,19.485683 22.45068,20.5089998 23.9539268,20.945615 C26.5641099,21.7096915 28.8053143,20.3862018 29.98058,17.3844726 C30.6638741,15.6516562 30.6365423,15.6925888 31.2651728,15.7335215 L31.8254739,15.7744542 L31.9348009,16.7159056 C32.1124574,18.4077893 33.0144055,19.8813655 34.3809935,20.7955285 C35.0642875,21.2457879 36.3488803,21.7642684 37.0868378,21.9007106 C37.6198072,21.9962202 38.8360705,21.8597779 39.3417081,21.6551146 Z M18.9302654,21.7211002 C19.8802423,21.4401429 20.376499,21.0608505 20.13546,20.7798932 C20.0503875,20.6675102 19.7951698,20.1336913 19.5966671,19.5998724 C19.2563769,18.7570004 19.2138406,18.4198516 19.1996618,16.9448257 C19.1713043,14.2757311 19.7668123,12.7445137 21.9219839,9.8506533 C22.0779503,9.62588744 21.8510901,9.35897798 19.7951698,7.35013312 C17.1012052,4.72318215 15.8534742,3.71173579 14.5773857,3.07958181 C12.7483256,2.19456625 11.1603043,2.5457629 8.89170259,4.34388977 C5.98505659,6.61964408 2.35529377,12.0561683 1.44785307,15.4697998 C1.30606546,15.9755229 1.19263537,16.8605385 1.19263537,17.436501 C1.16427785,19.9791648 2.97915926,21.6508609 5.58805128,21.4822865 C8.05515569,21.3277599 10.0685397,19.4874895 10.9618017,16.593629 C11.4013433,15.1466988 11.5573097,14.9078851 12.01103,14.9078851 C12.5923592,14.9078851 12.8759344,15.2450339 12.8759344,15.9333793 C12.8901132,17.7455541 14.0811291,20.0072605 15.569899,21.0187069 C16.1795857,21.4401429 17.4273167,21.9177703 17.9235733,21.9318182 C18.0795397,21.9318182 18.5332601,21.8334831 18.9302654,21.7211002 Z" id="Shape"></path>
            </g>
        </g>
        <line x1="307.440564" y1="383.498327" x2="307.440564" y2="243.980253" id="Path" stroke="#6C63FF"></line>
        <line x1="363.738152" y1="383.498327" x2="363.738152" y2="206.660642" id="Path" stroke="#6C63FF"></line>
        <line x1="420.035739" y1="383.498327" x2="420.035739" y2="188.90856" id="Path" stroke="#6C63FF"></line>
        <line x1="476.333327" y1="383.498327" x2="476.333327" y2="183.40607" id="Path" stroke="#6C63FF"></line>
        <line x1="532.630914" y1="383.498327" x2="532.630914" y2="189.526187" id="Path" stroke="#6C63FF"></line>
        <line x1="588.928502" y1="383.498327" x2="588.928502" y2="212.163132" id="Path" stroke="#6C63FF"></line>
        <line x1="645.226089" y1="383.498327" x2="645.226089" y2="223.785739" id="Path" stroke="#6C63FF"></line>
        <g id="heart-icon-transparent-background-1-copy-18" transform="translate(614.000000, 152.000000)" fill="#FFFFFF" fill-rule="nonzero" stroke="#FFFFFF">
            <g id="Group" transform="translate(37.500000, 21.000000) scale(-1, 1) rotate(-180.000000) translate(-37.500000, -21.000000) translate(0.000000, -0.000000)">
                <path d="M61.8359524,41.6859123 C61.5055217,41.6132163 60.5614338,41.2497362 59.7353569,40.862024 C57.8943855,40.0139037 55.2745417,37.3726146 54.0472274,35.1432697 C53.5987857,34.2951494 53.1739461,33.6166531 53.1031395,33.6166531 C53.032333,33.6166531 52.7727088,33.9559012 52.5366868,34.3678454 C51.8522231,35.5552139 49.7516276,37.5907027 48.241087,38.5115191 C46.44732,39.6261915 43.9926915,40.4016158 42.2461289,40.4016158 C40.3815554,40.4016158 38.0449379,39.6261915 36.9356346,38.6326791 L35.9915468,37.8087908 L35.1654699,38.4872871 C32.9940677,40.2804558 29.1469096,40.3773838 25.9842152,38.7296071 C24.4028681,37.8814868 22.4674879,35.845998 21.4289912,33.9074372 L20.4613012,32.1142685 L20.1072682,32.7927648 C19.3992023,34.1982213 17.322209,36.5971903 16.0004859,37.4937747 C13.852686,38.9476952 12.2477366,39.4807994 9.91111912,39.5050315 C1.90997436,39.5534955 -1.67755958,32.7443008 1.34352163,23.196889 C2.71244905,18.8835912 6.04035882,12.9952129 9.41547299,8.97269928 C12.2713388,5.58021793 16.968176,2.11504054 20.6737209,0.661119964 C22.5146923,-0.0416083163 24.5680834,-0.0658403259 25.8898065,0.612655945 C26.5034636,0.95190408 29.0052965,3.44780108 32.781648,7.49454669 C36.0387511,11.0081881 38.8710148,13.9644933 39.0598324,14.1098853 C39.3194565,14.2795094 39.6970917,14.0371893 40.6411796,13.1163729 C42.8833883,10.862796 46.683342,8.36689904 49.56281,7.20376257 C50.2472737,6.91297846 50.9789418,6.47680228 51.1677594,6.21025018 C51.6870077,5.45905788 52.6310956,5.65291396 54.9205087,7.05837052 C63.3700952,12.1713246 70.3799477,18.8351272 73.0942004,24.2873294 C74.6991498,27.4859547 75.2183981,31.0965241 74.4631278,33.7378132 C73.4246311,37.4937747 70.8047873,40.3289198 67.4296731,41.4193602 C66.1079501,41.8313044 63.346493,41.9524644 61.8359524,41.6859123 Z M67.0824411,37.3716587 C68.4296353,36.7754725 69.9161945,35.1776932 70.4736542,33.6991513 C71.3098437,31.3859485 70.8452939,27.9996104 69.2193699,24.6848147 C66.8269388,19.8199347 59.4173706,12.8326315 52.1936223,8.61163259 L51.2645229,8.06314121 L47.8965373,10.4478863 C43.4136325,13.6672922 42.0896657,14.8358174 40.2082393,17.0536303 C36.7473439,21.1553919 34.8194625,27.5226614 35.8646994,31.3859485 C36.468614,33.579914 38.3732679,35.3684728 40.9282914,36.1315913 C45.3647413,37.4670486 49.1740491,35.1538458 51.1716129,29.9074065 C52.3329873,26.8787802 52.2865323,26.9503226 53.3549967,27.0218649 L54.3073236,27.0934073 L54.4931435,28.7388814 C54.7951008,31.6959654 56.3281149,34.2714901 58.6508636,35.8692693 C59.8122379,36.6562352 61.9956216,37.5624384 63.2499059,37.8009129 C64.1557778,37.967845 66.2230241,37.7293705 67.0824411,37.3716587 Z M32.389725,37.4869887 C34.0043723,36.99593 34.8478448,36.3330006 34.4381582,35.8419418 C34.2935629,35.6455183 33.859777,34.7125066 33.522388,33.7794949 C32.9440069,32.3063185 32.8717092,31.7170479 32.84761,29.1389892 C32.7994116,24.4739307 33.8115786,21.7976603 37.4746592,16.7397547 C37.7397505,16.3469077 37.3541631,15.8804018 33.859777,12.3693314 C29.2809263,7.77793169 27.1601955,6.01012003 24.9912662,4.90523774 C21.8824676,3.35840254 19.1833556,3.97222603 15.3274813,7.11500232 C10.3871424,11.0925786 4.21774354,20.5945662 2.67539383,26.5609306 C2.43440169,27.4448364 2.24160798,28.9916716 2.24160798,29.9983421 C2.19340955,34.4424242 5.27810897,37.364224 9.71236438,37.0695888 C13.9056277,36.7995064 17.3277161,33.5830713 18.8459666,28.5251658 C19.5930422,25.996213 19.8581336,25.578813 20.6293084,25.578813 C21.6173762,25.578813 22.0993605,26.1680835 22.0993605,27.3711776 C22.1234597,30.5385068 24.1477937,34.4915301 26.6782112,36.2593418 C27.7144774,36.99593 29.8352082,37.8307299 30.6786807,37.8552828 C30.9437721,37.8552828 31.714947,37.6834123 32.389725,37.4869887 Z" id="Shape"></path>
            </g>
        </g>
        <path d="M712.981537,302.673463 C712.645179,301.573781 712.407175,300.446393 712.270331,299.304591 C711.662062,295.945078 710.108638,292.847588 708.583288,289.787529 C708.340651,289.160733 707.921291,288.617841 707.376109,288.224747 C706.32273,287.756122 705.085086,288.1354 704.475136,289.113755 C703.92136,290.089968 703.701225,291.220211 703.848152,292.332899 C703.932374,293.568152 704.119533,294.981206 703.249241,295.851498 C702.887339,296.172832 702.45438,296.403743 701.985914,296.525272 C699.178521,297.41428 696.062315,296.618852 693.414008,295.299377 C690.7657,293.979903 688.40749,292.127023 685.796615,290.732685 C684.41555,290.008807 682.993898,289.365158 681.538735,288.804942 C680.032101,288.196673 677.945272,287.803638 677.103054,289.188619 C676.42928,290.29286 677.103054,291.705914 677.879767,292.763366 C679.19285,294.589009 680.719699,296.250949 682.427743,297.713735 C687.499767,302.083911 693.909981,304.516984 699.871012,307.558327 C706.549086,310.966632 712.773827,315.198199 718.399805,320.154163 C718.944985,319.507297 719.272427,318.705062 719.335603,317.861459 C719.784786,315.475175 721.759319,310.646459 719.76607,308.578346 C717.585661,306.304358 714.188716,306.15463 712.981537,302.673463 Z" id="Path" fill="#FBBEBE" fill-rule="nonzero"></path>
        <path d="M806.832685,624.017023 C811.828542,627.916245 818.15893,629.691308 824.453755,628.958035 C825.763872,628.798949 827.261148,628.331051 827.691615,627.08644 C827.848787,626.330847 827.763646,625.54493 827.448307,624.840525 C826.458597,622.485783 825.697112,620.041509 825.174319,617.541304 C824.84679,615.267315 824.931012,612.56286 823.078132,611.196595 C820.401751,609.222062 813.401984,609.325 811.661401,612.385058 C811.24965,613.040117 808.629416,625.523658 806.832685,624.017023 Z" id="Path" fill="#3C354C" fill-rule="nonzero"></path>
        <path d="M844.535973,612.974611 C844.405157,613.475669 844.498085,614.008833 844.790702,614.436089 C845.083318,614.863345 845.546856,615.142689 846.061323,615.201809 C850.358713,616.532525 854.815725,617.278508 859.312218,617.41965 L858.37642,608.417276 C858.413131,608.010041 858.269242,607.607215 857.98283,607.315399 C857.696418,607.023583 857.296352,606.872191 856.888502,606.901284 C854.3057,606.470817 848.878074,604.720875 846.39821,605.619241 C843.609533,606.629903 844.592121,610.288872 844.535973,612.974611 Z" id="Path" fill="#3C354C" fill-rule="nonzero"></path>
        <path d="M818.399144,253.899689 C819.125242,255.788975 819.484144,257.799465 819.456595,259.823288 C819.690545,267.07572 818.445934,274.908346 813.392626,280.111381 C819.06356,278.417588 825.436342,279.437607 830.789105,276.910953 C833.268969,275.741206 835.355798,273.878969 837.676576,272.428482 C841.812802,269.845681 846.63216,268.591712 850.936829,266.28965 C855.241498,263.987588 859.227996,260.104027 859.471304,255.237879 C857.599708,253.272704 854.595798,252.991965 852.144008,251.803502 C849.505058,250.512101 847.549241,248.153891 845.687004,245.879903 C843.48985,243.373048 841.56388,240.640932 839.941206,237.729105 C838.311131,234.795916 837.655704,231.420468 838.069611,228.090389 C833.287685,228.951323 829.815875,233.124981 825.295973,234.912354 C823.536673,235.604844 821.637004,235.923016 819.924494,236.718444 C817.482062,237.841401 812.531693,241.659455 812.438113,244.654008 C812.447471,247.919942 817.126459,251.017432 818.399144,253.899689 Z" id="Path" fill="#FBBEBE" fill-rule="nonzero"></path>
        <path d="M818.399144,253.899689 C819.125242,255.788975 819.484144,257.799465 819.456595,259.823288 C819.690545,267.07572 818.445934,274.908346 813.392626,280.111381 C819.06356,278.417588 825.436342,279.437607 830.789105,276.910953 C833.268969,275.741206 835.355798,273.878969 837.676576,272.428482 C841.812802,269.845681 846.63216,268.591712 850.936829,266.28965 C855.241498,263.987588 859.227996,260.104027 859.471304,255.237879 C857.599708,253.272704 854.595798,252.991965 852.144008,251.803502 C849.505058,250.512101 847.549241,248.153891 845.687004,245.879903 C843.48985,243.373048 841.56388,240.640932 839.941206,237.729105 C838.311131,234.795916 837.655704,231.420468 838.069611,228.090389 C833.287685,228.951323 829.815875,233.124981 825.295973,234.912354 C823.536673,235.604844 821.637004,235.923016 819.924494,236.718444 C817.482062,237.841401 812.531693,241.659455 812.438113,244.654008 C812.447471,247.919942 817.126459,251.017432 818.399144,253.899689 Z" id="Path" fill="#FBBEBE" fill-rule="nonzero" opacity="0.1"></path>
        <path d="M879.965272,442.893385 C878.196615,457.154942 876.97072,471.977977 874.640584,486.174027 C873.704786,492.116342 874.865175,498.339397 873.227529,504.141342 C872.525681,506.621206 871.355934,508.951342 870.841245,511.468638 C870.101965,515.305409 871.075195,519.226401 871.777043,523.063171 C873.498911,532.655097 873.498911,542.471615 873.470837,552.222626 C873.470837,557.472451 873.470837,562.769066 872.413385,567.925311 C871.159416,574.185798 868.464319,580.090681 866.957685,586.24823 C865.020584,594.10893 865.207743,603.017724 865.862802,611.0843 C864.103502,610.447957 862.119611,611.0843 860.453891,611.879728 C858.788171,612.675156 857.103735,613.751323 855.241498,613.872977 C852.724202,614.106926 850.356634,612.778093 848.185584,611.486693 C846.519864,610.504105 845.069377,609.615097 843.413016,608.604436 C841.794086,594.567471 840.175156,580.474358 840.240661,566.334455 C840.240661,558.118152 840.886362,549.883132 840.240661,541.685545 C839.594961,533.487957 837.714008,525.552393 838.097685,517.448385 C838.275486,513.761342 838.902471,510.130447 839.32358,506.471479 C840.70856,494.62428 840.521401,483.263696 839.688541,471.369708 C838.874397,471.575584 838.546868,472.8857 838.846323,473.662412 C837.657713,474.739304 836.70228,476.048247 836.03893,477.508541 C834.541654,480.783833 834.223482,484.751615 834.026965,488.419942 L832.819786,511.318911 C832.787538,513.497222 832.517679,515.66551 832.015,517.785272 C831.593891,519.291907 830.957549,520.714319 830.573872,522.230311 C829.198249,527.714086 831.406732,533.366304 832.10858,538.971732 C832.679416,543.65072 832.192802,548.329708 831.715545,552.952549 L828.711634,582.074572 C827.616751,592.667802 826.549942,603.485623 828.711634,613.891693 C828.852004,614.537393 828.992374,615.192451 829.160817,615.84751 C828.64428,615.997092 828.119307,616.115836 827.588677,616.203113 C825.726238,616.464934 823.83633,616.464934 821.973891,616.203113 C820.233307,616.025311 818.474008,615.725856 816.75214,615.519981 C812.615914,615.052082 808.489047,614.87428 805.74716,617.999844 C801.573502,599.078016 797.381128,579.866089 798.494728,560.523152 C798.887763,553.710545 799.935856,546.944728 800.65642,540.160195 C801.779018,529.659781 802.116842,519.09026 801.667082,508.539591 C800.731284,485.649981 796.052296,463.013035 795.275584,440.114066 C795.116498,435.229202 795.135214,430.297549 794.161984,425.506265 C793.095175,420.312588 790.877335,415.21249 791.055136,409.943949 C791.232938,404.675409 795.079066,398.826673 800.413113,399.11677 C815.13321,399.930914 828.580623,391.808191 843.263288,390.42321 C849.926167,389.786868 856.701342,388.841712 863.298716,390.030175 C869.896089,391.218638 876.465389,394.952471 879.057549,401.128735 C880.461245,404.488249 880.573541,408.212724 880.676479,411.843619 C880.975934,422.212257 881.247315,432.608969 879.965272,442.893385 Z" id="Path" fill="#575A89" fill-rule="nonzero"></path>
        <path d="M806.018541,622.538463 C803.585467,624.035739 802.752607,627.095798 801.339553,629.575661 C798.242062,634.975214 792.159377,637.745175 787.162218,641.450934 C784.766576,643.238307 782.352218,645.942763 783.110214,648.834377 C791.756984,651.239377 801.171109,653.382354 809.509066,650.060272 C812.887296,648.712724 816.05965,646.485525 819.681187,646.37323 C822.44179,646.289008 825.295973,647.449397 827.888132,646.653969 C828.542137,646.501537 829.119837,646.119723 829.51642,645.577802 C829.820229,645.001987 829.968601,644.356891 829.946887,643.706206 C830.173042,639.288375 830.151173,634.861335 829.881381,630.445953 C829.619358,626.131926 830.199553,623.081226 825.277257,623.268385 C819.625039,623.511693 810.922121,619.515837 806.018541,622.538463 Z" id="Path" fill="#CBCEDA" fill-rule="nonzero"></path>
        <path d="M847.455661,614.864922 C846.433849,614.456422 845.353521,614.213191 844.255233,614.144358 C842.363214,614.292736 840.655874,615.335918 839.660467,616.951751 C838.693522,618.550111 837.991942,620.294582 837.582996,622.117354 C837.105152,623.450752 836.907634,624.86842 837.002802,626.281654 C837.367763,628.958035 839.735331,630.960642 840.362315,633.599591 C841.49463,638.362802 836.619125,643.500331 838.846323,647.879864 C840.259377,650.687257 843.806051,651.473327 846.903541,651.959942 C851.638677,652.70858 857.019514,653.298132 860.743988,650.275506 C862.770472,648.607235 863.93888,646.115776 863.925811,643.490973 C863.869553,640.047237 861.80144,636.987179 860.865642,633.674455 C859.564883,628.995467 861.5207,622.800486 859.452588,618.523891 C857.68393,614.864922 851.226926,616.072101 847.455661,614.864922 Z" id="Path" fill="#CBCEDA" fill-rule="nonzero"></path>
        <circle id="Oval" fill="#FBBEBE" fill-rule="nonzero" cx="819.980642" cy="226.2843" r="24.3213813"></circle>
        <path d="M832.875934,266.139922 C830.25313,265.024617 827.335987,264.804269 824.575409,265.512938 L822.357568,261.648093 C821.42177,259.944942 820.027432,258.017198 818.071615,258.092062 C816.616701,258.280179 815.405789,259.300857 814.974125,260.702938 C814.567614,262.077142 814.402961,263.511528 814.48751,264.942101 C814.617962,265.846308 814.300286,266.757442 813.635934,267.384533 C813.271888,267.583735 812.870308,267.704846 812.456829,267.740136 C810.945175,268.006412 809.415356,268.156578 807.880778,268.189319 C805.335409,268.189319 802.612237,267.571693 800.394397,268.769514 C798.176556,269.967335 797.147179,272.512704 796.071012,274.852198 C794.50177,278.183857 792.452403,281.267367 789.988327,284.0043 C787.24644,287.045642 783.849494,289.927899 783.072782,293.951829 C782.745253,295.664339 784.298677,296.937023 785.53393,298.172276 C790.446868,303.047782 797.296907,306.042335 800.93716,311.93786 C801.788735,313.313482 802.481226,314.866907 803.791342,315.812062 C802.977198,317.58072 804.72714,319.396167 805.092101,321.295837 C805.235762,322.538159 805.270206,323.790687 805.195039,325.039027 C805.357518,326.867768 805.670511,328.679997 806.130837,330.457296 C806.60985,333.35801 806.832183,336.29531 806.795253,339.235078 L806.954339,349.079669 C807.019844,353.328191 807.08535,357.614144 806.158911,361.759728 C804.895584,367.374514 801.807451,372.75535 802.050759,378.529222 C802.231223,379.611526 802.121434,380.72233 801.732588,381.748366 C799.17786,386.427354 797.165895,391.611673 794.424008,396.234514 C793.64114,397.356008 793.0117,398.57712 792.552412,399.865409 C791.82249,402.532432 793.319767,405.424047 795.528249,407.089767 C797.736732,408.755486 800.525409,409.438619 803.239222,409.953307 C828.449611,414.782023 854.623872,408.97072 878.44928,399.425584 C879.07607,399.229229 879.658001,398.911233 880.16179,398.489786 C881.902374,396.795992 880.536109,393.941809 879.544163,391.733327 C875.800973,383.507665 878.786167,373.953171 878.252763,364.969514 C877.89716,358.914903 875.931984,352.804144 877.410545,346.889903 C878.346342,342.940837 880.844922,339.534533 882.576148,335.84749 C884.447743,331.851634 885.495837,327.425311 887.947626,323.7757 C889.783532,321.267625 891.931301,319.003505 894.339125,317.037957 L909.545837,303.487607 C907.533872,300.221673 907.44965,296.122879 906.504494,292.407763 C905.680992,289.207335 904.043346,286.26893 903.060759,283.12465 C901.694494,278.745117 901.507335,273.766673 898.681226,270.182568 C897.567626,268.750798 896.11714,267.637198 894.872529,266.317724 C893.450117,264.801732 892.32716,263.033074 890.876673,261.545156 C886.674942,257.240486 880.339591,255.874222 874.359844,255.294027 C868.380097,254.713833 862.194475,254.685759 856.654553,252.290117 C853.940739,251.12037 851.039767,249.351712 848.232374,250.231362 C846.005175,250.923852 844.573405,253.104261 843.665681,255.265953 C842.757957,257.427646 842.121615,259.757782 840.633696,261.563872 C838.799533,263.716206 835.552315,265.138619 832.875934,266.139922 Z" id="Path" fill="#3C354C" fill-rule="nonzero"></path>
        <path d="M760.5107,314.689105 C759.630515,316.14724 758.473305,317.418898 757.104397,318.432296 C754.297004,320.163521 750.731615,319.24644 747.596693,318.27321 C738.903132,315.568755 730.153424,312.854942 722.040058,308.728074 C721.638451,308.459042 721.153728,308.342841 720.673794,308.400545 C720.298724,308.521051 719.971243,308.756837 719.737996,309.074319 C718.461985,310.488757 717.289221,311.993023 716.228755,313.575506 C715.108669,315.043426 714.404041,316.785602 714.188716,318.619455 C714.202293,320.879021 715.18758,323.023469 716.893171,324.505623 C718.586059,325.949552 720.476807,327.143875 722.507957,328.052296 C732.857879,333.217899 743.276427,338.249371 753.763599,343.146712 C754.435657,343.520446 755.178267,343.749922 755.944008,343.820486 C758.077626,343.867276 759.434533,341.649436 761.137685,340.376751 C762.840837,339.104066 765.077393,338.748463 767.108074,338.074689 C770.776401,336.86751 773.967471,334.565447 777.093035,332.291459 L787.087354,325.029669 C795.84642,318.666245 805.045311,311.731984 808.872724,301.634728 L796.707354,297.629514 C793.057743,296.422335 789.220973,294.588171 785.430992,293.886323 C782.623599,293.34356 779.24537,297.049319 777.139825,298.630817 C774.179581,300.825814 771.334122,303.171522 768.614708,305.658658 C765.919611,308.129163 762.213852,311.29216 760.5107,314.689105 Z" id="Path" fill="#3C354C" fill-rule="nonzero"></path>
        <path d="M875.660603,394.578152 C872.226226,395.944416 868.333307,393.885661 864.693054,394.49393 C862.986483,394.87508 861.359003,395.549503 859.883054,396.487179 L849.252393,402.429494 C848.597335,402.785097 847.886128,403.655389 848.456965,404.123288 C848.621707,404.232404 848.81195,404.296893 849.009086,404.310447 C852.555759,404.768988 855.868482,402.607296 859.39644,402.008385 C860.946617,401.797189 862.513693,401.73764 864.075428,401.830584 C864.333134,401.815338 864.591207,401.853571 864.833424,401.942879 C865.361176,402.24507 865.667309,402.824534 865.619494,403.430798 C865.619494,404.029708 865.441693,404.609903 865.422977,405.208813 C865.529439,406.588298 866.069959,407.89865 866.967043,408.952004 C870.350241,413.808143 874.104671,418.394805 878.196615,422.670798 C879.234275,421.358385 880.131316,419.940684 880.872996,418.440992 L884.372879,411.890409 C888.003774,405.133949 891.718891,398.124825 892.299086,390.479358 C889.678852,389.646498 884.812704,386.885895 882.108249,388.336381 C879.403794,389.786868 878.776809,393.576848 875.660603,394.578152 Z" id="Path" fill="#FBBEBE" fill-rule="nonzero"></path>
        <path d="M816.901868,222.400739 C823.751907,223.130661 830.003035,226.368521 836.13251,229.550233 C835.084416,231.197237 836.413249,233.564805 838.275486,234.126284 C840.137724,234.687763 842.177763,233.892335 843.759261,232.741304 C845.340759,231.590272 846.641518,230.102354 848.232374,228.998113 C849.598638,228.062315 851.339222,227.07037 851.488949,225.40465 C851.638677,223.73893 850.066537,222.456887 849.083949,221.071907 C845.555992,216.121537 849.458268,208.373132 845.846089,203.478911 C844.030642,201.027121 840.877004,200.100681 838.078969,198.90286 C834.204767,197.255856 830.676809,194.87893 826.793249,193.241284 C822.909689,191.603638 818.436576,190.752062 814.524942,192.305486 C807.207004,195.215817 804.58677,205.219494 797.156537,207.83037 C796.357221,207.987875 795.631114,208.401855 795.088424,209.009475 C794.152626,210.431887 792.982879,218.844708 793.216829,220.575934 C793.572432,223.467549 794.36786,224.534358 797.212685,225.395292 C803.29537,227.210739 810.388716,221.698891 816.901868,222.400739 Z" id="Path" fill="#3F3D56" fill-rule="nonzero"></path>
        <path d="M905.587412,299.997082 C907.788345,301.996674 909.501129,304.474607 910.59393,307.240156 C911.481468,309.884164 912.188067,312.585501 912.708833,315.325447 C913.990875,320.58463 916.105778,325.619222 917.238093,330.897121 C919.16606,339.915016 918.183103,349.312083 914.4307,357.735798 C913.101868,360.674202 911.436148,363.500311 910.743658,366.653949 C910.481634,367.861128 910.359981,369.115097 910.013735,370.30356 C909.441718,371.962201 908.64849,373.536065 907.655525,374.982549 L892.308444,399.678249 C891.11725,396.763315 888.73157,394.500327 885.75786,393.464553 C882.80448,392.467905 879.638662,392.27731 876.587043,392.912432 C877.728716,391.1157 878.234047,389.103735 879.394436,387.297646 C880.031902,386.338555 880.616099,385.345107 881.144377,384.321809 C881.667169,383.211373 882.123397,382.070802 882.510642,380.906148 L884.522607,375.225856 C886.880817,368.591051 889.201595,361.956245 891.269708,355.218502 C892.515474,351.294496 893.503288,347.293222 894.226829,343.240292 C894.45258,342.209787 894.477996,341.145476 894.301693,340.10537 C893.988184,339.079157 893.5076,338.111665 892.87928,337.241829 C890.646939,333.453922 888.710324,329.499347 887.086693,325.413346 C885.870156,322.559163 884.644261,319.349377 885.739144,316.448405 C886.435508,314.912557 887.464788,313.550839 888.752412,312.461907 C893.854041,307.658987 899.504809,303.475095 905.587412,299.997082 L905.587412,299.997082 Z" id="Path" fill="#3C354C" fill-rule="nonzero"></path>
        <path d="M827.598035,616.184397 L828.720992,613.872977 C826.568658,603.485623 827.635467,592.667802 828.720992,582.055856 L831.724903,552.933833 C832.20216,548.254844 832.6607,543.575856 832.117938,538.953016 C831.416089,533.33823 829.207607,527.723444 830.58323,522.211595 C830.966907,520.695603 831.603249,519.273191 832.024358,517.766556 C832.527037,515.646794 832.796896,513.478506 832.829144,511.300195 L834.036323,488.401226 C834.23284,484.732899 834.551012,480.765117 836.048288,477.489825 L836.048288,476.86284 L832.192802,443.679455 L822.011323,616.184397 L827.598035,616.184397 Z" id="Path" fill="#000000" fill-rule="nonzero" opacity="0.1"></path>
    </g>
</svg>