<?xml version="1.0" encoding="UTF-8"?>
<svg width="962px" height="752px" viewBox="0 0 962 752" version="1.1" xmlns="http://www.w3.org/2000/svg" xmlns:xlink="http://www.w3.org/1999/xlink">
    <!-- Generator: Sketch 63.1 (92452) - https://sketch.com -->
    <title>Artboard Copy 6</title>
    <desc>Created with Sketch.</desc>
    <g id="Artboard-Copy-6" stroke="none" stroke-width="1" fill="none" fill-rule="evenodd">
        <g id="undraw_our_solution_htvp" transform="translate(34.000000, 53.000000)" fill-rule="nonzero">
            <ellipse id="Oval" fill="#ECC1AF" cx="447.06693" cy="600.86506" rx="447.06693" ry="28.06139"></ellipse>
            <rect id="Rectangle" fill="#3897A7" x="187" y="0" width="520" height="354" rx="10"></rect>
            <polygon id="Path" fill="#2F2E41" points="73.4823906 237.875856 98.9823906 242.571893 107.482391 197.963082 86.9409247 188.571893"></polygon>
            <ellipse id="Oval" fill="#A0616A" cx="107.482391" cy="204.571893" rx="21" ry="24"></ellipse>
            <path d="M98.1238846,218.571893 C98.1238846,218.571893 100.220924,248.010435 84.1436685,250.334538 C68.0664129,252.658641 98.1238846,305.338134 105.81303,304.563433 C113.502175,303.788732 127.482391,247.235769 127.482391,247.235769 C127.482391,247.235769 109.308103,233.291195 115.599206,220.896014 L98.1238846,218.571893 Z" id="Path" fill="#A0616A"></path>
            <path d="M70.66143,323.25967 C70.66143,323.25967 74.19043,348.84513 84.77755,348.84513 C95.36467,348.84513 77.71949,319.73064 77.71949,319.73064 L70.66143,323.25967 Z" id="Path" fill="#A0616A"></path>
            <path d="M68.1014617,422.571893 L54.9824161,477.743863 L40.4823906,544.571893 L54.2919066,544.571893 C54.2919066,544.571893 59.125238,523.590998 68.1014304,512.712019 C68.1014304,512.712019 77.077615,495.616477 77.077615,483.960425 L98.4823906,427.234311 L68.1014617,422.571893 Z" id="Path" fill="#A0616A"></path>
            <path d="M124.482391,425.595986 L128.668435,477.258638 C128.668435,477.258638 127.970766,514.270686 128.668435,522.752614 C129.366103,531.234541 128.668435,543.571893 128.668435,543.571893 L141.226582,543.571893 C141.226582,543.571893 153.087045,498.077918 149.59867,473.403213 L154.482391,415.571893 L124.482391,425.595986 Z" id="Path" fill="#A0616A"></path>
            <path d="M107.934978,283.10003 C107.934978,283.10003 89.1141308,266.527881 93.9839082,243.379407 C93.9839082,243.379407 75.1025445,244.291949 67.4183577,252.829728 C59.7341708,261.367506 69.5140436,290.08548 69.5140436,290.08548 C69.5140436,290.08548 86.2795386,321.131946 83.4852881,335.102864 C80.6910376,349.073782 50.6528547,422.809132 60.4327275,427.466099 C70.2126002,432.123066 129.590409,448.422467 159.628592,421.256804 C159.628592,421.256804 167.312779,344.416798 136.576032,319.579627 L136.576032,300.175622 C136.576032,300.175622 142.164532,294.742491 139.370258,280.771581 C139.370258,280.771581 151.245825,256.710548 144.260195,252.053599 C137.274564,247.396649 121.228062,240.571893 121.228062,240.571893 C121.228062,240.571893 122.604787,275.338415 107.934978,283.10003 Z" id="Path" fill="#303D4D"></path>
            <path d="M71.285216,252.618662 C71.285216,252.618662 62.4049332,251.07237 53.5246581,265.762102 C44.644383,280.451834 21.4190369,303.646138 32.3485902,315.243294 C43.2781434,326.84045 72.6514015,334.571893 72.6514015,334.571893 L79.4823906,320.655299 L50.1091558,304.419284 L74.7007029,283.544409 L71.285216,252.618662 Z" id="Path" fill="#303D4D"></path>
            <path d="M56.1576238,542.571893 L37.11578,542.571893 L33.0353794,580.555873 C33.0353794,580.555873 22.1543446,600.710636 38.4759084,598.38508 C54.7974723,596.059523 49.3569664,575.129591 49.3569664,575.129591 L53.4373593,567.377753 L54.7974954,583.656606 L56.1576238,582.881421 L56.1576238,565.052205 C56.1576238,565.052205 63.6383492,557.300376 56.1576238,542.571893 Z" id="Path" fill="#2F2E41"></path>
            <path d="M144.482391,542.133241 L126.141706,540.571893 L122.614656,584.290484 C122.614656,584.290484 120.498417,600.684965 133.195821,598.34289 C145.893225,596.000815 141.660746,582.72911 141.660746,582.72911 L141.660746,558.527722 L144.482391,542.133241 Z" id="Path" fill="#2F2E41"></path>
            <path d="M91.9725885,180.427799 C91.9725885,180.427799 81.8733668,184.136031 81.3605089,198.780655 C81.3084078,201.122865 81.5442201,203.462073 82.0615299,205.734632 C82.6301994,208.389385 82.9957845,214.101578 78.5886564,221.566218 C75.6376197,226.494555 72.9417653,231.602647 70.5139856,236.866065 L70.4823906,236.935671 L81.5741067,238.462907 L83.9325692,218.210828 C85.0760128,208.392137 87.5256256,198.812396 91.2026024,189.779787 L91.2793543,189.59124 C91.2793543,189.59124 96.1319781,199.518294 105.837226,199.518294 L102.37107,195.7002 C102.37107,195.7002 117.622176,202.572775 123.168034,202.572775 C123.168034,202.572775 127.327424,205.627229 123.168034,210.20898 C119.008644,214.79073 110.68985,225.481372 115.542481,233.881217 C120.395113,242.281061 116.235708,244.571893 116.235708,244.571893 L123.86126,239.990177 L127.327424,237.699319 L127.327424,240.753774 L145.351458,238.462907 C145.351458,238.462907 150.204082,237.699293 139.8056,224.71775 C139.8056,224.71775 137.059709,219.676593 138.261063,215.328666 C139.24821,212.024307 139.507619,208.508684 139.017872,205.072095 C136.688349,190.75671 127.548557,162.295947 91.9725885,180.427799 Z" id="Path" fill="#2F2E41"></path>
            <path d="M193.560592,347.571893 C193.560592,347.571893 213.951617,367.559763 211.232813,373.955884 C208.514009,380.352004 190.841789,366.760246 189.482391,350.769954 L193.560592,347.571893 Z" id="Path" fill="#A0616A"></path>
            <path d="M140.682415,252.571893 C140.682415,252.571893 150.326854,252.571893 154.460182,265.780527 C158.593511,278.98916 182.704615,324.053918 182.704615,324.053918 L196.482391,348.140276 L186.837921,360.571893 L159.971292,326.384843 L134.482391,278.989151 L140.682415,252.571893 Z" id="Path" fill="#303D4D"></path>
        </g>
        <path d="M712.828113,328.407918 L712.828113,384.724222 L249.421109,384.976887 L249,272.400428 C253.894222,286.82107 265.97537,289.41323 287.246051,263.978249 C339.229611,201.897432 409.891693,185.558405 464.589066,183.845895 C502.020973,182.66679 539.368658,190.396479 575.013191,205.752918 C589.81751,212.144416 648.32358,219.022529 686.934591,222.091946 C701.465514,223.237514 712.682905,235.346597 712.715817,249.922568 L712.828113,328.407918 Z" id="Path" fill="#F4F3FF" fill-rule="nonzero" opacity="0.2"></path>
        <path d="M712.828113,273.336226 L712.828113,385.257626 L249,385.257626 L249,360.926887 C262.260253,357.586089 311.857529,344.737588 335.636148,309.25214 C364.084397,266.766926 402.751556,255.593502 432.669008,254.423755 C453.172335,253.609611 473.582082,258.878152 493.065389,269.396518 C514.98177,281.225 557.233035,295.495914 589.330895,254.068152 C624.835058,208.260856 679.373346,246.010934 693.204436,259.888813 C698.145447,264.792393 712.828113,273.336226 712.828113,273.336226 Z" id="Path" fill="#E1E0E9" fill-rule="nonzero" opacity="0.2"></path>
        <circle id="Oval" fill="#AFC0A5" fill-rule="nonzero" cx="307.131751" cy="242.146089" r="10.40607"></circle>
        <circle id="Oval" fill="#AFC0A5" fill-rule="nonzero" cx="363.429339" cy="206.660642" r="10.40607"></circle>
        <circle id="Oval" fill="#AFC0A5" fill-rule="nonzero" cx="419.726926" cy="189.526187" r="10.40607"></circle>
        <circle id="Oval" fill="#AFC0A5" fill-rule="nonzero" cx="476.015156" cy="183.40607" r="10.40607"></circle>
        <circle id="Oval" fill="#AFC0A5" fill-rule="nonzero" cx="532.312743" cy="189.526187" r="10.40607"></circle>
        <circle id="Oval" fill="#AFC0A5" fill-rule="nonzero" cx="588.610331" cy="212.771401" r="10.40607"></circle>
        <circle id="Oval" fill="#AFC0A5" fill-rule="nonzero" cx="644.907918" cy="225.011634" r="10.40607"></circle>
        <text id="Date-My-Mate" font-family="Pacifico-Regular, Pacifico" font-size="70" font-weight="normal" fill="#FFFFFF">
            <tspan x="264.9375" y="127">Date My Mate</tspan>
        </text>
        <g id="heart-icon-transparent-background-1-copy-16" transform="translate(598.000000, 533.000000)" fill="#AFC0A5" fill-rule="nonzero" stroke="#AFC0A5">
            <g id="Group" transform="translate(23.000000, 13.000000) scale(-1, 1) rotate(-180.000000) translate(-23.000000, -13.000000) ">
                <path d="M37.9955325,25.9116963 C37.7915738,25.86638 37.2088347,25.6397986 36.698938,25.3981118 C35.5625968,24.8694218 33.9454958,23.2229302 33.187935,21.8332309 C32.911134,21.3045409 32.6489014,20.881589 32.6051959,20.881589 C32.5614905,20.881589 32.4012373,21.0930649 32.2555525,21.3498572 C31.8330666,22.0900232 30.5364722,23.3588791 29.6040896,23.9328853 C28.4968854,24.627735 26.9817637,25.1111087 25.9036964,25.1111087 C24.7527867,25.1111087 23.3105075,24.627735 22.6257891,24.0084125 L22.04305,23.4948279 L21.5331533,23.9177799 C20.1928534,25.0355815 17.8181916,25.0960032 15.8660157,24.0688342 C14.8899277,23.5401442 13.6953126,22.2712883 13.0542996,21.0628541 L12.456992,19.9450525 L12.2384648,20.3680044 C11.8014105,21.2441192 10.5193845,22.7395565 9.70354982,23.2984574 C8.37781839,24.204783 7.38716195,24.5371024 5.94488271,24.5522078 C1.00616894,24.5824187 -1.20823959,20.3377936 0.656525492,14.3862551 C1.50149717,11.697489 3.55565245,8.02687012 5.63894469,5.51936915 C7.40173042,3.4046093 10.3008574,1.24453316 12.5881083,0.338207507 C13.7244495,-0.0998498918 14.991907,-0.114955319 15.8077418,0.307996652 C16.1865222,0.519472637 17.7307807,2.07533167 20.0617371,4.59793807 C22.0721869,6.78822507 23.8204042,8.63108722 23.936952,8.72171979 C24.0972053,8.82745778 24.3303009,8.67640351 24.91304,8.10239726 C26.2970453,6.6975925 28.6425701,5.14173346 30.4199244,4.41667294 C30.8424102,4.23540781 31.294033,3.96351012 31.4105808,3.79735041 C31.7310873,3.32908216 32.3138264,3.44992558 33.7269687,4.32604038 C38.9424835,7.51328559 43.2693212,11.6672782 44.9446961,15.0659994 C45.9353525,17.0599158 46.255859,19.3106245 45.7896678,20.9571161 C45.1486548,23.2984574 43.5315538,25.0657924 41.4482616,25.7455366 C40.6324269,26.0023289 38.927915,26.077856 37.9955325,25.9116963 Z M40.6323278,23.6915677 C41.471919,23.3113487 42.3983645,22.2923617 42.7457815,21.3494185 C43.2669071,19.8741686 42.9773929,17.7145245 41.9640932,15.6005067 C40.473095,12.4979194 35.8553434,8.04175228 31.3533975,5.34980151 L30.7743691,5 L28.6753911,6.52087614 C25.881579,8.57405892 25.0564635,9.31928823 23.883931,10.733703 C21.7270502,13.34961 20.5255662,17.4103493 21.1769732,19.8741686 C21.5533416,21.2733747 22.7403499,22.4140318 24.332678,22.9007121 C27.0975387,23.7524028 29.4715552,22.2771529 30.7164663,18.9312254 C31.4402518,16.9997127 31.4113004,17.045339 32.077183,17.0909653 L32.6706872,17.1365916 L32.7864928,18.1859961 C32.9746771,20.0718825 33.9300739,21.7144288 35.377645,22.7334158 C36.1014305,23.2353049 37.4621473,23.8132378 38.2438356,23.9653254 C38.8083883,24.0717868 40.0967265,23.9196992 40.6323278,23.6915677 Z M19.7890959,23.7709371 C20.7953678,23.46552 21.3210323,23.0532069 21.0657095,22.7477897 C20.9755956,22.6256229 20.7052539,22.0453303 20.4949881,21.4650378 C20.1345325,20.5487864 20.0894756,20.1822858 20.0744566,18.5788458 C20.0444186,15.677383 20.675216,14.0128596 22.9581015,10.8670631 C23.1233103,10.6227294 22.8830066,10.3325831 20.7052539,8.14885059 C17.851647,5.29320036 16.5299764,4.19369867 15.1782679,3.50651011 C13.2408189,2.54444613 11.5586927,2.92621755 9.15565533,4.88088723 C6.07676364,7.35476604 2.23190378,13.2645876 1.27068881,16.9754059 C1.12049897,17.5251567 1.0003471,18.4872207 1.0003471,19.1133258 C0.970309132,21.8773509 2.89273907,23.6945829 5.65623209,23.5113326 C8.26953529,23.3433532 10.402231,21.3428709 11.348427,18.1970744 C11.8140155,16.6241761 11.9792243,16.3645716 12.4598318,16.3645716 C13.0756101,16.3645716 13.3759898,16.7310721 13.3759898,17.4793441 C13.3910088,19.4492847 14.6526034,21.9078926 16.2295967,23.0073943 C16.875413,23.46552 18.1970836,23.9847291 18.722748,24 C18.8879569,24 19.3685644,23.893104 19.7890959,23.7709371 Z" id="Shape"></path>
            </g>
        </g>
        <g id="love-talk-svgrepo-com-copy-10" transform="translate(570.000000, 492.000000) scale(-1, 1) translate(-570.000000, -492.000000) translate(541.000000, 463.000000)" fill="#AFC0A5" fill-rule="nonzero" stroke="#AFC0A5">
            <path d="M53.1725367,0 L11.4269785,0 C8.76514634,0 6.59966849,2.21592027 6.59966849,4.93928645 L6.59966849,43.5693112 L0.130052476,56.2805487 C-0.0873994429,56.7075497 -0.0284008601,57.2269134 0.278851499,57.5916597 C0.501207197,57.8557323 0.821025488,58 1.14957863,58 C1.27477822,58 1.401357,57.9788303 1.5241047,57.9357068 L16.6531802,52.5970184 L53.17269,52.5970184 C55.8345221,52.5970184 58,50.3810981 58,47.6574183 L58,4.93928645 C58,2.21592027 55.8343689,0 53.1725367,0 Z M55.7012007,47.6575751 C55.7012007,49.0842571 54.5668955,50.2449847 53.1725367,50.2449847 L16.4604005,50.2449847 C16.3329022,50.2449847 16.2063234,50.2667817 16.0857211,50.3092779 L3.50063385,54.7502136 L8.76836445,44.4005753 C8.85372084,44.2327858 8.89831457,44.0464923 8.89831457,43.8572193 L8.89831457,4.93928645 C8.89831457,3.5126045 10.0326198,2.35219051 11.4269785,2.35219051 L53.1725367,2.35219051 C54.5668955,2.35219051 55.7012007,3.5126045 55.7012007,4.93928645 L55.7012007,47.6575751 L55.7012007,47.6575751 Z" id="Shape" stroke-width="1.5"></path>
            <path d="M43.4299022,23.0310155 C42.754152,23.0310155 42.1016336,23.1448082 41.4818581,23.3627158 C42.3403446,18.8337965 40.3190188,15.016511 37.2160873,13.1644524 C34.2678268,11.4044895 29.9560602,11.3895044 26.8319237,15.090968 C24.7415261,12.6315466 21.8961718,11.5507498 18.9659978,12.1721611 C15.3926606,12.9312476 12.6300988,16.0309677 12.0920245,19.8854036 C11.6618457,22.9663924 12.1838605,30.9393758 26.2873009,38.4133258 C26.4584992,38.5038605 26.6463809,38.5492839 26.8344184,38.5492839 C27.0223001,38.5492839 27.2103376,38.5038605 27.381536,38.4133258 C28.4222911,37.8618447 29.4186095,37.2896031 30.3573941,36.7062788 C32.1556006,38.9421732 34.8258587,41.0091736 38.3259143,42.8640419 C38.4971127,42.9545766 38.6849943,43 38.8730319,43 C39.0610694,43 39.2489511,42.9545766 39.4201494,42.8640419 C43.5699169,40.6646735 46.5584043,38.1684139 48.3026632,35.4444127 C50.2388575,32.4200861 50.1719685,29.8768421 49.7748444,28.2759392 C49.0208232,25.2367837 46.3525921,23.0310155 43.4299022,23.0310155 Z M14.4083479,20.2094554 C14.8107732,17.3274868 16.8374002,15.0177598 19.4515276,14.4626885 C21.9084893,13.9407093 24.2380657,15.1196893 25.8418421,17.6974302 C26.0552943,18.0403693 26.4305899,18.2492234 26.8344184,18.2492234 C27.238247,18.2492234 27.6135425,18.0406815 27.8269948,17.6974302 C30.3085916,13.708441 33.7904048,13.84596 36.0184783,15.1755711 C38.744867,16.80301 40.3152768,20.5246097 38.6118686,24.8499821 C37.4011624,23.6661631 35.9232122,23.0311716 34.3160056,23.0311716 C31.3931598,23.0311716 28.7246169,25.237252 27.9705956,28.2762514 C27.6034079,29.7563373 27.5198356,32.0420258 29.0392601,34.7682123 C28.336536,35.2029349 27.6006013,35.6318819 26.8341066,36.0499024 C14.5708148,29.3682869 14.0516066,22.7642504 14.4083479,20.2094554 Z M38.8730319,40.4992136 C29.4758316,35.3234396 29.8827785,30.2829994 30.2406112,28.8403761 C30.7389263,26.8309745 32.452937,25.3724296 34.3161615,25.3724296 C35.6949477,25.3724296 36.9608489,26.1867734 37.8804555,27.6651423 C38.0939078,28.0083936 38.4692033,28.2169356 38.8730319,28.2169356 C39.2768604,28.2169356 39.652156,28.0083936 39.8656082,27.6651423 C40.7853707,26.1867734 42.051272,25.3724296 43.4299022,25.3724296 C45.292659,25.3724296 47.0063578,26.8309745 47.5048288,28.8403761 C47.8626615,30.2829994 48.2696085,35.3237518 38.8730319,40.4992136 Z" id="Shape"></path>
        </g>
        <g id="love-talk-svgrepo-com-copy-11" transform="translate(369.000000, 427.000000)" fill="#AFC0A5" fill-rule="nonzero" stroke="#AFC0A5">
            <path d="M53.1725367,0 L11.4269785,0 C8.76514634,0 6.59966849,2.21592027 6.59966849,4.93928645 L6.59966849,43.5693112 L0.130052476,56.2805487 C-0.0873994429,56.7075497 -0.0284008601,57.2269134 0.278851499,57.5916597 C0.501207197,57.8557323 0.821025488,58 1.14957863,58 C1.27477822,58 1.401357,57.9788303 1.5241047,57.9357068 L16.6531802,52.5970184 L53.17269,52.5970184 C55.8345221,52.5970184 58,50.3810981 58,47.6574183 L58,4.93928645 C58,2.21592027 55.8343689,0 53.1725367,0 Z M55.7012007,47.6575751 C55.7012007,49.0842571 54.5668955,50.2449847 53.1725367,50.2449847 L16.4604005,50.2449847 C16.3329022,50.2449847 16.2063234,50.2667817 16.0857211,50.3092779 L3.50063385,54.7502136 L8.76836445,44.4005753 C8.85372084,44.2327858 8.89831457,44.0464923 8.89831457,43.8572193 L8.89831457,4.93928645 C8.89831457,3.5126045 10.0326198,2.35219051 11.4269785,2.35219051 L53.1725367,2.35219051 C54.5668955,2.35219051 55.7012007,3.5126045 55.7012007,4.93928645 L55.7012007,47.6575751 L55.7012007,47.6575751 Z" id="Shape" stroke-width="1.5"></path>
            <path d="M43.4299022,23.0310155 C42.754152,23.0310155 42.1016336,23.1448082 41.4818581,23.3627158 C42.3403446,18.8337965 40.3190188,15.016511 37.2160873,13.1644524 C34.2678268,11.4044895 29.9560602,11.3895044 26.8319237,15.090968 C24.7415261,12.6315466 21.8961718,11.5507498 18.9659978,12.1721611 C15.3926606,12.9312476 12.6300988,16.0309677 12.0920245,19.8854036 C11.6618457,22.9663924 12.1838605,30.9393758 26.2873009,38.4133258 C26.4584992,38.5038605 26.6463809,38.5492839 26.8344184,38.5492839 C27.0223001,38.5492839 27.2103376,38.5038605 27.381536,38.4133258 C28.4222911,37.8618447 29.4186095,37.2896031 30.3573941,36.7062788 C32.1556006,38.9421732 34.8258587,41.0091736 38.3259143,42.8640419 C38.4971127,42.9545766 38.6849943,43 38.8730319,43 C39.0610694,43 39.2489511,42.9545766 39.4201494,42.8640419 C43.5699169,40.6646735 46.5584043,38.1684139 48.3026632,35.4444127 C50.2388575,32.4200861 50.1719685,29.8768421 49.7748444,28.2759392 C49.0208232,25.2367837 46.3525921,23.0310155 43.4299022,23.0310155 Z M14.4083479,20.2094554 C14.8107732,17.3274868 16.8374002,15.0177598 19.4515276,14.4626885 C21.9084893,13.9407093 24.2380657,15.1196893 25.8418421,17.6974302 C26.0552943,18.0403693 26.4305899,18.2492234 26.8344184,18.2492234 C27.238247,18.2492234 27.6135425,18.0406815 27.8269948,17.6974302 C30.3085916,13.708441 33.7904048,13.84596 36.0184783,15.1755711 C38.744867,16.80301 40.3152768,20.5246097 38.6118686,24.8499821 C37.4011624,23.6661631 35.9232122,23.0311716 34.3160056,23.0311716 C31.3931598,23.0311716 28.7246169,25.237252 27.9705956,28.2762514 C27.6034079,29.7563373 27.5198356,32.0420258 29.0392601,34.7682123 C28.336536,35.2029349 27.6006013,35.6318819 26.8341066,36.0499024 C14.5708148,29.3682869 14.0516066,22.7642504 14.4083479,20.2094554 Z M38.8730319,40.4992136 C29.4758316,35.3234396 29.8827785,30.2829994 30.2406112,28.8403761 C30.7389263,26.8309745 32.452937,25.3724296 34.3161615,25.3724296 C35.6949477,25.3724296 36.9608489,26.1867734 37.8804555,27.6651423 C38.0939078,28.0083936 38.4692033,28.2169356 38.8730319,28.2169356 C39.2768604,28.2169356 39.652156,28.0083936 39.8656082,27.6651423 C40.7853707,26.1867734 42.051272,25.3724296 43.4299022,25.3724296 C45.292659,25.3724296 47.0063578,26.8309745 47.5048288,28.8403761 C47.8626615,30.2829994 48.2696085,35.3237518 38.8730319,40.4992136 Z" id="Shape"></path>
        </g>
        <g id="heart-icon-transparent-background-1-copy-17" transform="translate(326.000000, 485.000000)" fill="#AFC0A5" fill-rule="nonzero" stroke="#AFC0A5">
            <g id="Group" transform="translate(22.000000, 12.500000) scale(-1, 1) rotate(-180.000000) translate(-22.000000, -12.500000) ">
                <path d="M36.254939,24.1234975 C36.0605302,24.0819048 35.5050766,23.8739411 35.0190546,23.6521131 C33.93592,23.1668644 32.3945362,21.6556615 31.6724464,20.3801507 C31.4086059,19.8949021 31.1586518,19.5067032 31.1169928,19.5067032 C31.0753338,19.5067032 30.922584,19.7008026 30.7837206,19.9364948 C30.3810167,20.6158429 29.1451323,21.7804397 28.2564065,22.3072811 C27.2010446,22.9450365 25.7568651,23.3886924 24.7292759,23.3886924 C23.6322549,23.3886924 22.2575071,22.9450365 21.6048491,22.3766023 L21.0493955,21.9052179 L20.5633735,22.2934169 C19.2858301,23.3193712 17.0223565,23.3748281 15.1615868,22.4320593 C14.231202,21.9468107 13.092522,20.7822139 12.481523,19.6730741 L11.912183,18.6471198 L11.7038879,19.0353187 C11.2872977,19.8394451 10.0652996,21.2120056 9.28766454,21.7249827 C8.0240075,22.5568376 7.0797363,22.861851 5.70498853,22.8757152 C0.997518893,22.9034437 -1.11320496,19.0075902 0.664246706,13.5450768 C1.46965449,11.0772408 3.42762859,7.7082287 5.41337537,5.40676364 C7.09362264,3.46576902 9.85700453,1.48318166 12.0371601,0.65132682 C13.1202947,0.249263648 14.3284064,0.235399401 15.1060415,0.623598325 C15.4670863,0.817697788 16.9390385,2.24571526 19.1608531,4.56104456 C21.0771682,6.57136042 22.7435291,8.26279859 22.8546198,8.34598407 C23.0073696,8.4430338 23.229551,8.30439133 23.7850047,7.77754993 C25.1042071,6.48817493 27.339908,5.06015746 29.0340416,4.39467359 C29.4367455,4.22830262 29.8672221,3.97874617 29.9783128,3.82623945 C30.2838123,3.39644779 30.839266,3.50736176 32.186241,4.31148811 C37.1575512,7.23684429 41.2817945,11.0495123 42.8787237,14.1689679 C43.8229949,15.9990486 44.1284944,18.0648214 43.6841315,19.5760244 C43.0731325,21.7249827 41.5317486,23.3470997 39.5460018,23.9709908 C38.7683667,24.206683 37.1436648,24.2760042 36.254939,24.1234975 Z M39.3417081,21.6551146 C40.1343291,21.314009 41.0089455,20.399846 41.3369266,19.5539041 C41.8288983,18.2304144 41.5555807,16.2929347 40.5989691,14.3963876 C39.1913834,11.6129659 34.8319676,7.61520838 30.5818788,5.20018078 L30.0352436,4.88636364 L28.0536909,6.25078601 C25.416176,8.09275621 24.6372208,8.76132317 23.5302845,10.030236 C21.4940683,12.3770425 20.3598003,16.0200502 20.9747649,18.2304144 C21.3300778,19.485683 22.45068,20.5089998 23.9539268,20.945615 C26.5641099,21.7096915 28.8053143,20.3862018 29.98058,17.3844726 C30.6638741,15.6516562 30.6365423,15.6925888 31.2651728,15.7335215 L31.8254739,15.7744542 L31.9348009,16.7159056 C32.1124574,18.4077893 33.0144055,19.8813655 34.3809935,20.7955285 C35.0642875,21.2457879 36.3488803,21.7642684 37.0868378,21.9007106 C37.6198072,21.9962202 38.8360705,21.8597779 39.3417081,21.6551146 Z M18.9302654,21.7211002 C19.8802423,21.4401429 20.376499,21.0608505 20.13546,20.7798932 C20.0503875,20.6675102 19.7951698,20.1336913 19.5966671,19.5998724 C19.2563769,18.7570004 19.2138406,18.4198516 19.1996618,16.9448257 C19.1713043,14.2757311 19.7668123,12.7445137 21.9219839,9.8506533 C22.0779503,9.62588744 21.8510901,9.35897798 19.7951698,7.35013312 C17.1012052,4.72318215 15.8534742,3.71173579 14.5773857,3.07958181 C12.7483256,2.19456625 11.1603043,2.5457629 8.89170259,4.34388977 C5.98505659,6.61964408 2.35529377,12.0561683 1.44785307,15.4697998 C1.30606546,15.9755229 1.19263537,16.8605385 1.19263537,17.436501 C1.16427785,19.9791648 2.97915926,21.6508609 5.58805128,21.4822865 C8.05515569,21.3277599 10.0685397,19.4874895 10.9618017,16.593629 C11.4013433,15.1466988 11.5573097,14.9078851 12.01103,14.9078851 C12.5923592,14.9078851 12.8759344,15.2450339 12.8759344,15.9333793 C12.8901132,17.7455541 14.0811291,20.0072605 15.569899,21.0187069 C16.1795857,21.4401429 17.4273167,21.9177703 17.9235733,21.9318182 C18.0795397,21.9318182 18.5332601,21.8334831 18.9302654,21.7211002 Z" id="Shape"></path>
            </g>
        </g>
        <line x1="307.440564" y1="383.498327" x2="307.440564" y2="243.980253" id="Path" stroke="#6C63FF"></line>
        <line x1="363.738152" y1="383.498327" x2="363.738152" y2="206.660642" id="Path" stroke="#6C63FF"></line>
        <line x1="420.035739" y1="383.498327" x2="420.035739" y2="188.90856" id="Path" stroke="#6C63FF"></line>
        <line x1="476.333327" y1="383.498327" x2="476.333327" y2="183.40607" id="Path" stroke="#6C63FF"></line>
        <line x1="532.630914" y1="383.498327" x2="532.630914" y2="189.526187" id="Path" stroke="#6C63FF"></line>
        <line x1="588.928502" y1="383.498327" x2="588.928502" y2="212.163132" id="Path" stroke="#6C63FF"></line>
        <line x1="645.226089" y1="383.498327" x2="645.226089" y2="223.785739" id="Path" stroke="#6C63FF"></line>
        <g id="heart-icon-transparent-background-1-copy-18" transform="translate(614.000000, 152.000000)" fill="#FFFFFF" fill-rule="nonzero" stroke="#FFFFFF">
            <g id="Group" transform="translate(37.500000, 21.000000) scale(-1, 1) rotate(-180.000000) translate(-37.500000, -21.000000) translate(0.000000, -0.000000)">
                <path d="M61.8359524,41.6859123 C61.5055217,41.6132163 60.5614338,41.2497362 59.7353569,40.862024 C57.8943855,40.0139037 55.2745417,37.3726146 54.0472274,35.1432697 C53.5987857,34.2951494 53.1739461,33.6166531 53.1031395,33.6166531 C53.032333,33.6166531 52.7727088,33.9559012 52.5366868,34.3678454 C51.8522231,35.5552139 49.7516276,37.5907027 48.241087,38.5115191 C46.44732,39.6261915 43.9926915,40.4016158 42.2461289,40.4016158 C40.3815554,40.4016158 38.0449379,39.6261915 36.9356346,38.6326791 L35.9915468,37.8087908 L35.1654699,38.4872871 C32.9940677,40.2804558 29.1469096,40.3773838 25.9842152,38.7296071 C24.4028681,37.8814868 22.4674879,35.845998 21.4289912,33.9074372 L20.4613012,32.1142685 L20.1072682,32.7927648 C19.3992023,34.1982213 17.322209,36.5971903 16.0004859,37.4937747 C13.852686,38.9476952 12.2477366,39.4807994 9.91111912,39.5050315 C1.90997436,39.5534955 -1.67755958,32.7443008 1.34352163,23.196889 C2.71244905,18.8835912 6.04035882,12.9952129 9.41547299,8.97269928 C12.2713388,5.58021793 16.968176,2.11504054 20.6737209,0.661119964 C22.5146923,-0.0416083163 24.5680834,-0.0658403259 25.8898065,0.612655945 C26.5034636,0.95190408 29.0052965,3.44780108 32.781648,7.49454669 C36.0387511,11.0081881 38.8710148,13.9644933 39.0598324,14.1098853 C39.3194565,14.2795094 39.6970917,14.0371893 40.6411796,13.1163729 C42.8833883,10.862796 46.683342,8.36689904 49.56281,7.20376257 C50.2472737,6.91297846 50.9789418,6.47680228 51.1677594,6.21025018 C51.6870077,5.45905788 52.6310956,5.65291396 54.9205087,7.05837052 C63.3700952,12.1713246 70.3799477,18.8351272 73.0942004,24.2873294 C74.6991498,27.4859547 75.2183981,31.0965241 74.4631278,33.7378132 C73.4246311,37.4937747 70.8047873,40.3289198 67.4296731,41.4193602 C66.1079501,41.8313044 63.346493,41.9524644 61.8359524,41.6859123 Z M67.0824411,37.3716587 C68.4296353,36.7754725 69.9161945,35.1776932 70.4736542,33.6991513 C71.3098437,31.3859485 70.8452939,27.9996104 69.2193699,24.6848147 C66.8269388,19.8199347 59.4173706,12.8326315 52.1936223,8.61163259 L51.2645229,8.06314121 L47.8965373,10.4478863 C43.4136325,13.6672922 42.0896657,14.8358174 40.2082393,17.0536303 C36.7473439,21.1553919 34.8194625,27.5226614 35.8646994,31.3859485 C36.468614,33.579914 38.3732679,35.3684728 40.9282914,36.1315913 C45.3647413,37.4670486 49.1740491,35.1538458 51.1716129,29.9074065 C52.3329873,26.8787802 52.2865323,26.9503226 53.3549967,27.0218649 L54.3073236,27.0934073 L54.4931435,28.7388814 C54.7951008,31.6959654 56.3281149,34.2714901 58.6508636,35.8692693 C59.8122379,36.6562352 61.9956216,37.5624384 63.2499059,37.8009129 C64.1557778,37.967845 66.2230241,37.7293705 67.0824411,37.3716587 Z M32.389725,37.4869887 C34.0043723,36.99593 34.8478448,36.3330006 34.4381582,35.8419418 C34.2935629,35.6455183 33.859777,34.7125066 33.522388,33.7794949 C32.9440069,32.3063185 32.8717092,31.7170479 32.84761,29.1389892 C32.7994116,24.4739307 33.8115786,21.7976603 37.4746592,16.7397547 C37.7397505,16.3469077 37.3541631,15.8804018 33.859777,12.3693314 C29.2809263,7.77793169 27.1601955,6.01012003 24.9912662,4.90523774 C21.8824676,3.35840254 19.1833556,3.97222603 15.3274813,7.11500232 C10.3871424,11.0925786 4.21774354,20.5945662 2.67539383,26.5609306 C2.43440169,27.4448364 2.24160798,28.9916716 2.24160798,29.9983421 C2.19340955,34.4424242 5.27810897,37.364224 9.71236438,37.0695888 C13.9056277,36.7995064 17.3277161,33.5830713 18.8459666,28.5251658 C19.5930422,25.996213 19.8581336,25.578813 20.6293084,25.578813 C21.6173762,25.578813 22.0993605,26.1680835 22.0993605,27.3711776 C22.1234597,30.5385068 24.1477937,34.4915301 26.6782112,36.2593418 C27.7144774,36.99593 29.8352082,37.8307299 30.6786807,37.8552828 C30.9437721,37.8552828 31.714947,37.6834123 32.389725,37.4869887 Z" id="Shape"></path>
            </g>
        </g>
        <path d="M712.981537,302.673463 C712.645179,301.573781 712.407175,300.446393 712.270331,299.304591 C711.662062,295.945078 710.108638,292.847588 708.583288,289.787529 C708.340651,289.160733 707.921291,288.617841 707.376109,288.224747 C706.32273,287.756122 705.085086,288.1354 704.475136,289.113755 C703.92136,290.089968 703.701225,291.220211 703.848152,292.332899 C703.932374,293.568152 704.119533,294.981206 703.249241,295.851498 C702.887339,296.172832 702.45438,296.403743 701.985914,296.525272 C699.178521,297.41428 696.062315,296.618852 693.414008,295.299377 C690.7657,293.979903 688.40749,292.127023 685.796615,290.732685 C684.41555,290.008807 682.993898,289.365158 681.538735,288.804942 C680.032101,288.196673 677.945272,287.803638 677.103054,289.188619 C676.42928,290.29286 677.103054,291.705914 677.879767,292.763366 C679.19285,294.589009 680.719699,296.250949 682.427743,297.713735 C687.499767,302.083911 693.909981,304.516984 699.871012,307.558327 C706.549086,310.966632 712.773827,315.198199 718.399805,320.154163 C718.944985,319.507297 719.272427,318.705062 719.335603,317.861459 C719.784786,315.475175 721.759319,310.646459 719.76607,308.578346 C717.585661,306.304358 714.188716,306.15463 712.981537,302.673463 Z" id="Path" fill="#FBBEBE" fill-rule="nonzero"></path>
        <path d="M806.832685,624.017023 C811.828542,627.916245 818.15893,629.691308 824.453755,628.958035 C825.763872,628.798949 827.261148,628.331051 827.691615,627.08644 C827.848787,626.330847 827.763646,625.54493 827.448307,624.840525 C826.458597,622.485783 825.697112,620.041509 825.174319,617.541304 C824.84679,615.267315 824.931012,612.56286 823.078132,611.196595 C820.401751,609.222062 813.401984,609.325 811.661401,612.385058 C811.24965,613.040117 808.629416,625.523658 806.832685,624.017023 Z" id="Path" fill="#3C354C" fill-rule="nonzero"></path>
        <path d="M844.535973,612.974611 C844.405157,613.475669 844.498085,614.008833 844.790702,614.436089 C845.083318,614.863345 845.546856,615.142689 846.061323,615.201809 C850.358713,616.532525 854.815725,617.278508 859.312218,617.41965 L858.37642,608.417276 C858.413131,608.010041 858.269242,607.607215 857.98283,607.315399 C857.696418,607.023583 857.296352,606.872191 856.888502,606.901284 C854.3057,606.470817 848.878074,604.720875 846.39821,605.619241 C843.609533,606.629903 844.592121,610.288872 844.535973,612.974611 Z" id="Path" fill="#3C354C" fill-rule="nonzero"></path>
        <path d="M818.399144,253.899689 C819.125242,255.788975 819.484144,257.799465 819.456595,259.823288 C819.690545,267.07572 818.445934,274.908346 813.392626,280.111381 C819.06356,278.417588 825.436342,279.437607 830.789105,276.910953 C833.268969,275.741206 835.355798,273.878969 837.676576,272.428482 C841.812802,269.845681 846.63216,268.591712 850.936829,266.28965 C855.241498,263.987588 859.227996,260.104027 859.471304,255.237879 C857.599708,253.272704 854.595798,252.991965 852.144008,251.803502 C849.505058,250.512101 847.549241,248.153891 845.687004,245.879903 C843.48985,243.373048 841.56388,240.640932 839.941206,237.729105 C838.311131,234.795916 837.655704,231.420468 838.069611,228.090389 C833.287685,228.951323 829.815875,233.124981 825.295973,234.912354 C823.536673,235.604844 821.637004,235.923016 819.924494,236.718444 C817.482062,237.841401 812.531693,241.659455 812.438113,244.654008 C812.447471,247.919942 817.126459,251.017432 818.399144,253.899689 Z" id="Path" fill="#FBBEBE" fill-rule="nonzero"></path>
        <path d="M818.399144,253.899689 C819.125242,255.788975 819.484144,257.799465 819.456595,259.823288 C819.690545,267.07572 818.445934,274.908346 813.392626,280.111381 C819.06356,278.417588 825.436342,279.437607 830.789105,276.910953 C833.268969,275.741206 835.355798,273.878969 837.676576,272.428482 C841.812802,269.845681 846.63216,268.591712 850.936829,266.28965 C855.241498,263.987588 859.227996,260.104027 859.471304,255.237879 C857.599708,253.272704 854.595798,252.991965 852.144008,251.803502 C849.505058,250.512101 847.549241,248.153891 845.687004,245.879903 C843.48985,243.373048 841.56388,240.640932 839.941206,237.729105 C838.311131,234.795916 837.655704,231.420468 838.069611,228.090389 C833.287685,228.951323 829.815875,233.124981 825.295973,234.912354 C823.536673,235.604844 821.637004,235.923016 819.924494,236.718444 C817.482062,237.841401 812.531693,241.659455 812.438113,244.654008 C812.447471,247.919942 817.126459,251.017432 818.399144,253.899689 Z" id="Path" fill="#FBBEBE" fill-rule="nonzero" opacity="0.1"></path>
        <path d="M879.965272,442.893385 C878.196615,457.154942 876.97072,471.977977 874.640584,486.174027 C873.704786,492.116342 874.865175,498.339397 873.227529,504.141342 C872.525681,506.621206 871.355934,508.951342 870.841245,511.468638 C870.101965,515.305409 871.075195,519.226401 871.777043,523.063171 C873.498911,532.655097 873.498911,542.471615 873.470837,552.222626 C873.470837,557.472451 873.470837,562.769066 872.413385,567.925311 C871.159416,574.185798 868.464319,580.090681 866.957685,586.24823 C865.020584,594.10893 865.207743,603.017724 865.862802,611.0843 C864.103502,610.447957 862.119611,611.0843 860.453891,611.879728 C858.788171,612.675156 857.103735,613.751323 855.241498,613.872977 C852.724202,614.106926 850.356634,612.778093 848.185584,611.486693 C846.519864,610.504105 845.069377,609.615097 843.413016,608.604436 C841.794086,594.567471 840.175156,580.474358 840.240661,566.334455 C840.240661,558.118152 840.886362,549.883132 840.240661,541.685545 C839.594961,533.487957 837.714008,525.552393 838.097685,517.448385 C838.275486,513.761342 838.902471,510.130447 839.32358,506.471479 C840.70856,494.62428 840.521401,483.263696 839.688541,471.369708 C838.874397,471.575584 838.546868,472.8857 838.846323,473.662412 C837.657713,474.739304 836.70228,476.048247 836.03893,477.508541 C834.541654,480.783833 834.223482,484.751615 834.026965,488.419942 L832.819786,511.318911 C832.787538,513.497222 832.517679,515.66551 832.015,517.785272 C831.593891,519.291907 830.957549,520.714319 830.573872,522.230311 C829.198249,527.714086 831.406732,533.366304 832.10858,538.971732 C832.679416,543.65072 832.192802,548.329708 831.715545,552.952549 L828.711634,582.074572 C827.616751,592.667802 826.549942,603.485623 828.711634,613.891693 C828.852004,614.537393 828.992374,615.192451 829.160817,615.84751 C828.64428,615.997092 828.119307,616.115836 827.588677,616.203113 C825.726238,616.464934 823.83633,616.464934 821.973891,616.203113 C820.233307,616.025311 818.474008,615.725856 816.75214,615.519981 C812.615914,615.052082 808.489047,614.87428 805.74716,617.999844 C801.573502,599.078016 797.381128,579.866089 798.494728,560.523152 C798.887763,553.710545 799.935856,546.944728 800.65642,540.160195 C801.779018,529.659781 802.116842,519.09026 801.667082,508.539591 C800.731284,485.649981 796.052296,463.013035 795.275584,440.114066 C795.116498,435.229202 795.135214,430.297549 794.161984,425.506265 C793.095175,420.312588 790.877335,415.21249 791.055136,409.943949 C791.232938,404.675409 795.079066,398.826673 800.413113,399.11677 C815.13321,399.930914 828.580623,391.808191 843.263288,390.42321 C849.926167,389.786868 856.701342,388.841712 863.298716,390.030175 C869.896089,391.218638 876.465389,394.952471 879.057549,401.128735 C880.461245,404.488249 880.573541,408.212724 880.676479,411.843619 C880.975934,422.212257 881.247315,432.608969 879.965272,442.893385 Z" id="Path" fill="#575A89" fill-rule="nonzero"></path>
        <path d="M806.018541,622.538463 C803.585467,624.035739 802.752607,627.095798 801.339553,629.575661 C798.242062,634.975214 792.159377,637.745175 787.162218,641.450934 C784.766576,643.238307 782.352218,645.942763 783.110214,648.834377 C791.756984,651.239377 801.171109,653.382354 809.509066,650.060272 C812.887296,648.712724 816.05965,646.485525 819.681187,646.37323 C822.44179,646.289008 825.295973,647.449397 827.888132,646.653969 C828.542137,646.501537 829.119837,646.119723 829.51642,645.577802 C829.820229,645.001987 829.968601,644.356891 829.946887,643.706206 C830.173042,639.288375 830.151173,634.861335 829.881381,630.445953 C829.619358,626.131926 830.199553,623.081226 825.277257,623.268385 C819.625039,623.511693 810.922121,619.515837 806.018541,622.538463 Z" id="Path" fill="#CBCEDA" fill-rule="nonzero"></path>
        <path d="M847.455661,614.864922 C846.433849,614.456422 845.353521,614.213191 844.255233,614.144358 C842.363214,614.292736 840.655874,615.335918 839.660467,616.951751 C838.693522,618.550111 837.991942,620.294582 837.582996,622.117354 C837.105152,623.450752 836.907634,624.86842 837.002802,626.281654 C837.367763,628.958035 839.735331,630.960642 840.362315,633.599591 C841.49463,638.362802 836.619125,643.500331 838.846323,647.879864 C840.259377,650.687257 843.806051,651.473327 846.903541,651.959942 C851.638677,652.70858 857.019514,653.298132 860.743988,650.275506 C862.770472,648.607235 863.93888,646.115776 863.925811,643.490973 C863.869553,640.047237 861.80144,636.987179 860.865642,633.674455 C859.564883,628.995467 861.5207,622.800486 859.452588,618.523891 C857.68393,614.864922 851.226926,616.072101 847.455661,614.864922 Z" id="Path" fill="#CBCEDA" fill-rule="nonzero"></path>
        <circle id="Oval" fill="#FBBEBE" fill-rule="nonzero" cx="819.980642" cy="226.2843" r="24.3213813"></circle>
        <path d="M832.875934,266.139922 C830.25313,265.024617 827.335987,264.804269 824.575409,265.512938 L822.357568,261.648093 C821.42177,259.944942 820.027432,258.017198 818.071615,258.092062 C816.616701,258.280179 815.405789,259.300857 814.974125,260.702938 C814.567614,262.077142 814.402961,263.511528 814.48751,264.942101 C814.617962,265.846308 814.300286,266.757442 813.635934,267.384533 C813.271888,267.583735 812.870308,267.704846 812.456829,267.740136 C810.945175,268.006412 809.415356,268.156578 807.880778,268.189319 C805.335409,268.189319 802.612237,267.571693 800.394397,268.769514 C798.176556,269.967335 797.147179,272.512704 796.071012,274.852198 C794.50177,278.183857 792.452403,281.267367 789.988327,284.0043 C787.24644,287.045642 783.849494,289.927899 783.072782,293.951829 C782.745253,295.664339 784.298677,296.937023 785.53393,298.172276 C790.446868,303.047782 797.296907,306.042335 800.93716,311.93786 C801.788735,313.313482 802.481226,314.866907 803.791342,315.812062 C802.977198,317.58072 804.72714,319.396167 805.092101,321.295837 C805.235762,322.538159 805.270206,323.790687 805.195039,325.039027 C805.357518,326.867768 805.670511,328.679997 806.130837,330.457296 C806.60985,333.35801 806.832183,336.29531 806.795253,339.235078 L806.954339,349.079669 C807.019844,353.328191 807.08535,357.614144 806.158911,361.759728 C804.895584,367.374514 801.807451,372.75535 802.050759,378.529222 C802.231223,379.611526 802.121434,380.72233 801.732588,381.748366 C799.17786,386.427354 797.165895,391.611673 794.424008,396.234514 C793.64114,397.356008 793.0117,398.57712 792.552412,399.865409 C791.82249,402.532432 793.319767,405.424047 795.528249,407.089767 C797.736732,408.755486 800.525409,409.438619 803.239222,409.953307 C828.449611,414.782023 854.623872,408.97072 878.44928,399.425584 C879.07607,399.229229 879.658001,398.911233 880.16179,398.489786 C881.902374,396.795992 880.536109,393.941809 879.544163,391.733327 C875.800973,383.507665 878.786167,373.953171 878.252763,364.969514 C877.89716,358.914903 875.931984,352.804144 877.410545,346.889903 C878.346342,342.940837 880.844922,339.534533 882.576148,335.84749 C884.447743,331.851634 885.495837,327.425311 887.947626,323.7757 C889.783532,321.267625 891.931301,319.003505 894.339125,317.037957 L909.545837,303.487607 C907.533872,300.221673 907.44965,296.122879 906.504494,292.407763 C905.680992,289.207335 904.043346,286.26893 903.060759,283.12465 C901.694494,278.745117 901.507335,273.766673 898.681226,270.182568 C897.567626,268.750798 896.11714,267.637198 894.872529,266.317724 C893.450117,264.801732 892.32716,263.033074 890.876673,261.545156 C886.674942,257.240486 880.339591,255.874222 874.359844,255.294027 C868.380097,254.713833 862.194475,254.685759 856.654553,252.290117 C853.940739,251.12037 851.039767,249.351712 848.232374,250.231362 C846.005175,250.923852 844.573405,253.104261 843.665681,255.265953 C842.757957,257.427646 842.121615,259.757782 840.633696,261.563872 C838.799533,263.716206 835.552315,265.138619 832.875934,266.139922 Z" id="Path" fill="#3C354C" fill-rule="nonzero"></path>
        <path d="M760.5107,314.689105 C759.630515,316.14724 758.473305,317.418898 757.104397,318.432296 C754.297004,320.163521 750.731615,319.24644 747.596693,318.27321 C738.903132,315.568755 730.153424,312.854942 722.040058,308.728074 C721.638451,308.459042 721.153728,308.342841 720.673794,308.400545 C720.298724,308.521051 719.971243,308.756837 719.737996,309.074319 C718.461985,310.488757 717.289221,311.993023 716.228755,313.575506 C715.108669,315.043426 714.404041,316.785602 714.188716,318.619455 C714.202293,320.879021 715.18758,323.023469 716.893171,324.505623 C718.586059,325.949552 720.476807,327.143875 722.507957,328.052296 C732.857879,333.217899 743.276427,338.249371 753.763599,343.146712 C754.435657,343.520446 755.178267,343.749922 755.944008,343.820486 C758.077626,343.867276 759.434533,341.649436 761.137685,340.376751 C762.840837,339.104066 765.077393,338.748463 767.108074,338.074689 C770.776401,336.86751 773.967471,334.565447 777.093035,332.291459 L787.087354,325.029669 C795.84642,318.666245 805.045311,311.731984 808.872724,301.634728 L796.707354,297.629514 C793.057743,296.422335 789.220973,294.588171 785.430992,293.886323 C782.623599,293.34356 779.24537,297.049319 777.139825,298.630817 C774.179581,300.825814 771.334122,303.171522 768.614708,305.658658 C765.919611,308.129163 762.213852,311.29216 760.5107,314.689105 Z" id="Path" fill="#3C354C" fill-rule="nonzero"></path>
        <path d="M875.660603,394.578152 C872.226226,395.944416 868.333307,393.885661 864.693054,394.49393 C862.986483,394.87508 861.359003,395.549503 859.883054,396.487179 L849.252393,402.429494 C848.597335,402.785097 847.886128,403.655389 848.456965,404.123288 C848.621707,404.232404 848.81195,404.296893 849.009086,404.310447 C852.555759,404.768988 855.868482,402.607296 859.39644,402.008385 C860.946617,401.797189 862.513693,401.73764 864.075428,401.830584 C864.333134,401.815338 864.591207,401.853571 864.833424,401.942879 C865.361176,402.24507 865.667309,402.824534 865.619494,403.430798 C865.619494,404.029708 865.441693,404.609903 865.422977,405.208813 C865.529439,406.588298 866.069959,407.89865 866.967043,408.952004 C870.350241,413.808143 874.104671,418.394805 878.196615,422.670798 C879.234275,421.358385 880.131316,419.940684 880.872996,418.440992 L884.372879,411.890409 C888.003774,405.133949 891.718891,398.124825 892.299086,390.479358 C889.678852,389.646498 884.812704,386.885895 882.108249,388.336381 C879.403794,389.786868 878.776809,393.576848 875.660603,394.578152 Z" id="Path" fill="#FBBEBE" fill-rule="nonzero"></path>
        <path d="M816.901868,222.400739 C823.751907,223.130661 830.003035,226.368521 836.13251,229.550233 C835.084416,231.197237 836.413249,233.564805 838.275486,234.126284 C840.137724,234.687763 842.177763,233.892335 843.759261,232.741304 C845.340759,231.590272 846.641518,230.102354 848.232374,228.998113 C849.598638,228.062315 851.339222,227.07037 851.488949,225.40465 C851.638677,223.73893 850.066537,222.456887 849.083949,221.071907 C845.555992,216.121537 849.458268,208.373132 845.846089,203.478911 C844.030642,201.027121 840.877004,200.100681 838.078969,198.90286 C834.204767,197.255856 830.676809,194.87893 826.793249,193.241284 C822.909689,191.603638 818.436576,190.752062 814.524942,192.305486 C807.207004,195.215817 804.58677,205.219494 797.156537,207.83037 C796.357221,207.987875 795.631114,208.401855 795.088424,209.009475 C794.152626,210.431887 792.982879,218.844708 793.216829,220.575934 C793.572432,223.467549 794.36786,224.534358 797.212685,225.395292 C803.29537,227.210739 810.388716,221.698891 816.901868,222.400739 Z" id="Path" fill="#3F3D56" fill-rule="nonzero"></path>
        <path d="M905.587412,299.997082 C907.788345,301.996674 909.501129,304.474607 910.59393,307.240156 C911.481468,309.884164 912.188067,312.585501 912.708833,315.325447 C913.990875,320.58463 916.105778,325.619222 917.238093,330.897121 C919.16606,339.915016 918.183103,349.312083 914.4307,357.735798 C913.101868,360.674202 911.436148,363.500311 910.743658,366.653949 C910.481634,367.861128 910.359981,369.115097 910.013735,370.30356 C909.441718,371.962201 908.64849,373.536065 907.655525,374.982549 L892.308444,399.678249 C891.11725,396.763315 888.73157,394.500327 885.75786,393.464553 C882.80448,392.467905 879.638662,392.27731 876.587043,392.912432 C877.728716,391.1157 878.234047,389.103735 879.394436,387.297646 C880.031902,386.338555 880.616099,385.345107 881.144377,384.321809 C881.667169,383.211373 882.123397,382.070802 882.510642,380.906148 L884.522607,375.225856 C886.880817,368.591051 889.201595,361.956245 891.269708,355.218502 C892.515474,351.294496 893.503288,347.293222 894.226829,343.240292 C894.45258,342.209787 894.477996,341.145476 894.301693,340.10537 C893.988184,339.079157 893.5076,338.111665 892.87928,337.241829 C890.646939,333.453922 888.710324,329.499347 887.086693,325.413346 C885.870156,322.559163 884.644261,319.349377 885.739144,316.448405 C886.435508,314.912557 887.464788,313.550839 888.752412,312.461907 C893.854041,307.658987 899.504809,303.475095 905.587412,299.997082 L905.587412,299.997082 Z" id="Path" fill="#3C354C" fill-rule="nonzero"></path>
        <path d="M827.598035,616.184397 L828.720992,613.872977 C826.568658,603.485623 827.635467,592.667802 828.720992,582.055856 L831.724903,552.933833 C832.20216,548.254844 832.6607,543.575856 832.117938,538.953016 C831.416089,533.33823 829.207607,527.723444 830.58323,522.211595 C830.966907,520.695603 831.603249,519.273191 832.024358,517.766556 C832.527037,515.646794 832.796896,513.478506 832.829144,511.300195 L834.036323,488.401226 C834.23284,484.732899 834.551012,480.765117 836.048288,477.489825 L836.048288,476.86284 L832.192802,443.679455 L822.011323,616.184397 L827.598035,616.184397 Z" id="Path" fill="#000000" fill-rule="nonzero" opacity="0.1"></path>
    </g>
</svg>