<?xml version="1.0" encoding="UTF-8"?>
<svg width="176px" height="41px" viewBox="0 0 176 41" version="1.1" xmlns="http://www.w3.org/2000/svg" xmlns:xlink="http://www.w3.org/1999/xlink">
    <!-- Generator: Sketch 63.1 (92452) - https://sketch.com -->
    <title>Long Logo</title>
    <desc>Created with Sketch.</desc>
    <g id="Long-Logo" stroke="none" stroke-width="1" fill="none" fill-rule="evenodd">
        <path d="M11.9375,30.6445312 C12.9329427,30.6445312 13.8603516,30.4816081 14.7197266,30.1557617 C15.5791016,29.8299154 16.366862,29.3841146 17.0830078,28.8183594 C17.7991536,28.2526042 18.4347331,27.5901693 18.9897461,26.8310547 C19.5447591,26.0719401 20.0120443,25.2591146 20.3916016,24.3925781 C20.7711589,23.5260417 21.0611979,22.629069 21.2617188,21.7016602 C21.4622396,20.7742513 21.5625,19.859375 21.5625,18.9570312 C21.5625,18.2981771 21.4962565,17.6536458 21.3637695,17.0234375 C21.2312826,16.3932292 21.0182292,15.7970378 20.7246094,15.2348633 C20.4309896,14.6726888 20.0478516,14.1534831 19.5751953,13.6772461 C19.1025391,13.2010091 18.5242513,12.7910156 17.840332,12.4472656 C17.1564128,12.1035156 16.3597005,11.8349609 15.4501953,11.6416016 C14.5406901,11.4482422 13.5022786,11.3515625 12.3349609,11.3515625 C11.7047526,11.3515625 11.0888672,11.398112 10.4873047,11.4912109 C9.88574219,11.5843099 9.31819661,11.7293294 8.78466797,11.9262695 C8.25113932,12.1232096 7.76057943,12.3738607 7.31298828,12.6782227 C6.86539714,12.9825846 6.47867839,13.3513997 6.15283203,13.784668 C5.82698568,14.2179362 5.57275391,14.7138672 5.39013672,15.2724609 C5.20751953,15.8310547 5.11621094,16.461263 5.11621094,17.1630859 C5.11621094,17.8863932 5.27376302,18.2480469 5.58886719,18.2480469 C5.81803385,18.2480469 6.10091146,18.027832 6.4375,17.5874023 C6.77408854,17.1469727 7.20377604,16.5221354 7.7265625,15.7128906 C7.91992188,15.390625 8.20817057,15.1131185 8.59130859,14.8803711 C8.97444661,14.6476237 9.41845703,14.4560547 9.92333984,14.3056641 C10.4282227,14.1552734 10.9760742,14.0442708 11.5668945,13.9726562 C12.1577148,13.9010417 12.7539062,13.8652344 13.3554688,13.8652344 C14.1790365,13.8652344 14.9345703,13.9851888 15.6220703,14.2250977 C16.3095703,14.4650065 16.8986003,14.8123372 17.3891602,15.2670898 C17.8797201,15.7218424 18.2610677,16.2768555 18.5332031,16.9321289 C18.8053385,17.5874023 18.9414062,18.3304036 18.9414062,19.1611328 C18.9414062,19.8343099 18.8590495,20.5343424 18.6943359,21.2612305 C18.5296224,21.9881185 18.2950846,22.702474 17.9907227,23.4042969 C17.6863607,24.1061198 17.3175456,24.7721354 16.8842773,25.4023438 C16.4510091,26.0325521 15.9622396,26.5857747 15.4179688,27.0620117 C14.8736979,27.5382487 14.2792969,27.917806 13.6347656,28.2006836 C12.9902344,28.4835612 12.3098958,28.625 11.59375,28.625 C11.3574219,28.625 11.1694336,28.6017253 11.0297852,28.5551758 C10.8901367,28.5086263 10.7862956,28.4316406 10.7182617,28.3242188 C10.6502279,28.2167969 10.6072591,28.0735677 10.5893555,27.8945312 C10.5714518,27.7154948 10.5625,27.4934896 10.5625,27.2285156 C10.5625,26.9778646 10.5714518,26.7200521 10.5893555,26.4550781 C10.6072591,26.1901042 10.6359049,25.8821615 10.675293,25.53125 C10.714681,25.1803385 10.7683919,24.7703451 10.8364258,24.3012695 C10.9044596,23.832194 10.9886068,23.2682292 11.0888672,22.609375 C11.1748047,22.014974 11.2679036,21.40625 11.3681641,20.7832031 C11.4684245,20.1601562 11.59375,19.5496419 11.7441406,18.9516602 C11.8945312,18.3536784 12.0807292,17.7825521 12.3027344,17.2382812 C12.5247396,16.6940104 12.8004557,16.1998698 13.1298828,15.7558594 C12.7789714,15.1686198 12.3421224,14.875 11.8193359,14.875 C11.4039714,14.875 10.9420573,15.0504557 10.4335938,15.4013672 C9.85351562,16.2535807 9.38802083,17.2185872 9.03710938,18.2963867 C8.68619792,19.3741862 8.41764323,20.507487 8.23144531,21.6962891 C8.0452474,22.8850911 7.92171224,24.1025391 7.86083984,25.3486328 C7.79996745,26.5947266 7.76953125,27.8121745 7.76953125,29.0009766 C7.76953125,29.1227214 7.77311198,29.2229818 7.78027344,29.3017578 C7.7874349,29.3805339 7.80533854,29.4467773 7.83398438,29.5004883 C7.86263021,29.5541992 7.90380859,29.6007487 7.95751953,29.6401367 C8.01123047,29.6795247 8.08463542,29.7135417 8.17773438,29.7421875 C8.39973958,29.8567708 8.65755208,29.9677734 8.95117188,30.0751953 C9.24479167,30.1826172 9.5563151,30.2792969 9.88574219,30.3652344 C10.2151693,30.4511719 10.5553385,30.5192057 10.90625,30.5693359 C11.2571615,30.6194661 11.6009115,30.6445312 11.9375,30.6445312 Z M28.8349609,30.0537109 C29.2288411,30.0537109 29.6227214,29.9570312 30.0166016,29.7636719 C30.4104818,29.5703125 30.7792969,29.3339844 31.1230469,29.0546875 C31.4667969,28.7753906 31.7765299,28.4817708 32.0522461,28.1738281 C32.3279622,27.8658854 32.5481771,27.5973307 32.7128906,27.3681641 L32.7128906,27.3681641 L32.1972656,24.9833984 C31.8391927,25.4703776 31.4847005,25.9072266 31.1337891,26.2939453 C30.9833984,26.4586589 30.824056,26.6180013 30.6557617,26.7719727 C30.4874674,26.925944 30.3191732,27.0638021 30.1508789,27.1855469 C29.9825846,27.3072917 29.8160807,27.4057617 29.6513672,27.480957 C29.4866536,27.5561523 29.3291016,27.59375 29.1787109,27.59375 C28.9781901,27.59375 28.8474935,27.4988607 28.7866211,27.309082 C28.7257487,27.1193034 28.6953125,26.8561198 28.6953125,26.5195312 C28.6953125,26.125651 28.7311198,25.7084961 28.8027344,25.2680664 C28.874349,24.8276367 28.953125,24.387207 29.0390625,23.9467773 C29.125,23.5063477 29.203776,23.0766602 29.2753906,22.6577148 C29.3470052,22.2387695 29.3828125,21.8574219 29.3828125,21.5136719 C29.3828125,21.2916667 29.3631185,21.1162109 29.3237305,20.9873047 C29.2843424,20.8583984 29.2288411,20.758138 29.1572266,20.6865234 C29.085612,20.6149089 29.0032552,20.5683594 28.9101562,20.546875 C28.8170573,20.5253906 28.7167969,20.5146484 28.609375,20.5146484 C28.530599,20.5146484 28.4500326,20.5164388 28.3676758,20.5200195 C28.285319,20.5236003 28.2047526,20.5253906 28.1259766,20.5253906 C28.0328776,20.5253906 27.941569,20.5200195 27.8520508,20.5092773 C27.7625326,20.4985352 27.6748047,20.4752604 27.5888672,20.4394531 C27.5029297,20.4036458 27.4313151,20.3463542 27.3740234,20.2675781 C27.3167318,20.1888021 27.2576497,20.1082357 27.1967773,20.0258789 C27.1359049,19.9435221 27.0589193,19.8701172 26.9658203,19.8056641 C26.8727214,19.7412109 26.7438151,19.7089844 26.5791016,19.7089844 C26.0849609,19.7089844 25.5997721,19.8146159 25.1235352,20.0258789 C24.6472982,20.2371419 24.1943359,20.5218099 23.7646484,20.8798828 C23.3349609,21.2379557 22.9392904,21.656901 22.5776367,22.1367188 C22.2159831,22.6165365 21.9026693,23.1267904 21.6376953,23.6674805 C21.3727214,24.2081706 21.1650391,24.7613932 21.0146484,25.3271484 C20.8642578,25.8929036 20.7890625,26.4443359 20.7890625,26.9814453 C20.7890625,27.4541016 20.8642578,27.878418 21.0146484,28.2543945 C21.1650391,28.6303711 21.3655599,28.949056 21.6162109,29.2104492 C21.866862,29.4718424 22.1551107,29.6723633 22.480957,29.8120117 C22.8068034,29.9516602 23.1416016,30.0214844 23.4853516,30.0214844 C23.8076172,30.0214844 24.1298828,29.9677734 24.4521484,29.8603516 C24.7744141,29.7529297 25.0841471,29.6150716 25.3813477,29.4467773 C25.6785482,29.2784831 25.952474,29.0904948 26.203125,28.8828125 C26.453776,28.6751302 26.6650391,28.4710286 26.8369141,28.2705078 C27.0660807,28.8505859 27.3382161,29.292806 27.6533203,29.597168 C27.9684245,29.9015299 28.3623047,30.0537109 28.8349609,30.0537109 Z M24.3769531,27.9375 C24.2122396,27.9375 24.0761719,27.8963216 23.96875,27.8139648 C23.8613281,27.7316081 23.7753906,27.6241862 23.7109375,27.4916992 C23.6464844,27.3592122 23.6017253,27.2088216 23.5766602,27.0405273 C23.5515951,26.8722331 23.5390625,26.6985677 23.5390625,26.5195312 C23.5390625,26.2044271 23.5802409,25.8678385 23.6625977,25.5097656 C23.7449544,25.1516927 23.8613281,24.7954102 24.0117188,24.440918 C24.1621094,24.0864258 24.3411458,23.7480469 24.5488281,23.4257812 C24.7565104,23.1035156 24.9838867,22.8170573 25.230957,22.5664062 C25.4780273,22.3157552 25.7412109,22.1170247 26.0205078,21.9702148 C26.2998047,21.8234049 26.586263,21.75 26.8798828,21.75 L26.8798828,21.75 L26.2246094,24.9082031 C26.1959635,25.1373698 26.1333008,25.4238281 26.0366211,25.7675781 C25.9399414,26.1113281 25.8128255,26.4443359 25.6552734,26.7666016 C25.4977214,27.0888672 25.3115234,27.3645833 25.0966797,27.59375 C24.8818359,27.8229167 24.6419271,27.9375 24.3769531,27.9375 Z M35.1083984,30 C35.3733724,30 35.6687826,29.9498698 35.9946289,29.8496094 C36.3204753,29.749349 36.6928711,29.5989583 37.1118164,29.3984375 C37.5307617,29.1979167 38.0087891,28.9472656 38.5458984,28.6464844 C39.0830078,28.3457031 39.6953125,27.9947917 40.3828125,27.59375 L40.3828125,27.59375 L40.3828125,24.84375 C40.1679688,25.0800781 39.9280599,25.3110352 39.6630859,25.5366211 C39.398112,25.762207 39.1206055,25.9770508 38.8305664,26.1811523 C38.5405273,26.3852539 38.2469076,26.5732422 37.949707,26.7451172 C37.6525065,26.9169922 37.3696289,27.0655924 37.1010742,27.190918 C36.8325195,27.3162435 36.5854492,27.4147135 36.3598633,27.4863281 C36.1342773,27.5579427 35.9462891,27.59375 35.7958984,27.59375 C35.5524089,27.59375 35.332194,27.5561523 35.1352539,27.480957 C34.9383138,27.4057617 34.7718099,27.2840169 34.6357422,27.1157227 C34.4996745,26.9474284 34.3958333,26.7307943 34.3242188,26.4658203 C34.2526042,26.2008464 34.2167969,25.875 34.2167969,25.4882812 C34.2167969,25.3378906 34.2185872,25.1731771 34.222168,24.9941406 C34.2257487,24.8151042 34.2311198,24.6289062 34.2382812,24.4355469 C34.2454427,24.2421875 34.2526042,24.0470378 34.2597656,23.8500977 C34.2669271,23.6531576 34.2740885,23.4615885 34.28125,23.2753906 C34.3027344,22.8457031 34.3277995,22.4088542 34.3564453,21.9648438 C34.5354818,21.7428385 34.7306315,21.4939779 34.9418945,21.2182617 C35.1531576,20.9425456 35.3626302,20.6614583 35.5703125,20.375 L35.5703125,20.375 L39.6953125,20.375 C39.8671875,20.375 40.0247396,20.296224 40.1679688,20.1386719 C40.3111979,19.9811198 40.3828125,19.7770182 40.3828125,19.5263672 C40.3828125,19.3186849 40.3505859,19.1468099 40.2861328,19.0107422 C40.2216797,18.8746745 40.1178385,18.8030599 39.9746094,18.7958984 C39.8528646,18.788737 39.6988932,18.7815755 39.5126953,18.7744141 C39.3264974,18.7672526 39.1259766,18.7600911 38.9111328,18.7529297 C38.6962891,18.7457682 38.4742839,18.7368164 38.2451172,18.7260742 C38.0159505,18.715332 37.8028971,18.7063802 37.605957,18.6992188 C37.4090169,18.6920573 37.2353516,18.6866862 37.0849609,18.6831055 C36.9345703,18.6795247 36.8271484,18.6741536 36.7626953,18.6669922 C37.0205078,18.2587891 37.2657878,17.8470052 37.4985352,17.4316406 C37.7312826,17.016276 37.9335938,16.6062826 38.1054688,16.2016602 C38.2773438,15.7970378 38.4134115,15.3995768 38.5136719,15.0092773 C38.6139323,14.6189779 38.6640625,14.2483724 38.6640625,13.8974609 C38.6640625,13.4820964 38.6157227,13.0828451 38.519043,12.699707 C38.4223633,12.316569 38.2845052,11.9817708 38.1054688,11.6953125 C37.9264323,11.4088542 37.7097982,11.1796875 37.4555664,11.0078125 C37.2013346,10.8359375 36.9202474,10.75 36.6123047,10.75 C36.132487,10.75 35.6741536,10.9630534 35.2373047,11.3891602 C34.8004557,11.8152669 34.3976237,12.3810221 34.0288086,13.0864258 C33.6599935,13.7918294 33.3269857,14.5974935 33.0297852,15.503418 C32.7325846,16.4093424 32.4873047,17.3457031 32.2939453,18.3125 C32.2223307,18.3268229 32.0916341,18.332194 31.9018555,18.3286133 C31.7120768,18.3250326 31.4972331,18.3196615 31.2573242,18.3125 C31.0174154,18.3053385 30.7667643,18.3035482 30.5053711,18.3071289 C30.2439779,18.3107096 30.004069,18.3304036 29.7856445,18.3662109 C29.5672201,18.4020182 29.3881836,18.4575195 29.2485352,18.5327148 C29.1088867,18.6079102 29.0390625,18.7171224 29.0390625,18.8603516 C29.0390625,18.9248047 29.0426432,19.0017904 29.0498047,19.0913086 C29.0569661,19.1808268 29.0820312,19.2667643 29.125,19.3491211 C29.1679688,19.4314779 29.2360026,19.5030924 29.3291016,19.5639648 C29.4222005,19.6248372 29.5546875,19.6660156 29.7265625,19.6875 C30.1132812,19.7304688 30.4086914,19.766276 30.612793,19.7949219 C30.8168945,19.8235677 30.9851888,19.8504232 31.1176758,19.8754883 C31.2501628,19.9005534 31.3754883,19.9256185 31.4936523,19.9506836 C31.6118164,19.9757487 31.7783203,20.0026042 31.9931641,20.03125 C31.9287109,20.5110677 31.8785807,20.9944661 31.8427734,21.4814453 C31.8069661,21.9684245 31.7890625,22.4267578 31.7890625,22.8564453 C31.7890625,23.9593099 31.8588867,24.9511719 31.9985352,25.8320312 C32.1381836,26.7128906 32.3476562,27.4630534 32.6269531,28.0825195 C32.90625,28.7019857 33.2535807,29.1764323 33.6689453,29.5058594 C34.0843099,29.8352865 34.5641276,30 35.1083984,30 Z M35.0009766,18.4736328 C34.8863932,18.4593099 34.7753906,18.4467773 34.6679688,18.4360352 C34.5605469,18.425293 34.453125,18.4127604 34.3457031,18.3984375 C34.4746094,17.8183594 34.6160482,17.2203776 34.7700195,16.6044922 C34.9239909,15.9886068 35.0887044,15.4246419 35.2641602,14.9125977 C35.4396159,14.4005534 35.6222331,13.9798177 35.8120117,13.6503906 C36.0017904,13.3209635 36.1897786,13.15625 36.3759766,13.15625 C36.5120443,13.15625 36.6176758,13.1848958 36.6928711,13.2421875 C36.7680664,13.2994792 36.8235677,13.3710938 36.859375,13.4570312 C36.8951823,13.5429688 36.918457,13.6342773 36.9291992,13.730957 C36.9399414,13.8276367 36.9453125,13.9153646 36.9453125,13.9941406 C36.9453125,14.2233073 36.8844401,14.5169271 36.7626953,14.875 C36.6409505,15.2330729 36.4869792,15.6180013 36.3007812,16.0297852 C36.1145833,16.441569 35.9051107,16.8605143 35.6723633,17.2866211 C35.4396159,17.7127279 35.2158203,18.1083984 35.0009766,18.4736328 Z M43.6806641,30 C44.1103516,30 44.534668,29.9516602 44.9536133,29.8549805 C45.3725586,29.7583008 45.777181,29.6293945 46.1674805,29.4682617 C46.5577799,29.3071289 46.9301758,29.1227214 47.284668,28.9150391 C47.6391602,28.7073568 47.9703776,28.4960938 48.2783203,28.28125 C48.9873047,27.7799479 49.656901,27.2034505 50.2871094,26.5517578 L50.2871094,26.5517578 L48.9013672,25.1123047 C48.6220703,25.3844401 48.281901,25.6726888 47.8808594,25.9770508 C47.4798177,26.2814128 47.0537109,26.5625 46.6025391,26.8203125 C46.1513672,27.078125 45.6876628,27.2929688 45.2114258,27.4648438 C44.7351888,27.6367188 44.2822266,27.7226562 43.8525391,27.7226562 C43.7164714,27.7226562 43.5893555,27.7083333 43.4711914,27.6796875 C43.3530273,27.6510417 43.2402344,27.6009115 43.1328125,27.5292969 C43.0253906,27.4576823 42.9197591,27.3574219 42.815918,27.2285156 C42.7120768,27.0996094 42.6064453,26.9384766 42.4990234,26.7451172 C43.1220703,26.5732422 43.7003581,26.3333333 44.2338867,26.0253906 C44.7674154,25.7174479 45.2275391,25.3665365 45.6142578,24.9726562 C46.0009766,24.578776 46.3035482,24.1598307 46.5219727,23.7158203 C46.7403971,23.2718099 46.8496094,22.8277995 46.8496094,22.3837891 C46.8496094,21.9755859 46.7779948,21.6067708 46.6347656,21.2773438 C46.4915365,20.9479167 46.292806,20.6668294 46.0385742,20.434082 C45.7843424,20.2013346 45.4853516,20.0205078 45.1416016,19.8916016 C44.7978516,19.7626953 44.4254557,19.6982422 44.0244141,19.6982422 C43.5302734,19.6982422 43.0808919,19.7859701 42.6762695,19.9614258 C42.2716471,20.1368815 41.9064128,20.3732096 41.5805664,20.6704102 C41.2547201,20.9676107 40.9700521,21.3113607 40.7265625,21.7016602 C40.4830729,22.0919596 40.2807617,22.5019531 40.1196289,22.9316406 C39.9584961,23.3613281 39.8385417,23.7999674 39.7597656,24.2475586 C39.6809896,24.6951497 39.6416016,25.1194661 39.6416016,25.5205078 C39.6416016,26.1149089 39.7257487,26.6824544 39.894043,27.2231445 C40.0623372,27.7638346 40.3147786,28.2400716 40.6513672,28.6518555 C40.9879557,29.0636393 41.4086914,29.391276 41.9135742,29.6347656 C42.418457,29.8782552 43.007487,30 43.6806641,30 Z M42.2519531,24.9511719 C42.2519531,24.7936198 42.2591146,24.6038411 42.2734375,24.3818359 C42.2877604,24.1598307 42.3181966,23.9306641 42.3647461,23.6943359 C42.4112956,23.4580078 42.4793294,23.2234701 42.5688477,22.9907227 C42.6583659,22.7579753 42.7765299,22.550293 42.9233398,22.3676758 C43.0701497,22.1850586 43.2527669,22.0364583 43.4711914,21.921875 C43.6896159,21.8072917 43.9527995,21.75 44.2607422,21.75 C44.4326172,21.75 44.5776367,21.8538411 44.6958008,22.0615234 C44.8139648,22.2692057 44.8730469,22.5341797 44.8730469,22.8564453 C44.8730469,23.085612 44.7835286,23.3219401 44.6044922,23.5654297 C44.4254557,23.8089193 44.2052409,24.0345052 43.9438477,24.2421875 C43.6824544,24.4498698 43.3995768,24.6199544 43.0952148,24.7524414 C42.7908529,24.8849284 42.5097656,24.9511719 42.2519531,24.9511719 Z M56.1416016,30.0107422 C56.2991536,30.0107422 56.4638672,29.9946289 56.6357422,29.9624023 C56.8076172,29.9301758 56.96875,29.8746745 57.1191406,29.7958984 C57.2695312,29.7171224 57.3984375,29.6097005 57.5058594,29.4736328 C57.6132812,29.3375651 57.6813151,29.1621094 57.7099609,28.9472656 C57.8030599,28.2597656 57.9427083,27.5239258 58.1289062,26.7397461 C58.3151042,25.9555664 58.5299479,25.1534831 58.7734375,24.3334961 C59.0169271,23.5135091 59.2836914,22.6935221 59.5737305,21.8735352 C59.8637695,21.0535482 60.1645508,20.2675781 60.4760742,19.515625 C60.7875977,18.7636719 61.1009115,18.0636393 61.4160156,17.4155273 C61.7311198,16.7674154 62.0372721,16.2034505 62.3344727,15.7236328 C62.6316732,15.2438151 62.9091797,14.8678385 63.1669922,14.5957031 C63.4248047,14.3235677 63.6539714,14.1875 63.8544922,14.1875 C64.0979818,14.1875 64.2931315,14.2519531 64.4399414,14.3808594 C64.5867513,14.5097656 64.6995443,14.6959635 64.7783203,14.9394531 C64.8570964,15.1829427 64.9072266,15.4801432 64.9287109,15.8310547 C64.9501953,16.1819661 64.9609375,16.5794271 64.9609375,17.0234375 C64.9609375,17.6679688 64.9179688,18.3733724 64.8320312,19.1396484 C64.7460938,19.9059245 64.6368815,20.6811523 64.5043945,21.465332 C64.3719076,22.2495117 64.2286784,23.0193685 64.074707,23.7749023 C63.9207357,24.5304362 63.7775065,25.2250977 63.6450195,25.8588867 C63.5125326,26.4926758 63.4033203,27.0369466 63.3173828,27.4916992 C63.2314453,27.9464518 63.1884766,28.2669271 63.1884766,28.453125 C63.1884766,28.7324219 63.2224935,28.96875 63.2905273,29.1621094 C63.3585612,29.3554688 63.4480794,29.5148112 63.559082,29.6401367 C63.6700846,29.7654622 63.7989909,29.8567708 63.9458008,29.9140625 C64.0926107,29.9713542 64.2412109,30 64.3916016,30 C64.5634766,30 64.7353516,29.980306 64.9072266,29.940918 C65.0791016,29.9015299 65.2420247,29.8388672 65.3959961,29.7529297 C65.5499674,29.6669922 65.6860352,29.5541992 65.8041992,29.4145508 C65.9223633,29.2749023 66.0100911,29.1048177 66.0673828,28.9042969 C66.1962891,28.188151 66.3359375,27.4290365 66.4863281,26.6269531 C66.6367188,25.8248698 66.7978516,25.0120443 66.9697266,24.1884766 C67.1416016,23.3649089 67.3277995,22.5467122 67.5283203,21.7338867 C67.7288411,20.9210612 67.9454753,20.144043 68.1782227,19.402832 C68.4109701,18.6616211 68.6580404,17.9723307 68.9194336,17.3349609 C69.1808268,16.6975911 69.4619141,16.1461589 69.7626953,15.6806641 C70.0634766,15.2151693 70.3821615,14.8499349 70.71875,14.5849609 C71.0553385,14.319987 71.4134115,14.1875 71.7929688,14.1875 C71.9934896,14.1875 72.1546224,14.2376302 72.2763672,14.3378906 C72.398112,14.438151 72.4912109,14.5795898 72.5556641,14.762207 C72.6201172,14.9448242 72.6630859,15.1668294 72.6845703,15.4282227 C72.7060547,15.6896159 72.7167969,15.9814453 72.7167969,16.3037109 C72.7167969,16.8336589 72.6809896,17.3868815 72.609375,17.9633789 C72.5377604,18.5398763 72.4482422,19.1235352 72.3408203,19.7143555 C72.2333984,20.3051758 72.1152344,20.8977865 71.9863281,21.4921875 C71.8574219,22.0865885 71.7338867,22.6702474 71.6157227,23.2431641 C71.4975586,23.8160807 71.3919271,24.3728841 71.2988281,24.9135742 C71.2057292,25.4542643 71.1448568,25.9645182 71.1162109,26.4443359 C71.1090495,26.5087891 71.1036784,26.5732422 71.1000977,26.6376953 C71.0965169,26.7021484 71.0947266,26.7630208 71.0947266,26.8203125 C71.0947266,27.3359375 71.1806641,27.7924805 71.3525391,28.1899414 C71.5244141,28.5874023 71.7535807,28.9204102 72.0400391,29.1889648 C72.3264974,29.4575195 72.6541341,29.6598307 73.0229492,29.7958984 C73.3917643,29.9319661 73.7695312,30 74.15625,30 C74.5572917,30 74.9601237,29.9391276 75.3647461,29.8173828 C75.7693685,29.695638 76.1686198,29.4969076 76.5625,29.2211914 C76.9563802,28.9454753 77.343099,28.5891927 77.7226562,28.1523438 C78.1022135,27.7154948 78.4710286,27.1819661 78.8291016,26.5517578 C78.6214193,26.0003255 78.4602865,25.5777995 78.3457031,25.2841797 C78.2311198,24.9905599 78.148763,24.7828776 78.0986328,24.6611328 C78.0341797,24.5179036 78.0019531,24.4427083 78.0019531,24.4355469 C77.6295573,25.0299479 77.2535807,25.5563151 76.8740234,26.0146484 C76.7093099,26.2151693 76.5374349,26.410319 76.3583984,26.6000977 C76.179362,26.7898763 75.9985352,26.9581706 75.815918,27.1049805 C75.6333008,27.2517904 75.4506836,27.3699544 75.2680664,27.4594727 C75.0854492,27.5489909 74.9117839,27.59375 74.7470703,27.59375 C74.4534505,27.59375 74.2296549,27.4988607 74.0756836,27.309082 C73.9217122,27.1193034 73.8447266,26.813151 73.8447266,26.390625 C73.8447266,26.0540365 73.8859049,25.6547852 73.9682617,25.1928711 C74.0506185,24.730957 74.1526693,24.2278646 74.2744141,23.6835938 C74.3961589,23.1393229 74.5268555,22.5628255 74.6665039,21.9541016 C74.8061523,21.3453776 74.936849,20.7241211 75.0585938,20.090332 C75.1803385,19.456543 75.2823893,18.8155924 75.3647461,18.1674805 C75.4471029,17.5193685 75.4882812,16.8873698 75.4882812,16.2714844 C75.4882812,15.6126302 75.4274089,14.987793 75.3056641,14.3969727 C75.1839193,13.8061523 75.0084635,13.2905273 74.7792969,12.8500977 C74.5501302,12.409668 74.2654622,12.0605469 73.925293,11.8027344 C73.5851237,11.5449219 73.1966146,11.4160156 72.7597656,11.4160156 C72.1295573,11.4160156 71.5208333,11.5735677 70.9335938,11.8886719 C70.3463542,12.203776 69.7985026,12.6567383 69.2900391,13.2475586 C68.7815755,13.8383789 68.3232422,14.5563151 67.9150391,15.4013672 C67.5068359,16.2464193 67.1630859,17.1988932 66.8837891,18.2587891 L66.8837891,18.2587891 L66.6582031,18.2695312 C66.7226562,17.7682292 66.7835286,17.3027344 66.8408203,16.8730469 C66.8623047,16.6940104 66.8855794,16.5131836 66.9106445,16.3305664 C66.9357096,16.1479492 66.957194,15.9778646 66.9750977,15.8203125 C66.9930013,15.6627604 67.0073242,15.523112 67.0180664,15.4013672 C67.0288086,15.2796224 67.0341797,15.1901042 67.0341797,15.1328125 C67.0341797,14.5026042 66.9786784,13.9583333 66.8676758,13.5 C66.7566732,13.0416667 66.6009115,12.6621094 66.4003906,12.3613281 C66.1998698,12.0605469 65.9599609,11.8385417 65.6806641,11.6953125 C65.4013672,11.5520833 65.0970052,11.4804688 64.7675781,11.4804688 C64.3235677,11.4804688 63.8759766,11.6022135 63.4248047,11.8457031 C62.9736328,12.0891927 62.527832,12.4329427 62.0874023,12.8769531 C61.6469727,13.3209635 61.2190755,13.8527018 60.8037109,14.472168 C60.3883464,15.0916341 59.9962565,15.7827148 59.6274414,16.5454102 C59.2586263,17.3081055 58.918457,18.1280924 58.6069336,19.0053711 C58.2954102,19.8826497 58.0250651,20.797526 57.7958984,21.75 C57.9033203,21.234375 58.0143229,20.679362 58.1289062,20.0849609 C58.2434896,19.4905599 58.3491211,18.8979492 58.4458008,18.3071289 C58.5424805,17.7163086 58.6230469,17.1523438 58.6875,16.6152344 C58.7519531,16.078125 58.7841797,15.6090495 58.7841797,15.2080078 C58.7841797,14.6852214 58.7501628,14.2089844 58.6821289,13.7792969 C58.6140951,13.3496094 58.4941406,12.9825846 58.3222656,12.6782227 C58.1503906,12.3738607 57.9176432,12.1375326 57.6240234,11.9692383 C57.3304036,11.800944 56.9615885,11.7167969 56.5175781,11.7167969 C56.1738281,11.7167969 55.8139648,11.7884115 55.4379883,11.9316406 C55.0620117,12.0748698 54.6931966,12.316569 54.331543,12.6567383 C53.9698893,12.9969076 53.6261393,13.4516602 53.300293,14.0209961 C52.9744466,14.590332 52.6826172,15.297526 52.4248047,16.1425781 C52.3961589,16.171224 52.3818359,16.2070312 52.3818359,16.25 C52.3818359,16.328776 52.3925781,16.4165039 52.4140625,16.5131836 C52.4355469,16.6098633 52.4624023,16.7011719 52.4946289,16.7871094 C52.5268555,16.8730469 52.5626628,16.9464518 52.6020508,17.0073242 C52.6414388,17.0681966 52.6790365,17.0986328 52.7148438,17.0986328 C52.8294271,17.0986328 52.9332682,17.0753581 53.0263672,17.0288086 C53.1194661,16.9822591 53.1875,16.9052734 53.2304688,16.7978516 C53.4596354,16.4899089 53.7102865,16.2016602 53.9824219,15.9331055 C54.2545573,15.6645508 54.5266927,15.430013 54.7988281,15.2294922 C55.0709635,15.0289714 55.3305664,14.8696289 55.5776367,14.7514648 C55.824707,14.6333008 56.0341797,14.5742188 56.2060547,14.5742188 C56.3134766,14.5742188 56.394043,14.6064453 56.4477539,14.6708984 C56.5014648,14.7353516 56.5390625,14.8123372 56.5605469,14.9018555 C56.5820312,14.9913737 56.5927734,15.086263 56.5927734,15.1865234 L56.5927734,15.1865234 L56.5927734,15.4335938 C56.5354818,16.1783854 56.4817708,16.8766276 56.4316406,17.5283203 C56.3815104,18.180013 56.3260091,18.8120117 56.2651367,19.4243164 C56.2042643,20.0366211 56.1344401,20.6453451 56.0556641,21.2504883 C55.976888,21.8556315 55.8837891,22.4804688 55.7763672,23.125 C55.6689453,23.7695312 55.5400391,24.4516602 55.3896484,25.1713867 C55.2392578,25.8911133 55.0638021,26.6699219 54.8632812,27.5078125 C54.8059896,27.7584635 54.7630208,28.0073242 54.734375,28.2543945 C54.7057292,28.5014648 54.6914062,28.7718099 54.6914062,29.0654297 C54.6914062,29.2158203 54.7307943,29.3500977 54.8095703,29.4682617 C54.8883464,29.5864258 54.9957682,29.6866862 55.1318359,29.769043 C55.2679036,29.8513997 55.4236654,29.9122721 55.5991211,29.9516602 C55.7745768,29.9910482 55.9554036,30.0107422 56.1416016,30.0107422 Z M78.0664062,39.96875 C78.6822917,39.96875 79.2444661,39.8631185 79.7529297,39.6518555 C80.2613932,39.4405924 80.7215169,39.1451823 81.1333008,38.765625 C81.5450846,38.3860677 81.9138997,37.9313151 82.2397461,37.4013672 C82.5655924,36.8714193 82.8556315,36.2895508 83.1098633,35.6557617 C83.3640951,35.0219727 83.5843099,34.3416341 83.7705078,33.6147461 C83.9567057,32.8878581 84.1178385,32.141276 84.2539062,31.375 C84.9557292,30.9453125 85.6110026,30.5013021 86.2197266,30.0429688 C86.4775391,29.8496094 86.7407227,29.6437174 87.0092773,29.425293 C87.277832,29.2068685 87.5356445,28.9812826 87.7827148,28.7485352 C88.0297852,28.5157878 88.2553711,28.2830404 88.4594727,28.050293 C88.6635742,27.8175456 88.8300781,27.5901693 88.9589844,27.3681641 L88.9589844,27.3681641 L88.4433594,24.9833984 C87.9707031,25.663737 87.5445964,26.2312826 87.1650391,26.6860352 C86.7854818,27.1407878 86.4417318,27.5185547 86.1337891,27.8193359 C85.8258464,28.1201172 85.5465495,28.360026 85.2958984,28.5390625 C85.0452474,28.718099 84.8125,28.8684896 84.5976562,28.9902344 C84.7838542,27.7727865 84.9664714,26.6341146 85.1455078,25.5742188 C85.2171224,25.1230469 85.2923177,24.6700846 85.3710938,24.215332 C85.4498698,23.7605794 85.5268555,23.3291016 85.6020508,22.9208984 C85.6772461,22.5126953 85.7470703,22.1474609 85.8115234,21.8251953 C85.8759766,21.5029297 85.9296875,21.2486979 85.9726562,21.0625 C85.9941406,20.9765625 86.0048828,20.9013672 86.0048828,20.8369141 C86.0048828,20.6292318 85.9296875,20.4770508 85.7792969,20.3803711 C85.6289062,20.2836914 85.4427083,20.2353516 85.2207031,20.2353516 C85.0345052,20.2353516 84.8375651,20.2675781 84.6298828,20.3320312 C84.4222005,20.3964844 84.2234701,20.4931641 84.0336914,20.6220703 C83.8439128,20.7509766 83.6756185,20.910319 83.5288086,21.1000977 C83.3819987,21.2898763 83.2799479,21.5065104 83.2226562,21.75 L83.2226562,21.75 L82.4707031,24.9082031 C82.4420573,25.1373698 82.3793945,25.4238281 82.2827148,25.7675781 C82.1860352,26.1113281 82.0589193,26.4443359 81.9013672,26.7666016 C81.7438151,27.0888672 81.5576172,27.3645833 81.3427734,27.59375 C81.1279297,27.8229167 80.8880208,27.9375 80.6230469,27.9375 C80.4583333,27.9375 80.3222656,27.8963216 80.2148438,27.8139648 C80.1074219,27.7316081 80.0214844,27.6241862 79.9570312,27.4916992 C79.8925781,27.3592122 79.847819,27.2088216 79.8227539,27.0405273 C79.7976888,26.8722331 79.7851562,26.6985677 79.7851562,26.5195312 C79.7851562,26.1757812 79.8138021,25.7783203 79.8710938,25.3271484 C79.9283854,24.8759766 80.0053711,24.4158529 80.1020508,23.9467773 C80.1987305,23.4777018 80.3097331,23.0193685 80.4350586,22.5717773 C80.5603841,22.1241862 80.6875,21.7356771 80.8164062,21.40625 C80.859375,21.2988281 80.8898112,21.1985677 80.9077148,21.1054688 C80.9256185,21.0123698 80.9345703,20.9264323 80.9345703,20.8476562 C80.9345703,20.5826823 80.8450521,20.3875326 80.6660156,20.262207 C80.4869792,20.1368815 80.2721354,20.0742188 80.0214844,20.0742188 C79.7278646,20.0742188 79.4270833,20.1583659 79.1191406,20.3266602 C78.8111979,20.4949544 78.5748698,20.7402344 78.4101562,21.0625 C78.188151,21.5136719 77.9912109,21.9594727 77.8193359,22.3999023 C77.6474609,22.840332 77.5042318,23.296875 77.3896484,23.7695312 C77.2750651,24.2421875 77.1873372,24.7399089 77.1264648,25.2626953 C77.0655924,25.7854818 77.0351562,26.3583984 77.0351562,26.9814453 C77.0351562,27.4541016 77.1103516,27.878418 77.2607422,28.2543945 C77.4111328,28.6303711 77.6116536,28.949056 77.8623047,29.2104492 C78.1129557,29.4718424 78.4012044,29.6723633 78.7270508,29.8120117 C79.0528971,29.9516602 79.3876953,30.0214844 79.7314453,30.0214844 C80.1253255,30.0214844 80.5317383,29.9158529 80.9506836,29.7045898 C81.3696289,29.4933268 81.7724609,29.2158203 82.1591797,28.8720703 L82.1591797,28.8720703 L81.8691406,29.8710938 C81.3535156,30.2936198 80.8432617,30.7376302 80.3383789,31.203125 C79.8334961,31.6686198 79.3500977,32.141276 78.8881836,32.6210938 C78.4262695,33.1009115 77.9983724,33.5825195 77.6044922,34.065918 C77.210612,34.5493164 76.8704427,35.0148112 76.5839844,35.4624023 C76.297526,35.9099935 76.0719401,36.3361003 75.9072266,36.7407227 C75.742513,37.1453451 75.6601562,37.5087891 75.6601562,37.8310547 C75.6601562,38.2965495 75.7389323,38.6689453 75.8964844,38.9482422 C76.0540365,39.2275391 76.2527669,39.4423828 76.4926758,39.5927734 C76.7325846,39.7431641 76.9939779,39.8434245 77.2768555,39.8935547 C77.5597331,39.9436849 77.8229167,39.96875 78.0664062,39.96875 Z M78.1953125,37.90625 C77.9088542,37.90625 77.765625,37.773763 77.765625,37.5087891 C77.765625,37.3440755 77.8193359,37.1363932 77.9267578,36.8857422 C78.0341797,36.6350911 78.1809896,36.3647461 78.3671875,36.074707 C78.5533854,35.784668 78.7700195,35.4820964 79.0170898,35.1669922 C79.2641602,34.851888 79.5255534,34.5457357 79.8012695,34.2485352 C80.0769857,33.9513346 80.3598633,33.6738281 80.6499023,33.4160156 C80.9399414,33.1582031 81.2246094,32.9361979 81.5039062,32.75 C81.4466146,33.0364583 81.3678385,33.3623047 81.2675781,33.7275391 C81.1673177,34.0927734 81.0455729,34.4669596 80.9023438,34.8500977 C80.7591146,35.2332357 80.594401,35.6074219 80.4082031,35.9726562 C80.2220052,36.3378906 80.0161133,36.663737 79.7905273,36.9501953 C79.5649414,37.2366536 79.3178711,37.4676107 79.0493164,37.6430664 C78.7807617,37.8185221 78.4960938,37.90625 78.1953125,37.90625 Z M95.3291016,30.0107422 C95.4866536,30.0107422 95.6513672,29.9946289 95.8232422,29.9624023 C95.9951172,29.9301758 96.15625,29.8746745 96.3066406,29.7958984 C96.4570312,29.7171224 96.5859375,29.6097005 96.6933594,29.4736328 C96.8007812,29.3375651 96.8688151,29.1621094 96.8974609,28.9472656 C96.9905599,28.2597656 97.1302083,27.5239258 97.3164062,26.7397461 C97.5026042,25.9555664 97.7174479,25.1534831 97.9609375,24.3334961 C98.2044271,23.5135091 98.4711914,22.6935221 98.7612305,21.8735352 C99.0512695,21.0535482 99.3520508,20.2675781 99.6635742,19.515625 C99.9750977,18.7636719 100.288411,18.0636393 100.603516,17.4155273 C100.91862,16.7674154 101.224772,16.2034505 101.521973,15.7236328 C101.819173,15.2438151 102.09668,14.8678385 102.354492,14.5957031 C102.612305,14.3235677 102.841471,14.1875 103.041992,14.1875 C103.285482,14.1875 103.480632,14.2519531 103.627441,14.3808594 C103.774251,14.5097656 103.887044,14.6959635 103.96582,14.9394531 C104.044596,15.1829427 104.094727,15.4801432 104.116211,15.8310547 C104.137695,16.1819661 104.148438,16.5794271 104.148438,17.0234375 C104.148438,17.6679688 104.105469,18.3733724 104.019531,19.1396484 C103.933594,19.9059245 103.824382,20.6811523 103.691895,21.465332 C103.559408,22.2495117 103.416178,23.0193685 103.262207,23.7749023 C103.108236,24.5304362 102.965007,25.2250977 102.83252,25.8588867 C102.700033,26.4926758 102.59082,27.0369466 102.504883,27.4916992 C102.418945,27.9464518 102.375977,28.2669271 102.375977,28.453125 C102.375977,28.7324219 102.409993,28.96875 102.478027,29.1621094 C102.546061,29.3554688 102.635579,29.5148112 102.746582,29.6401367 C102.857585,29.7654622 102.986491,29.8567708 103.133301,29.9140625 C103.280111,29.9713542 103.428711,30 103.579102,30 C103.750977,30 103.922852,29.980306 104.094727,29.940918 C104.266602,29.9015299 104.429525,29.8388672 104.583496,29.7529297 C104.737467,29.6669922 104.873535,29.5541992 104.991699,29.4145508 C105.109863,29.2749023 105.197591,29.1048177 105.254883,28.9042969 C105.383789,28.188151 105.523438,27.4290365 105.673828,26.6269531 C105.824219,25.8248698 105.985352,25.0120443 106.157227,24.1884766 C106.329102,23.3649089 106.515299,22.5467122 106.71582,21.7338867 C106.916341,20.9210612 107.132975,20.144043 107.365723,19.402832 C107.59847,18.6616211 107.84554,17.9723307 108.106934,17.3349609 C108.368327,16.6975911 108.649414,16.1461589 108.950195,15.6806641 C109.250977,15.2151693 109.569661,14.8499349 109.90625,14.5849609 C110.242839,14.319987 110.600911,14.1875 110.980469,14.1875 C111.18099,14.1875 111.342122,14.2376302 111.463867,14.3378906 C111.585612,14.438151 111.678711,14.5795898 111.743164,14.762207 C111.807617,14.9448242 111.850586,15.1668294 111.87207,15.4282227 C111.893555,15.6896159 111.904297,15.9814453 111.904297,16.3037109 C111.904297,16.8336589 111.86849,17.3868815 111.796875,17.9633789 C111.72526,18.5398763 111.635742,19.1235352 111.52832,19.7143555 C111.420898,20.3051758 111.302734,20.8977865 111.173828,21.4921875 C111.044922,22.0865885 110.921387,22.6702474 110.803223,23.2431641 C110.685059,23.8160807 110.579427,24.3728841 110.486328,24.9135742 C110.393229,25.4542643 110.332357,25.9645182 110.303711,26.4443359 C110.296549,26.5087891 110.291178,26.5732422 110.287598,26.6376953 C110.284017,26.7021484 110.282227,26.7630208 110.282227,26.8203125 C110.282227,27.3359375 110.368164,27.7924805 110.540039,28.1899414 C110.711914,28.5874023 110.941081,28.9204102 111.227539,29.1889648 C111.513997,29.4575195 111.841634,29.6598307 112.210449,29.7958984 C112.579264,29.9319661 112.957031,30 113.34375,30 C113.744792,30 114.147624,29.9391276 114.552246,29.8173828 C114.956868,29.695638 115.35612,29.4969076 115.75,29.2211914 C116.14388,28.9454753 116.530599,28.5891927 116.910156,28.1523438 C117.289714,27.7154948 117.658529,27.1819661 118.016602,26.5517578 C117.808919,26.0003255 117.647786,25.5777995 117.533203,25.2841797 C117.41862,24.9905599 117.336263,24.7828776 117.286133,24.6611328 C117.22168,24.5179036 117.189453,24.4427083 117.189453,24.4355469 C116.817057,25.0299479 116.441081,25.5563151 116.061523,26.0146484 C115.89681,26.2151693 115.724935,26.410319 115.545898,26.6000977 C115.366862,26.7898763 115.186035,26.9581706 115.003418,27.1049805 C114.820801,27.2517904 114.638184,27.3699544 114.455566,27.4594727 C114.272949,27.5489909 114.099284,27.59375 113.93457,27.59375 C113.640951,27.59375 113.417155,27.4988607 113.263184,27.309082 C113.109212,27.1193034 113.032227,26.813151 113.032227,26.390625 C113.032227,26.0540365 113.073405,25.6547852 113.155762,25.1928711 C113.238118,24.730957 113.340169,24.2278646 113.461914,23.6835938 C113.583659,23.1393229 113.714355,22.5628255 113.854004,21.9541016 C113.993652,21.3453776 114.124349,20.7241211 114.246094,20.090332 C114.367839,19.456543 114.469889,18.8155924 114.552246,18.1674805 C114.634603,17.5193685 114.675781,16.8873698 114.675781,16.2714844 C114.675781,15.6126302 114.614909,14.987793 114.493164,14.3969727 C114.371419,13.8061523 114.195964,13.2905273 113.966797,12.8500977 C113.73763,12.409668 113.452962,12.0605469 113.112793,11.8027344 C112.772624,11.5449219 112.384115,11.4160156 111.947266,11.4160156 C111.317057,11.4160156 110.708333,11.5735677 110.121094,11.8886719 C109.533854,12.203776 108.986003,12.6567383 108.477539,13.2475586 C107.969076,13.8383789 107.510742,14.5563151 107.102539,15.4013672 C106.694336,16.2464193 106.350586,17.1988932 106.071289,18.2587891 L106.071289,18.2587891 L105.845703,18.2695312 C105.910156,17.7682292 105.971029,17.3027344 106.02832,16.8730469 C106.049805,16.6940104 106.073079,16.5131836 106.098145,16.3305664 C106.12321,16.1479492 106.144694,15.9778646 106.162598,15.8203125 C106.180501,15.6627604 106.194824,15.523112 106.205566,15.4013672 C106.216309,15.2796224 106.22168,15.1901042 106.22168,15.1328125 C106.22168,14.5026042 106.166178,13.9583333 106.055176,13.5 C105.944173,13.0416667 105.788411,12.6621094 105.587891,12.3613281 C105.38737,12.0605469 105.147461,11.8385417 104.868164,11.6953125 C104.588867,11.5520833 104.284505,11.4804688 103.955078,11.4804688 C103.511068,11.4804688 103.063477,11.6022135 102.612305,11.8457031 C102.161133,12.0891927 101.715332,12.4329427 101.274902,12.8769531 C100.834473,13.3209635 100.406576,13.8527018 99.9912109,14.472168 C99.5758464,15.0916341 99.1837565,15.7827148 98.8149414,16.5454102 C98.4461263,17.3081055 98.105957,18.1280924 97.7944336,19.0053711 C97.4829102,19.8826497 97.2125651,20.797526 96.9833984,21.75 C97.0908203,21.234375 97.2018229,20.679362 97.3164062,20.0849609 C97.4309896,19.4905599 97.5366211,18.8979492 97.6333008,18.3071289 C97.7299805,17.7163086 97.8105469,17.1523438 97.875,16.6152344 C97.9394531,16.078125 97.9716797,15.6090495 97.9716797,15.2080078 C97.9716797,14.6852214 97.9376628,14.2089844 97.8696289,13.7792969 C97.8015951,13.3496094 97.6816406,12.9825846 97.5097656,12.6782227 C97.3378906,12.3738607 97.1051432,12.1375326 96.8115234,11.9692383 C96.5179036,11.800944 96.1490885,11.7167969 95.7050781,11.7167969 C95.3613281,11.7167969 95.0014648,11.7884115 94.6254883,11.9316406 C94.2495117,12.0748698 93.8806966,12.316569 93.519043,12.6567383 C93.1573893,12.9969076 92.8136393,13.4516602 92.487793,14.0209961 C92.1619466,14.590332 91.8701172,15.297526 91.6123047,16.1425781 C91.5836589,16.171224 91.5693359,16.2070312 91.5693359,16.25 C91.5693359,16.328776 91.5800781,16.4165039 91.6015625,16.5131836 C91.6230469,16.6098633 91.6499023,16.7011719 91.6821289,16.7871094 C91.7143555,16.8730469 91.7501628,16.9464518 91.7895508,17.0073242 C91.8289388,17.0681966 91.8665365,17.0986328 91.9023438,17.0986328 C92.0169271,17.0986328 92.1207682,17.0753581 92.2138672,17.0288086 C92.3069661,16.9822591 92.375,16.9052734 92.4179688,16.7978516 C92.6471354,16.4899089 92.8977865,16.2016602 93.1699219,15.9331055 C93.4420573,15.6645508 93.7141927,15.430013 93.9863281,15.2294922 C94.2584635,15.0289714 94.5180664,14.8696289 94.7651367,14.7514648 C95.012207,14.6333008 95.2216797,14.5742188 95.3935547,14.5742188 C95.5009766,14.5742188 95.581543,14.6064453 95.6352539,14.6708984 C95.6889648,14.7353516 95.7265625,14.8123372 95.7480469,14.9018555 C95.7695312,14.9913737 95.7802734,15.086263 95.7802734,15.1865234 L95.7802734,15.1865234 L95.7802734,15.4335938 C95.7229818,16.1783854 95.6692708,16.8766276 95.6191406,17.5283203 C95.5690104,18.180013 95.5135091,18.8120117 95.4526367,19.4243164 C95.3917643,20.0366211 95.3219401,20.6453451 95.2431641,21.2504883 C95.164388,21.8556315 95.0712891,22.4804688 94.9638672,23.125 C94.8564453,23.7695312 94.7275391,24.4516602 94.5771484,25.1713867 C94.4267578,25.8911133 94.2513021,26.6699219 94.0507812,27.5078125 C93.9934896,27.7584635 93.9505208,28.0073242 93.921875,28.2543945 C93.8932292,28.5014648 93.8789062,28.7718099 93.8789062,29.0654297 C93.8789062,29.2158203 93.9182943,29.3500977 93.9970703,29.4682617 C94.0758464,29.5864258 94.1832682,29.6866862 94.3193359,29.769043 C94.4554036,29.8513997 94.6111654,29.9122721 94.7866211,29.9516602 C94.9620768,29.9910482 95.1429036,30.0107422 95.3291016,30.0107422 Z M124.268555,30.0537109 C124.662435,30.0537109 125.056315,29.9570312 125.450195,29.7636719 C125.844076,29.5703125 126.212891,29.3339844 126.556641,29.0546875 C126.900391,28.7753906 127.210124,28.4817708 127.48584,28.1738281 C127.761556,27.8658854 127.981771,27.5973307 128.146484,27.3681641 L128.146484,27.3681641 L127.630859,24.9833984 C127.272786,25.4703776 126.918294,25.9072266 126.567383,26.2939453 C126.416992,26.4586589 126.25765,26.6180013 126.089355,26.7719727 C125.921061,26.925944 125.752767,27.0638021 125.584473,27.1855469 C125.416178,27.3072917 125.249674,27.4057617 125.084961,27.480957 C124.920247,27.5561523 124.762695,27.59375 124.612305,27.59375 C124.411784,27.59375 124.281087,27.4988607 124.220215,27.309082 C124.159342,27.1193034 124.128906,26.8561198 124.128906,26.5195312 C124.128906,26.125651 124.164714,25.7084961 124.236328,25.2680664 C124.307943,24.8276367 124.386719,24.387207 124.472656,23.9467773 C124.558594,23.5063477 124.63737,23.0766602 124.708984,22.6577148 C124.780599,22.2387695 124.816406,21.8574219 124.816406,21.5136719 C124.816406,21.2916667 124.796712,21.1162109 124.757324,20.9873047 C124.717936,20.8583984 124.662435,20.758138 124.59082,20.6865234 C124.519206,20.6149089 124.436849,20.5683594 124.34375,20.546875 C124.250651,20.5253906 124.150391,20.5146484 124.042969,20.5146484 C123.964193,20.5146484 123.883626,20.5164388 123.80127,20.5200195 C123.718913,20.5236003 123.638346,20.5253906 123.55957,20.5253906 C123.466471,20.5253906 123.375163,20.5200195 123.285645,20.5092773 C123.196126,20.4985352 123.108398,20.4752604 123.022461,20.4394531 C122.936523,20.4036458 122.864909,20.3463542 122.807617,20.2675781 C122.750326,20.1888021 122.691243,20.1082357 122.630371,20.0258789 C122.569499,19.9435221 122.492513,19.8701172 122.399414,19.8056641 C122.306315,19.7412109 122.177409,19.7089844 122.012695,19.7089844 C121.518555,19.7089844 121.033366,19.8146159 120.557129,20.0258789 C120.080892,20.2371419 119.62793,20.5218099 119.198242,20.8798828 C118.768555,21.2379557 118.372884,21.656901 118.01123,22.1367188 C117.649577,22.6165365 117.336263,23.1267904 117.071289,23.6674805 C116.806315,24.2081706 116.598633,24.7613932 116.448242,25.3271484 C116.297852,25.8929036 116.222656,26.4443359 116.222656,26.9814453 C116.222656,27.4541016 116.297852,27.878418 116.448242,28.2543945 C116.598633,28.6303711 116.799154,28.949056 117.049805,29.2104492 C117.300456,29.4718424 117.588704,29.6723633 117.914551,29.8120117 C118.240397,29.9516602 118.575195,30.0214844 118.918945,30.0214844 C119.241211,30.0214844 119.563477,29.9677734 119.885742,29.8603516 C120.208008,29.7529297 120.517741,29.6150716 120.814941,29.4467773 C121.112142,29.2784831 121.386068,29.0904948 121.636719,28.8828125 C121.88737,28.6751302 122.098633,28.4710286 122.270508,28.2705078 C122.499674,28.8505859 122.77181,29.292806 123.086914,29.597168 C123.402018,29.9015299 123.795898,30.0537109 124.268555,30.0537109 Z M119.810547,27.9375 C119.645833,27.9375 119.509766,27.8963216 119.402344,27.8139648 C119.294922,27.7316081 119.208984,27.6241862 119.144531,27.4916992 C119.080078,27.3592122 119.035319,27.2088216 119.010254,27.0405273 C118.985189,26.8722331 118.972656,26.6985677 118.972656,26.5195312 C118.972656,26.2044271 119.013835,25.8678385 119.096191,25.5097656 C119.178548,25.1516927 119.294922,24.7954102 119.445312,24.440918 C119.595703,24.0864258 119.77474,23.7480469 119.982422,23.4257812 C120.190104,23.1035156 120.41748,22.8170573 120.664551,22.5664062 C120.911621,22.3157552 121.174805,22.1170247 121.454102,21.9702148 C121.733398,21.8234049 122.019857,21.75 122.313477,21.75 L122.313477,21.75 L121.658203,24.9082031 C121.629557,25.1373698 121.566895,25.4238281 121.470215,25.7675781 C121.373535,26.1113281 121.246419,26.4443359 121.088867,26.7666016 C120.931315,27.0888672 120.745117,27.3645833 120.530273,27.59375 C120.31543,27.8229167 120.075521,27.9375 119.810547,27.9375 Z M130.541992,30 C130.806966,30 131.102376,29.9498698 131.428223,29.8496094 C131.754069,29.749349 132.126465,29.5989583 132.54541,29.3984375 C132.964355,29.1979167 133.442383,28.9472656 133.979492,28.6464844 C134.516602,28.3457031 135.128906,27.9947917 135.816406,27.59375 L135.816406,27.59375 L135.816406,24.84375 C135.601562,25.0800781 135.361654,25.3110352 135.09668,25.5366211 C134.831706,25.762207 134.554199,25.9770508 134.26416,26.1811523 C133.974121,26.3852539 133.680501,26.5732422 133.383301,26.7451172 C133.0861,26.9169922 132.803223,27.0655924 132.534668,27.190918 C132.266113,27.3162435 132.019043,27.4147135 131.793457,27.4863281 C131.567871,27.5579427 131.379883,27.59375 131.229492,27.59375 C130.986003,27.59375 130.765788,27.5561523 130.568848,27.480957 C130.371908,27.4057617 130.205404,27.2840169 130.069336,27.1157227 C129.933268,26.9474284 129.829427,26.7307943 129.757812,26.4658203 C129.686198,26.2008464 129.650391,25.875 129.650391,25.4882812 C129.650391,25.3378906 129.652181,25.1731771 129.655762,24.9941406 C129.659342,24.8151042 129.664714,24.6289062 129.671875,24.4355469 C129.679036,24.2421875 129.686198,24.0470378 129.693359,23.8500977 C129.700521,23.6531576 129.707682,23.4615885 129.714844,23.2753906 C129.736328,22.8457031 129.761393,22.4088542 129.790039,21.9648438 C129.969076,21.7428385 130.164225,21.4939779 130.375488,21.2182617 C130.586751,20.9425456 130.796224,20.6614583 131.003906,20.375 L131.003906,20.375 L135.128906,20.375 C135.300781,20.375 135.458333,20.296224 135.601562,20.1386719 C135.744792,19.9811198 135.816406,19.7770182 135.816406,19.5263672 C135.816406,19.3186849 135.78418,19.1468099 135.719727,19.0107422 C135.655273,18.8746745 135.551432,18.8030599 135.408203,18.7958984 C135.286458,18.788737 135.132487,18.7815755 134.946289,18.7744141 C134.760091,18.7672526 134.55957,18.7600911 134.344727,18.7529297 C134.129883,18.7457682 133.907878,18.7368164 133.678711,18.7260742 C133.449544,18.715332 133.236491,18.7063802 133.039551,18.6992188 C132.842611,18.6920573 132.668945,18.6866862 132.518555,18.6831055 C132.368164,18.6795247 132.260742,18.6741536 132.196289,18.6669922 C132.454102,18.2587891 132.699382,17.8470052 132.932129,17.4316406 C133.164876,17.016276 133.367188,16.6062826 133.539062,16.2016602 C133.710938,15.7970378 133.847005,15.3995768 133.947266,15.0092773 C134.047526,14.6189779 134.097656,14.2483724 134.097656,13.8974609 C134.097656,13.4820964 134.049316,13.0828451 133.952637,12.699707 C133.855957,12.316569 133.718099,11.9817708 133.539062,11.6953125 C133.360026,11.4088542 133.143392,11.1796875 132.88916,11.0078125 C132.634928,10.8359375 132.353841,10.75 132.045898,10.75 C131.566081,10.75 131.107747,10.9630534 130.670898,11.3891602 C130.234049,11.8152669 129.831217,12.3810221 129.462402,13.0864258 C129.093587,13.7918294 128.760579,14.5974935 128.463379,15.503418 C128.166178,16.4093424 127.920898,17.3457031 127.727539,18.3125 C127.655924,18.3268229 127.525228,18.332194 127.335449,18.3286133 C127.145671,18.3250326 126.930827,18.3196615 126.690918,18.3125 C126.451009,18.3053385 126.200358,18.3035482 125.938965,18.3071289 C125.677572,18.3107096 125.437663,18.3304036 125.219238,18.3662109 C125.000814,18.4020182 124.821777,18.4575195 124.682129,18.5327148 C124.54248,18.6079102 124.472656,18.7171224 124.472656,18.8603516 C124.472656,18.9248047 124.476237,19.0017904 124.483398,19.0913086 C124.49056,19.1808268 124.515625,19.2667643 124.558594,19.3491211 C124.601562,19.4314779 124.669596,19.5030924 124.762695,19.5639648 C124.855794,19.6248372 124.988281,19.6660156 125.160156,19.6875 C125.546875,19.7304688 125.842285,19.766276 126.046387,19.7949219 C126.250488,19.8235677 126.418783,19.8504232 126.55127,19.8754883 C126.683757,19.9005534 126.809082,19.9256185 126.927246,19.9506836 C127.04541,19.9757487 127.211914,20.0026042 127.426758,20.03125 C127.362305,20.5110677 127.312174,20.9944661 127.276367,21.4814453 C127.24056,21.9684245 127.222656,22.4267578 127.222656,22.8564453 C127.222656,23.9593099 127.29248,24.9511719 127.432129,25.8320312 C127.571777,26.7128906 127.78125,27.4630534 128.060547,28.0825195 C128.339844,28.7019857 128.687174,29.1764323 129.102539,29.5058594 C129.517904,29.8352865 129.997721,30 130.541992,30 Z M130.43457,18.4736328 C130.319987,18.4593099 130.208984,18.4467773 130.101562,18.4360352 C129.994141,18.425293 129.886719,18.4127604 129.779297,18.3984375 C129.908203,17.8183594 130.049642,17.2203776 130.203613,16.6044922 C130.357585,15.9886068 130.522298,15.4246419 130.697754,14.9125977 C130.87321,14.4005534 131.055827,13.9798177 131.245605,13.6503906 C131.435384,13.3209635 131.623372,13.15625 131.80957,13.15625 C131.945638,13.15625 132.05127,13.1848958 132.126465,13.2421875 C132.20166,13.2994792 132.257161,13.3710938 132.292969,13.4570312 C132.328776,13.5429688 132.352051,13.6342773 132.362793,13.730957 C132.373535,13.8276367 132.378906,13.9153646 132.378906,13.9941406 C132.378906,14.2233073 132.318034,14.5169271 132.196289,14.875 C132.074544,15.2330729 131.920573,15.6180013 131.734375,16.0297852 C131.548177,16.441569 131.338704,16.8605143 131.105957,17.2866211 C130.87321,17.7127279 130.649414,18.1083984 130.43457,18.4736328 Z M139.114258,30 C139.543945,30 139.968262,29.9516602 140.387207,29.8549805 C140.806152,29.7583008 141.210775,29.6293945 141.601074,29.4682617 C141.991374,29.3071289 142.36377,29.1227214 142.718262,28.9150391 C143.072754,28.7073568 143.403971,28.4960938 143.711914,28.28125 C144.420898,27.7799479 145.090495,27.2034505 145.720703,26.5517578 L145.720703,26.5517578 L144.334961,25.1123047 C144.055664,25.3844401 143.715495,25.6726888 143.314453,25.9770508 C142.913411,26.2814128 142.487305,26.5625 142.036133,26.8203125 C141.584961,27.078125 141.121257,27.2929688 140.64502,27.4648438 C140.168783,27.6367188 139.71582,27.7226562 139.286133,27.7226562 C139.150065,27.7226562 139.022949,27.7083333 138.904785,27.6796875 C138.786621,27.6510417 138.673828,27.6009115 138.566406,27.5292969 C138.458984,27.4576823 138.353353,27.3574219 138.249512,27.2285156 C138.145671,27.0996094 138.040039,26.9384766 137.932617,26.7451172 C138.555664,26.5732422 139.133952,26.3333333 139.66748,26.0253906 C140.201009,25.7174479 140.661133,25.3665365 141.047852,24.9726562 C141.43457,24.578776 141.737142,24.1598307 141.955566,23.7158203 C142.173991,23.2718099 142.283203,22.8277995 142.283203,22.3837891 C142.283203,21.9755859 142.211589,21.6067708 142.068359,21.2773438 C141.92513,20.9479167 141.7264,20.6668294 141.472168,20.434082 C141.217936,20.2013346 140.918945,20.0205078 140.575195,19.8916016 C140.231445,19.7626953 139.859049,19.6982422 139.458008,19.6982422 C138.963867,19.6982422 138.514486,19.7859701 138.109863,19.9614258 C137.705241,20.1368815 137.340007,20.3732096 137.01416,20.6704102 C136.688314,20.9676107 136.403646,21.3113607 136.160156,21.7016602 C135.916667,22.0919596 135.714355,22.5019531 135.553223,22.9316406 C135.39209,23.3613281 135.272135,23.7999674 135.193359,24.2475586 C135.114583,24.6951497 135.075195,25.1194661 135.075195,25.5205078 C135.075195,26.1149089 135.159342,26.6824544 135.327637,27.2231445 C135.495931,27.7638346 135.748372,28.2400716 136.084961,28.6518555 C136.421549,29.0636393 136.842285,29.391276 137.347168,29.6347656 C137.852051,29.8782552 138.441081,30 139.114258,30 Z M137.685547,24.9511719 C137.685547,24.7936198 137.692708,24.6038411 137.707031,24.3818359 C137.721354,24.1598307 137.75179,23.9306641 137.79834,23.6943359 C137.844889,23.4580078 137.912923,23.2234701 138.002441,22.9907227 C138.09196,22.7579753 138.210124,22.550293 138.356934,22.3676758 C138.503743,22.1850586 138.686361,22.0364583 138.904785,21.921875 C139.12321,21.8072917 139.386393,21.75 139.694336,21.75 C139.866211,21.75 140.01123,21.8538411 140.129395,22.0615234 C140.247559,22.2692057 140.306641,22.5341797 140.306641,22.8564453 C140.306641,23.085612 140.217122,23.3219401 140.038086,23.5654297 C139.859049,23.8089193 139.638835,24.0345052 139.377441,24.2421875 C139.116048,24.4498698 138.833171,24.6199544 138.528809,24.7524414 C138.224447,24.8849284 137.943359,24.9511719 137.685547,24.9511719 Z" id="DateMyMate" fill="#007A95" fill-rule="nonzero"></path>
        <g id="heart-icon-transparent-background-1-copy-13" transform="translate(147.000000, 13.000000)" fill="#007996" fill-rule="nonzero" stroke="#007995">
            <g id="Group" transform="translate(11.500000, 6.500000) scale(-1, 1) rotate(-180.000000) translate(-11.500000, -6.500000) ">
                <path d="M19.0414133,12.5442187 C18.9420488,12.5225905 18.6581502,12.4144493 18.409739,12.2990988 C17.8561369,12.0467695 17.0683185,11.260944 16.6992504,10.5976784 C16.5643986,10.3453491 16.4366443,10.1434856 16.4153519,10.1434856 C16.3940595,10.1434856 16.3159874,10.2444174 16.2450127,10.3669773 C16.0391863,10.7202383 15.4075121,11.3258286 14.9532744,11.5997862 C14.4138672,11.931419 13.6757311,12.16212 13.1505188,12.16212 C12.5898192,12.16212 11.8871703,11.931419 11.5535895,11.6358332 L11.269691,11.3907133 L11.0212798,11.5925768 C10.3683132,12.126073 9.21142668,12.1549106 8.2603666,11.6646709 C7.78483657,11.4123416 7.20284458,10.8067512 6.8905562,10.2299985 L6.59956021,9.69650231 L6.49309826,9.89836575 C6.28017436,10.3165114 5.6555976,11.0302429 5.25813965,11.296991 C4.6122705,11.7295555 4.129643,11.8881625 3.42699414,11.8953719 C1.0209541,11.9097907 -0.0578603115,9.88394693 0.850614983,7.04343994 C1.26226785,5.76016521 2.26301017,4.00827892 3.27794741,2.8115171 C4.13674046,1.80219989 5.54913565,0.771254462 6.66343738,0.338689946 C7.21703951,0.129617097 7.83451881,0.122407689 8.23197675,0.324271129 C8.4165108,0.42520285 9.1688419,1.16777194 10.304436,2.37174317 C11.2838859,3.41710742 12.1355815,4.29665527 12.1923612,4.33991172 C12.2704333,4.39037758 12.3839927,4.31828349 12.6678913,4.04432597 C13.3421503,3.37385097 14.4848419,2.63128188 15.3507324,2.28523027 C15.5565588,2.19871736 15.7765802,2.06894801 15.8333599,1.98964452 C15.9895041,1.76615285 16.2734026,1.82382812 16.9618565,2.24197382 C19.5027484,3.76315903 21.610695,5.74574639 22.4269032,7.36786333 C22.9095307,8.31950526 23.0656749,9.39370714 22.8385561,10.1795327 C22.5262677,11.296991 21.7384493,12.1404918 20.7235121,12.4649152 C20.3260541,12.5874752 19.4956509,12.6235222 19.0414133,12.5442187 Z M20.6190952,11.2606596 C21.0242127,11.0832847 21.4712388,10.6079199 21.6388736,10.1680302 C21.8903258,9.47981551 21.7506301,8.47232603 21.2616953,7.48612154 C20.5422626,6.03874228 18.3141168,3.95990836 16.1418491,2.70409401 L15.8624578,2.54090909 L14.8496642,3.25040872 C13.5016011,4.20823323 13.1034684,4.55588805 12.537701,5.21572271 C11.4969683,6.43606208 10.9172312,8.3304261 11.2315465,9.47981551 C11.4131509,10.1325552 11.9859031,10.6646799 12.7542293,10.8917198 C14.0883229,11.2890396 15.2338273,10.6008249 15.8345187,9.03992573 C16.1837578,8.1388612 16.1697883,8.16014619 16.4910883,8.18143118 L16.7774644,8.20271617 L16.8333427,8.69227091 C16.9241449,9.57205046 17.3851406,10.3383101 18.0836189,10.8136748 C18.4328581,11.0478097 19.0894277,11.3174196 19.466606,11.3883695 C19.7390125,11.4380345 20.3606583,11.3670845 20.6190952,11.2606596 Z M10.1865801,11.2949721 C10.6721239,11.1488743 10.9257661,10.9516422 10.8025685,10.8055444 C10.7590869,10.7471053 10.6286423,10.4695195 10.5271854,10.1919336 C10.3532593,9.75364022 10.3315185,9.57832286 10.3242716,8.81130936 C10.3097778,7.42338019 10.6141485,6.62714714 11.7156807,5.12233971 C11.7953968,5.00546147 11.6794461,4.86666855 10.6286423,3.82206922 C9.2517271,2.45605472 8.61399794,1.93010261 7.96177493,1.60138254 C7.02692196,1.14117445 6.21526666,1.32379671 5.0557591,2.25882268 C3.57014003,3.44221492 1.71492793,6.26920751 1.2511249,8.04429587 C1.17865568,8.30727193 1.1206803,8.76748002 1.1206803,9.06698053 C1.10618646,10.3891657 2.03379251,11.2584476 3.36722621,11.170789 C4.62819069,11.0904352 5.65725365,10.1334945 6.11380975,8.6286871 C6.33846434,7.87628339 6.41818049,7.75210026 6.650082,7.75210026 C6.94720582,7.75210026 7.09214426,7.92741763 7.09214426,8.28535726 C7.09939118,9.22768812 7.70813265,10.4037755 8.46905949,10.9297276 C8.78067715,11.1488743 9.41840631,11.3972406 9.67204859,11.4045455 C9.75176474,11.4045455 9.98366625,11.3534112 10.1865801,11.2949721 Z" id="Shape"></path>
            </g>
        </g>
    </g>
</svg>